<svg width="1280" height="784" viewBox="0 0 1280 784" fill="none" xmlns="http://www.w3.org/2000/svg">
<rect y="32" width="1280" height="40" fill="white"/>
<rect y="72" width="1280" height="1" fill="#EEEEEE"/>
<path d="M1254 50C1253.6 50 1253.22 50.1173 1252.89 50.3371C1252.56 50.5568 1252.3 50.8692 1252.15 51.2346C1252 51.6001 1251.96 52.0022 1252.04 52.3902C1252.12 52.7781 1252.31 53.1345 1252.59 53.4142C1252.87 53.6939 1253.22 53.8844 1253.61 53.9616C1254 54.0387 1254.4 53.9991 1254.77 53.8478C1255.13 53.6964 1255.44 53.44 1255.66 53.1111C1255.88 52.7822 1256 52.3956 1256 52C1256 51.4696 1255.79 50.9609 1255.41 50.5858C1255.04 50.2107 1254.53 50 1254 50V50ZM1260 50C1259.6 50 1259.22 50.1173 1258.89 50.3371C1258.56 50.5568 1258.3 50.8692 1258.15 51.2346C1258 51.6001 1257.96 52.0022 1258.04 52.3902C1258.12 52.7781 1258.31 53.1345 1258.59 53.4142C1258.87 53.6939 1259.22 53.8844 1259.61 53.9616C1260 54.0387 1260.4 53.9991 1260.77 53.8478C1261.13 53.6964 1261.44 53.44 1261.66 53.1111C1261.88 52.7822 1262 52.3956 1262 52C1262 51.4696 1261.79 50.9609 1261.41 50.5858C1261.04 50.2107 1260.53 50 1260 50V50ZM1266 50C1265.6 50 1265.22 50.1173 1264.89 50.3371C1264.56 50.5568 1264.3 50.8692 1264.15 51.2346C1264 51.6001 1263.96 52.0022 1264.04 52.3902C1264.12 52.7781 1264.31 53.1345 1264.59 53.4142C1264.87 53.6939 1265.22 53.8844 1265.61 53.9616C1266 54.0387 1266.4 53.9991 1266.77 53.8478C1267.13 53.6964 1267.44 53.44 1267.66 53.1111C1267.88 52.7822 1268 52.3956 1268 52C1268 51.4696 1267.79 50.9609 1267.41 50.5858C1267.04 50.2107 1266.53 50 1266 50V50Z" fill="#4D4D4D"/>
<rect x="1239" y="44" width="1" height="16" fill="black" fill-opacity="0.1"/>
<circle cx="24" cy="52" r="17" fill="white"/>
<path d="M24.7071 44.2929C25.0976 44.6834 25.0976 45.3166 24.7071 45.7071L19.4142 51H31C31.5523 51 32 51.4477 32 52C32 52.5523 31.5523 53 31 53H19.4142L24.7071 58.2929C25.0976 58.6834 25.0976 59.3166 24.7071 59.7071C24.3166 60.0976 23.6834 60.0976 23.2929 59.7071L16.2929 52.7071C15.9024 52.3166 15.9024 51.6834 16.2929 51.2929L23.2929 44.2929C23.6834 43.9024 24.3166 43.9024 24.7071 44.2929Z" fill="#4D4D4D"/>
<path d="M55.2929 44.2929C54.9024 44.6834 54.9024 45.3166 55.2929 45.7071L60.5858 51H49C48.4477 51 48 51.4477 48 52C48 52.5523 48.4477 53 49 53H60.5858L55.2929 58.2929C54.9024 58.6834 54.9024 59.3166 55.2929 59.7071C55.6834 60.0976 56.3166 60.0976 56.7071 59.7071L63.7071 52.7071C64.0976 52.3166 64.0976 51.6834 63.7071 51.2929L56.7071 44.2929C56.3166 43.9024 55.6834 43.9024 55.2929 44.2929Z" fill="#4D4D4D"/>
<path d="M84.9878 46.7383C86.077 46.1156 87.3281 45.8784 88.554 46.0587C89.7802 46.2391 90.9226 46.8285 91.8068 47.7458C92.1921 48.1456 92.5694 48.5975 92.8859 49H92.3141H90.0003C89.7351 49 89.4807 49.1054 89.2932 49.2929C89.1057 49.4804 89.0003 49.7348 89.0003 50C89.0003 50.2652 89.1057 50.5196 89.2932 50.7071C89.4807 50.8946 89.7351 51 90.0003 51H95.0003C95.2655 51 95.5199 50.8946 95.7074 50.7071C95.8949 50.5196 96.0003 50.2652 96.0003 50V45C96.0003 44.7348 95.8949 44.4804 95.7074 44.2929C95.5199 44.1054 95.2655 44 95.0003 44C94.7351 44 94.4807 44.1054 94.2932 44.2929C94.1056 44.4804 94.0003 44.7348 94.0003 45V47.1998C93.7648 46.9193 93.5098 46.6307 93.2468 46.3579C92.0615 45.1281 90.5174 44.326 88.845 44.08C87.1723 43.834 85.4697 44.159 83.9951 45.002C82.5213 45.8446 81.3584 47.1568 80.6749 48.735C79.9915 50.3128 79.8219 52.0756 80.1898 53.7597C80.5578 55.4441 81.445 56.9651 82.725 58.0903C84.0057 59.2161 85.6097 59.8839 87.2965 59.9862C88.9835 60.0885 90.6535 59.6192 92.0545 58.6542C92.0774 58.6384 92.0998 58.6216 92.1214 58.6039L91.4872 57.8307L92.1214 58.6038H92.1215L92.1217 58.6036L92.1224 58.603L92.1249 58.6009L92.1342 58.5933L92.1687 58.5649C92.1984 58.5403 92.241 58.505 92.2937 58.4611C92.3988 58.3734 92.5444 58.2511 92.7063 58.1126C93.0226 57.8419 93.427 57.4872 93.7071 57.2071C94.0976 56.8166 94.0976 56.1834 93.7071 55.7929C93.3166 55.4024 92.6834 55.4024 92.2929 55.7929C92.073 56.0128 91.721 56.3234 91.4059 56.5931C91.2521 56.7247 91.1132 56.8413 91.0129 56.925C90.9627 56.9668 90.9224 57.0003 90.8947 57.0231L90.8859 57.0304C89.8554 57.7293 88.6398 58.064 87.4176 57.9899C86.1818 57.9149 84.9979 57.4254 84.0455 56.5882C83.0925 55.7504 82.4225 54.609 82.1437 53.3329C81.8649 52.0565 81.9942 50.7212 82.5101 49.5299C83.0259 48.339 83.8979 47.3613 84.9878 46.7383Z" fill="#4D4D4D"/>
<path fill-rule="evenodd" clip-rule="evenodd" d="M113.001 58.0213V50.1325C113.001 50.1151 113 50.098 113 50.0806C113 49.9777 113.024 49.5889 113.389 49.3099L119.434 44.6929C119.771 44.4357 120.229 44.4357 120.566 44.6929L126.611 49.3099C126.976 49.5889 127 49.9777 127 50.0806C127 50.098 126.999 50.1151 126.999 50.1325V58.0213C126.999 59.1141 126.216 60 125.249 60H114.751C113.784 60 113.001 59.1141 113.001 58.0213ZM114.997 50.7456C114.841 50.8705 114.751 51.0628 114.751 51.2665V57.3617C114.751 57.726 115.035 58.0213 115.387 58.0213H124.613C124.965 58.0213 125.249 57.726 125.249 57.3617V51.2665C125.249 51.0628 125.159 50.8705 125.003 50.7456L120.39 47.0324C120.161 46.8476 119.839 46.8476 119.61 47.0324L114.997 50.7456Z" fill="#4D4D4D"/>
<rect x="261" y="37" width="821" height="30" rx="4" fill="#F2F2F2"/>
<path d="M275.125 46.75C272.709 46.75 270.75 48.7088 270.75 51.125C270.75 53.5413 272.709 55.5 275.125 55.5C277.541 55.5 279.5 53.5413 279.5 51.125C279.5 48.7088 277.541 46.75 275.125 46.75ZM269 51.125C269 47.7423 271.742 45 275.125 45C278.508 45 281.25 47.7423 281.25 51.125C281.25 54.5078 278.508 57.25 275.125 57.25C271.742 57.25 269 54.5078 269 51.125Z" fill="#848484"/>
<path d="M279.938 54.905L282.744 57.5063C283.085 57.848 283.085 58.4021 282.744 58.7437C282.402 59.0854 281.848 59.0854 281.506 58.7437L278.625 56.1563L279.938 54.905Z" fill="#848484"/>
<path d="M298.195 50.0291H299.571C299.529 48.5149 298.191 47.4162 296.27 47.4162C294.373 47.4162 292.919 48.5011 292.919 50.1307C292.919 51.4464 293.86 52.2173 295.379 52.6282L296.496 52.9329C297.507 53.2006 298.288 53.533 298.288 54.3732C298.288 55.2965 297.406 55.9059 296.192 55.9059C295.093 55.9059 294.179 55.4165 294.096 54.3871H292.665C292.757 56.0998 294.082 57.157 296.201 57.157C298.422 57.157 299.7 55.989 299.7 54.3871C299.7 52.6836 298.181 52.0234 296.981 51.728L296.058 51.4879C295.319 51.2987 294.336 50.9524 294.341 50.0476C294.341 49.2443 295.075 48.6488 296.238 48.6488C297.323 48.6488 298.094 49.1566 298.195 50.0291ZM304.35 57.1431C305.897 57.1431 306.991 56.3814 307.305 55.2273L305.998 54.9918C305.749 55.6612 305.149 56.0028 304.364 56.0028C303.182 56.0028 302.388 55.2365 302.351 53.87H307.392V53.3807C307.392 50.8185 305.86 49.8168 304.253 49.8168C302.277 49.8168 300.976 51.3217 300.976 53.5007C300.976 55.7028 302.259 57.1431 304.35 57.1431ZM302.356 52.8359C302.411 51.8295 303.141 50.957 304.263 50.957C305.334 50.957 306.035 51.7511 306.04 52.8359H302.356ZM310.988 57.157C312.16 57.157 312.82 56.5614 313.083 56.0305H313.139V57H314.487V52.2912C314.487 50.2276 312.862 49.8168 311.735 49.8168C310.452 49.8168 309.27 50.3338 308.809 51.6264L310.106 51.9219C310.309 51.4187 310.826 50.9339 311.754 50.9339C312.645 50.9339 313.102 51.4002 313.102 52.2035V52.2358C313.102 52.739 312.585 52.7298 311.311 52.8775C309.967 53.0344 308.592 53.3853 308.592 54.9964C308.592 56.3906 309.64 57.157 310.988 57.157ZM311.288 56.049C310.507 56.049 309.944 55.6982 309.944 55.0149C309.944 54.2763 310.6 54.0131 311.398 53.907C311.846 53.8469 312.908 53.7269 313.107 53.5284V54.4425C313.107 55.2827 312.437 56.049 311.288 56.049ZM316.325 57H317.706V52.6697C317.706 51.7418 318.421 51.0724 319.4 51.0724C319.686 51.0724 320.009 51.1232 320.12 51.1555V49.8352C319.982 49.8168 319.709 49.8029 319.534 49.8029C318.703 49.8029 317.992 50.2738 317.733 51.0355H317.66V49.9091H316.325V57ZM324.048 57.1431C325.723 57.1431 326.808 56.1367 326.961 54.7564H325.617C325.442 55.5227 324.846 55.9751 324.057 55.9751C322.889 55.9751 322.136 55.0011 322.136 53.4545C322.136 51.9357 322.903 50.9801 324.057 50.9801C324.934 50.9801 325.469 51.5341 325.617 52.1989H326.961C326.813 50.7678 325.645 49.8168 324.034 49.8168C322.035 49.8168 320.742 51.3217 320.742 53.4869C320.742 55.6243 321.989 57.1431 324.048 57.1431ZM329.817 52.7898C329.817 51.6587 330.533 51.0124 331.516 51.0124C332.467 51.0124 333.035 51.6172 333.035 52.6559V57H334.415V52.4897C334.415 50.7216 333.446 49.8168 331.987 49.8168C330.883 49.8168 330.219 50.2969 329.886 51.0632H329.799V47.5455H328.437V57H329.817V52.7898ZM342.684 57.1431C344.683 57.1431 345.99 55.6797 345.99 53.4869C345.99 51.2802 344.683 49.8168 342.684 49.8168C340.685 49.8168 339.379 51.2802 339.379 53.4869C339.379 55.6797 340.685 57.1431 342.684 57.1431ZM342.689 55.9844C341.382 55.9844 340.773 54.8441 340.773 53.4822C340.773 52.125 341.382 50.9709 342.689 50.9709C343.986 50.9709 344.596 52.125 344.596 53.4822C344.596 54.8441 343.986 55.9844 342.689 55.9844ZM347.53 57H348.911V52.6697C348.911 51.7418 349.626 51.0724 350.605 51.0724C350.891 51.0724 351.214 51.1232 351.325 51.1555V49.8352C351.187 49.8168 350.914 49.8029 350.739 49.8029C349.908 49.8029 349.197 50.2738 348.938 51.0355H348.865V49.9091H347.53V57ZM359.016 57.1431C360.563 57.1431 361.657 56.3814 361.971 55.2273L360.664 54.9918C360.415 55.6612 359.815 56.0028 359.03 56.0028C357.848 56.0028 357.054 55.2365 357.017 53.87H362.059V53.3807C362.059 50.8185 360.526 49.8168 358.919 49.8168C356.943 49.8168 355.642 51.3217 355.642 53.5007C355.642 55.7028 356.925 57.1431 359.016 57.1431ZM357.022 52.8359C357.077 51.8295 357.807 50.957 358.929 50.957C360 50.957 360.701 51.7511 360.706 52.8359H357.022ZM364.97 52.7898C364.97 51.6587 365.663 51.0124 366.623 51.0124C367.56 51.0124 368.128 51.6264 368.128 52.6559V57H369.508V52.4897C369.508 50.7354 368.544 49.8168 367.094 49.8168C366.028 49.8168 365.33 50.3107 365.003 51.0632H364.915V49.9091H363.59V57H364.97V52.7898ZM374.67 49.9091H373.215V48.2102H371.835V49.9091H370.796V51.017H371.835V55.2042C371.83 56.4922 372.814 57.1154 373.903 57.0923C374.342 57.0877 374.637 57.0046 374.799 56.9446L374.55 55.8043C374.457 55.8228 374.286 55.8643 374.065 55.8643C373.617 55.8643 373.215 55.7166 373.215 54.918V51.017H374.67V49.9091ZM379.176 57.1431C380.723 57.1431 381.817 56.3814 382.131 55.2273L380.824 54.9918C380.575 55.6612 379.975 56.0028 379.19 56.0028C378.008 56.0028 377.214 55.2365 377.177 53.87H382.219V53.3807C382.219 50.8185 380.686 49.8168 379.079 49.8168C377.104 49.8168 375.802 51.3217 375.802 53.5007C375.802 55.7028 377.085 57.1431 379.176 57.1431ZM377.182 52.8359C377.237 51.8295 377.967 50.957 379.089 50.957C380.16 50.957 380.861 51.7511 380.866 52.8359H377.182ZM383.75 57H385.131V52.6697C385.131 51.7418 385.846 51.0724 386.825 51.0724C387.111 51.0724 387.434 51.1232 387.545 51.1555V49.8352C387.406 49.8168 387.134 49.8029 386.959 49.8029C386.128 49.8029 385.417 50.2738 385.158 51.0355H385.084V49.9091H383.75V57ZM393.717 57H395.121L396.561 51.8803H396.667L398.107 57H399.515L401.597 49.9091H400.171L398.791 55.0934H398.721L397.336 49.9091H395.91L394.516 55.1165H394.447L393.057 49.9091H391.631L393.717 57ZM405.748 57.1431C407.294 57.1431 408.388 56.3814 408.702 55.2273L407.396 54.9918C407.146 55.6612 406.546 56.0028 405.762 56.0028C404.58 56.0028 403.786 55.2365 403.749 53.87H408.79V53.3807C408.79 50.8185 407.257 49.8168 405.651 49.8168C403.675 49.8168 402.373 51.3217 402.373 53.5007C402.373 55.7028 403.656 57.1431 405.748 57.1431ZM403.753 52.8359C403.809 51.8295 404.538 50.957 405.66 50.957C406.731 50.957 407.433 51.7511 407.437 52.8359H403.753ZM410.432 57H411.78V55.8967H411.896C412.145 56.3491 412.653 57.1385 413.945 57.1385C415.663 57.1385 416.909 55.7628 416.909 53.4684C416.909 51.1694 415.644 49.8168 413.932 49.8168C412.616 49.8168 412.14 50.62 411.896 51.0586H411.813V47.5455H410.432V57ZM411.785 53.4545C411.785 51.9727 412.431 50.9893 413.636 50.9893C414.887 50.9893 415.515 52.0465 415.515 53.4545C415.515 54.8764 414.869 55.9613 413.636 55.9613C412.45 55.9613 411.785 54.9457 411.785 53.4545ZM423.773 51.6403C423.487 50.5369 422.623 49.8168 421.091 49.8168C419.489 49.8168 418.353 50.6616 418.353 51.9173C418.353 52.9237 418.962 53.593 420.292 53.8885L421.492 54.1516C422.175 54.304 422.494 54.6087 422.494 55.0518C422.494 55.6012 421.908 56.0305 421.003 56.0305C420.176 56.0305 419.646 55.6751 419.479 54.978L418.145 55.1811C418.376 56.4368 419.419 57.1431 421.012 57.1431C422.725 57.1431 423.911 56.2337 423.911 54.9503C423.911 53.9485 423.274 53.3299 421.972 53.0298L420.846 52.7713C420.066 52.5866 419.729 52.3235 419.733 51.8434C419.729 51.2987 420.32 50.9109 421.104 50.9109C421.963 50.9109 422.36 51.3864 422.522 51.8619L423.773 51.6403ZM425.429 57H426.809V49.9091H425.429V57ZM426.126 48.815C426.601 48.815 426.998 48.4457 426.998 47.9933C426.998 47.5408 426.601 47.1669 426.126 47.1669C425.646 47.1669 425.253 47.5408 425.253 47.9933C425.253 48.4457 425.646 48.815 426.126 48.815ZM431.976 49.9091H430.522V48.2102H429.142V49.9091H428.103V51.017H429.142V55.2042C429.137 56.4922 430.12 57.1154 431.21 57.0923C431.648 57.0877 431.944 57.0046 432.105 56.9446L431.856 55.8043C431.764 55.8228 431.593 55.8643 431.371 55.8643C430.924 55.8643 430.522 55.7166 430.522 54.918V51.017H431.976V49.9091ZM436.483 57.1431C438.03 57.1431 439.124 56.3814 439.438 55.2273L438.131 54.9918C437.882 55.6612 437.282 56.0028 436.497 56.0028C435.315 56.0028 434.521 55.2365 434.484 53.87H439.525V53.3807C439.525 50.8185 437.993 49.8168 436.386 49.8168C434.41 49.8168 433.108 51.3217 433.108 53.5007C433.108 55.7028 434.392 57.1431 436.483 57.1431ZM434.489 52.8359C434.544 51.8295 435.274 50.957 436.395 50.957C437.466 50.957 438.168 51.7511 438.173 52.8359H434.489ZM445.878 52.7898C445.878 51.6587 446.57 51.0124 447.53 51.0124C448.467 51.0124 449.035 51.6264 449.035 52.6559V57H450.416V52.4897C450.416 50.7354 449.451 49.8168 448.001 49.8168C446.935 49.8168 446.238 50.3107 445.91 51.0632H445.822V49.9091H444.497V57H445.878V52.7898ZM454.33 57.157C455.503 57.157 456.163 56.5614 456.426 56.0305H456.482V57H457.83V52.2912C457.83 50.2276 456.205 49.8168 455.078 49.8168C453.795 49.8168 452.613 50.3338 452.151 51.6264L453.449 51.9219C453.652 51.4187 454.169 50.9339 455.097 50.9339C455.988 50.9339 456.445 51.4002 456.445 52.2035V52.2358C456.445 52.739 455.928 52.7298 454.653 52.8775C453.31 53.0344 451.934 53.3853 451.934 54.9964C451.934 56.3906 452.982 57.157 454.33 57.157ZM454.63 56.049C453.85 56.049 453.287 55.6982 453.287 55.0149C453.287 54.2763 453.943 54.0131 454.741 53.907C455.189 53.8469 456.251 53.7269 456.449 53.5284V54.4425C456.449 55.2827 455.78 56.049 454.63 56.049ZM459.668 57H461.048V52.6282C461.048 51.6726 461.718 51.0078 462.503 51.0078C463.269 51.0078 463.8 51.5156 463.8 52.2866V57H465.176V52.4805C465.176 51.6264 465.697 51.0078 466.597 51.0078C467.327 51.0078 467.927 51.4141 467.927 52.3743V57H469.307V52.245C469.307 50.6246 468.403 49.8168 467.119 49.8168C466.099 49.8168 465.333 50.3061 464.991 51.0632H464.917C464.608 50.2876 463.957 49.8168 463.01 49.8168C462.073 49.8168 461.376 50.283 461.081 51.0632H460.993V49.9091H459.668V57ZM474.214 57.1431C475.76 57.1431 476.854 56.3814 477.168 55.2273L475.862 54.9918C475.612 55.6612 475.012 56.0028 474.227 56.0028C473.046 56.0028 472.252 55.2365 472.215 53.87H477.256V53.3807C477.256 50.8185 475.723 49.8168 474.117 49.8168C472.141 49.8168 470.839 51.3217 470.839 53.5007C470.839 55.7028 472.122 57.1431 474.214 57.1431ZM472.219 52.8359C472.275 51.8295 473.004 50.957 474.126 50.957C475.197 50.957 475.899 51.7511 475.903 52.8359H472.219Z" fill="black" fill-opacity="0.5"/>
<g clip-path="url(#clip0)">
<path d="M1030 50C1029.6 50 1029.22 50.1173 1028.89 50.3371C1028.56 50.5568 1028.3 50.8692 1028.15 51.2346C1028 51.6001 1027.96 52.0022 1028.04 52.3902C1028.12 52.7781 1028.31 53.1345 1028.59 53.4142C1028.87 53.6939 1029.22 53.8844 1029.61 53.9616C1030 54.0387 1030.4 53.9991 1030.77 53.8478C1031.13 53.6964 1031.44 53.44 1031.66 53.1111C1031.88 52.7822 1032 52.3956 1032 52C1032 51.4696 1031.79 50.9609 1031.41 50.5858C1031.04 50.2107 1030.53 50 1030 50V50ZM1036 50C1035.6 50 1035.22 50.1173 1034.89 50.3371C1034.56 50.5568 1034.3 50.8692 1034.15 51.2346C1034 51.6001 1033.96 52.0022 1034.04 52.3902C1034.12 52.7781 1034.31 53.1345 1034.59 53.4142C1034.87 53.6939 1035.22 53.8844 1035.61 53.9616C1036 54.0387 1036.4 53.9991 1036.77 53.8478C1037.13 53.6964 1037.44 53.44 1037.66 53.1111C1037.88 52.7822 1038 52.3956 1038 52C1038 51.4696 1037.79 50.9609 1037.41 50.5858C1037.04 50.2107 1036.53 50 1036 50V50ZM1042 50C1041.6 50 1041.22 50.1173 1040.89 50.3371C1040.56 50.5568 1040.3 50.8692 1040.15 51.2346C1040 51.6001 1039.96 52.0022 1040.04 52.3902C1040.12 52.7781 1040.31 53.1345 1040.59 53.4142C1040.87 53.6939 1041.22 53.8844 1041.61 53.9616C1042 54.0387 1042.4 53.9991 1042.77 53.8478C1043.13 53.6964 1043.44 53.44 1043.66 53.1111C1043.88 52.7822 1044 52.3956 1044 52C1044 51.4696 1043.79 50.9609 1043.41 50.5858C1043.04 50.2107 1042.53 50 1042 50V50Z" fill="black" fill-opacity="0.6"/>
</g>
<g clip-path="url(#clip1)">
<path fill-rule="evenodd" clip-rule="evenodd" d="M1064 44C1064.4 44 1064.75 44.2327 1064.91 44.5939L1066.7 48.6209L1071.2 49.5194C1071.55 49.5894 1071.83 49.8406 1071.95 50.1785C1072.06 50.5165 1071.99 50.8899 1071.75 51.1585L1068.58 54.7867L1069.39 58.8023C1069.46 59.1704 1069.32 59.549 1069.03 59.7826C1068.74 60.0163 1068.34 60.0658 1067.99 59.9106L1064.03 58.1105L1060.57 59.8893C1060.24 60.0581 1059.85 60.0324 1059.54 59.8224C1059.24 59.6123 1059.08 59.2522 1059.12 58.8855L1059.58 54.8361L1056.26 51.172C1056.02 50.9053 1055.94 50.5291 1056.05 50.1871C1056.16 49.8451 1056.45 49.59 1056.8 49.5194L1061.3 48.6209L1063.09 44.5939C1063.25 44.2327 1063.6 44 1064 44ZM1064 47.4622L1062.91 49.9061C1062.78 50.2027 1062.51 50.4169 1062.2 50.4806L1058.93 51.1346L1061.37 53.828C1061.56 54.0415 1061.66 54.3281 1061.62 54.6145L1061.32 57.2544L1063.54 56.1107C1063.81 55.971 1064.14 55.9631 1064.41 56.0894L1067.04 57.2817L1066.52 54.6977C1066.46 54.3924 1066.54 54.0759 1066.75 53.8415L1069.11 51.1417L1065.8 50.4806C1065.49 50.4169 1065.22 50.2027 1065.09 49.9061L1064 47.4622Z" fill="black" fill-opacity="0.6"/>
</g>
<path d="M1152 47C1151.73 47 1151.48 47.1054 1151.29 47.2929C1151.11 47.4804 1151 47.7348 1151 48V58C1151 58.2652 1151.11 58.5196 1151.29 58.7071C1151.48 58.8946 1151.73 59 1152 59C1152.27 59 1152.52 58.8946 1152.71 58.7071C1152.89 58.5196 1153 58.2652 1153 58V48C1153 47.7348 1152.89 47.4804 1152.71 47.2929C1152.52 47.1054 1152.27 47 1152 47V47ZM1155 46C1154.73 46 1154.48 46.1054 1154.29 46.2929C1154.11 46.4804 1154 46.7348 1154 47V58C1154 58.2652 1154.11 58.5196 1154.29 58.7071C1154.48 58.8946 1154.73 59 1155 59C1155.27 59 1155.52 58.8946 1155.71 58.7071C1155.89 58.5196 1156 58.2652 1156 58V47C1156 46.7348 1155.89 46.4804 1155.71 46.2929C1155.52 46.1054 1155.27 46 1155 46V46ZM1162.94 57.658L1158.94 46.658C1158.9 46.5322 1158.83 46.4163 1158.74 46.317C1158.65 46.2176 1158.54 46.1369 1158.42 46.0796C1158.3 46.0222 1158.17 45.9894 1158.04 45.983C1157.91 45.9765 1157.78 45.9966 1157.65 46.0421C1157.53 46.0876 1157.41 46.1575 1157.31 46.2478C1157.22 46.3381 1157.14 46.447 1157.08 46.568C1157.03 46.6891 1157 46.8198 1156.99 46.9527C1156.99 47.0856 1157.01 47.218 1157.06 47.342L1161.06 58.342C1161.1 58.4678 1161.17 58.5837 1161.26 58.6831C1161.35 58.7824 1161.45 58.8631 1161.57 58.9204C1161.69 58.9778 1161.82 59.0106 1161.96 59.017C1162.09 59.0235 1162.22 59.0034 1162.35 58.9579C1162.47 58.9124 1162.59 58.8425 1162.69 58.7522C1162.78 58.6619 1162.86 58.553 1162.92 58.432C1162.97 58.3109 1163 58.1802 1163.01 58.0473C1163.01 57.9144 1162.99 57.782 1162.94 57.658V57.658ZM1149 45C1148.73 45 1148.48 45.1054 1148.29 45.2929C1148.11 45.4804 1148 45.7348 1148 46V58C1148 58.2652 1148.11 58.5196 1148.29 58.7071C1148.48 58.8946 1148.73 59 1149 59C1149.27 59 1149.52 58.8946 1149.71 58.7071C1149.89 58.5196 1150 58.2652 1150 58V46C1150 45.7348 1149.89 45.4804 1149.71 45.2929C1149.52 45.1054 1149.27 45 1149 45Z" fill="black" fill-opacity="0.7"/>
<path d="M1184.67 55.3333H1189.33C1190.62 55.3333 1191.67 56.378 1191.67 57.6667V58.8333C1191.67 59.4777 1192.19 60 1192.83 60C1193.48 60 1194 59.4777 1194 58.8333V57.6667C1194 55.0893 1191.91 53 1189.33 53H1184.67C1182.09 53 1180 55.0893 1180 57.6667V58.8333C1180 59.4777 1180.52 60 1181.17 60C1181.81 60 1182.33 59.4777 1182.33 58.8333V57.6667C1182.33 56.378 1183.38 55.3333 1184.67 55.3333Z" fill="#4D4D4D"/>
<path fill-rule="evenodd" clip-rule="evenodd" d="M1187 50C1188.1 50 1189 49.1046 1189 48C1189 46.8954 1188.1 46 1187 46C1185.9 46 1185 46.8954 1185 48C1185 49.1046 1185.9 50 1187 50ZM1187 52C1189.21 52 1191 50.2091 1191 48C1191 45.7909 1189.21 44 1187 44C1184.79 44 1183 45.7909 1183 48C1183 50.2091 1184.79 52 1187 52Z" fill="#4D4D4D"/>
<path fill-rule="evenodd" clip-rule="evenodd" d="M1225 46.6667C1225 46.2985 1224.7 46 1224.33 46H1213.67C1213.3 46 1213 46.2985 1213 46.6667V57.3333C1213 57.7015 1213.3 58 1213.67 58H1224.33C1224.7 58 1225 57.7015 1225 57.3333V46.6667ZM1213 44C1211.9 44 1211 44.8954 1211 46V58C1211 59.1046 1211.9 60 1213 60H1225C1226.1 60 1227 59.1046 1227 58V46C1227 44.8954 1226.1 44 1225 44H1213Z" fill="black" fill-opacity="0.7"/>
<path d="M1215.67 46H1217.67V58H1215.67V46Z" fill="black" fill-opacity="0.7"/>
<rect width="1280" height="32" fill="#232323"/>
<g filter="url(#filter0_i)">
<circle cx="20" cy="16" r="6" fill="#ED6A5E"/>
</g>
<circle cx="20" cy="16" r="5.75" stroke="#CE5347" stroke-width="0.5"/>
<g filter="url(#filter1_i)">
<circle cx="40" cy="16" r="6" fill="#F6BE4F"/>
</g>
<circle cx="40" cy="16" r="5.75" stroke="#D6A243" stroke-width="0.5"/>
<g filter="url(#filter2_i)">
<circle cx="60" cy="16" r="6" fill="#62C554"/>
</g>
<circle cx="60" cy="16" r="5.75" stroke="#58A942" stroke-width="0.5"/>
<g clip-path="url(#clip2)">
<path d="M106 8C106 4.68629 108.686 2 112 2H324C327.314 2 330 4.68629 330 8V33H106V8Z" fill="white"/>
<path d="M126.003 14.2727H124.699V20.6818H124.618L120.178 14.2727H118.959V23H120.276V16.5994H120.357L124.793 23H126.003V14.2727ZM130.642 23.1321C132.07 23.1321 133.08 22.429 133.37 21.3636L132.164 21.1463C131.934 21.7642 131.38 22.0795 130.655 22.0795C129.564 22.0795 128.831 21.3722 128.797 20.1108H133.451V19.6591C133.451 17.294 132.036 16.3693 130.553 16.3693C128.729 16.3693 127.527 17.7585 127.527 19.7699C127.527 21.8026 128.712 23.1321 130.642 23.1321ZM128.801 19.1562C128.853 18.2273 129.526 17.4219 130.561 17.4219C131.55 17.4219 132.198 18.1548 132.202 19.1562H128.801ZM136.272 23H137.567L138.897 18.2741H138.995L140.324 23H141.624L143.546 16.4545H142.229L140.955 21.2401H140.891L139.613 16.4545H138.296L137.009 21.2614H136.945L135.662 16.4545H134.346L136.272 23ZM147.603 15.4062H150.321V23H151.634V15.4062H154.357V14.2727H147.603V15.4062ZM156.761 23.1449C157.844 23.1449 158.453 22.5952 158.696 22.1051H158.747V23H159.991V18.6534C159.991 16.7486 158.491 16.3693 157.452 16.3693C156.267 16.3693 155.176 16.8466 154.75 18.0398L155.947 18.3125C156.135 17.848 156.612 17.4006 157.469 17.4006C158.291 17.4006 158.713 17.831 158.713 18.5724V18.6023C158.713 19.0668 158.236 19.0582 157.06 19.1946C155.82 19.3395 154.55 19.6634 154.55 21.1506C154.55 22.4375 155.517 23.1449 156.761 23.1449ZM157.038 22.1222C156.318 22.1222 155.798 21.7983 155.798 21.1676C155.798 20.4858 156.403 20.2429 157.141 20.1449C157.554 20.0895 158.534 19.9787 158.717 19.7955V20.6392C158.717 21.4148 158.099 22.1222 157.038 22.1222ZM161.791 23H163.035V21.9815H163.142C163.372 22.3991 163.841 23.1278 165.034 23.1278C166.619 23.1278 167.77 21.858 167.77 19.7401C167.77 17.6179 166.602 16.3693 165.021 16.3693C163.806 16.3693 163.368 17.1108 163.142 17.5156H163.065V14.2727H161.791V23ZM163.039 19.7273C163.039 18.3594 163.636 17.4517 164.748 17.4517C165.903 17.4517 166.483 18.4276 166.483 19.7273C166.483 21.0398 165.886 22.0412 164.748 22.0412C163.653 22.0412 163.039 21.1037 163.039 19.7273Z" fill="#0C0C0D"/>
<path d="M315.019 17.9912L318.799 14.2105C318.93 14.0758 319.002 13.8954 319 13.7081C318.998 13.5208 318.923 13.3416 318.791 13.2092C318.658 13.0768 318.479 13.0017 318.292 13C318.105 12.9984 317.924 13.0704 317.789 13.2005L314.009 16.9812L310.228 13.2005C310.093 13.0704 309.913 12.9984 309.726 13C309.538 13.0017 309.359 13.0768 309.227 13.2092C309.094 13.3416 309.019 13.5208 309.018 13.7081C309.016 13.8954 309.088 14.0758 309.218 14.2105L312.999 17.9912L309.218 21.7719C309.15 21.8378 309.095 21.9166 309.058 22.0038C309.021 22.0909 309.001 22.1847 309 22.2795C308.999 22.3744 309.017 22.4684 309.053 22.5562C309.089 22.644 309.142 22.7237 309.209 22.7908C309.276 22.8579 309.356 22.9109 309.444 22.9468C309.532 22.9827 309.626 23.0008 309.72 23C309.815 22.9991 309.909 22.9794 309.996 22.942C310.083 22.9046 310.162 22.8502 310.228 22.7819L314.009 19.0012L317.789 22.7819C317.924 22.9121 318.105 22.984 318.292 22.9824C318.479 22.9808 318.658 22.9057 318.791 22.7732C318.923 22.6408 318.998 22.4616 319 22.2744C319.002 22.0871 318.93 21.9067 318.799 21.7719L315.019 17.9912Z" fill="#474747"/>
<path d="M352 16H347V11C347 10.7348 346.895 10.4804 346.707 10.2929C346.52 10.1054 346.265 10 346 10C345.735 10 345.48 10.1054 345.293 10.2929C345.105 10.4804 345 10.7348 345 11V16H340C339.735 16 339.48 16.1054 339.293 16.2929C339.105 16.4804 339 16.7348 339 17C339 17.2652 339.105 17.5196 339.293 17.7071C339.48 17.8946 339.735 18 340 18H345V23C345 23.2652 345.105 23.5196 345.293 23.7071C345.48 23.8946 345.735 24 346 24C346.265 24 346.52 23.8946 346.707 23.7071C346.895 23.5196 347 23.2652 347 23V18H352C352.265 18 352.52 17.8946 352.707 17.7071C352.895 17.5196 353 17.2652 353 17C353 16.7348 352.895 16.4804 352.707 16.2929C352.52 16.1054 352.265 16 352 16Z" fill="#EFEFEF"/>
</g>
<path d="M65.6967 134.364H60.9332L54.0646 138.776V143.364L60.5284 139.235H60.6903V162H65.6967V134.364ZM72.7138 162H91.6598V157.817H79.6229V157.628L84.3864 152.783C89.7571 147.629 91.2415 145.119 91.2415 142.001C91.2415 137.373 87.4766 133.986 81.9169 133.986C76.4382 133.986 72.5518 137.386 72.5518 142.636H77.3153C77.3153 139.815 79.0966 138.048 81.8494 138.048C84.4808 138.048 86.4375 139.653 86.4375 142.258C86.4375 144.565 85.0341 146.212 82.3082 148.978L72.7138 158.384V162ZM99.3786 158.68C100.971 158.68 102.334 157.358 102.347 155.712C102.334 154.092 100.971 152.77 99.3786 152.77C97.7322 152.77 96.3963 154.092 96.4098 155.712C96.3963 157.358 97.7322 158.68 99.3786 158.68ZM99.3786 144.97C100.971 144.97 102.334 143.648 102.347 142.001C102.334 140.382 100.971 139.06 99.3786 139.06C97.7322 139.06 96.3963 140.382 96.4098 142.001C96.3963 143.648 97.7322 144.97 99.3786 144.97ZM117.552 162.526C124.218 162.54 128.199 157.277 128.199 148.209C128.199 139.195 124.191 133.986 117.552 133.986C110.913 133.986 106.919 139.181 106.905 148.209C106.905 157.263 110.886 162.526 117.552 162.526ZM117.552 158.303C114.111 158.303 111.952 154.848 111.965 148.209C111.979 141.624 114.124 138.156 117.552 138.156C120.993 138.156 123.139 141.624 123.152 148.209C123.152 154.848 121.007 158.303 117.552 158.303ZM142.898 162.526C149.564 162.54 153.545 157.277 153.545 148.209C153.545 139.195 149.537 133.986 142.898 133.986C136.259 133.986 132.264 139.181 132.251 148.209C132.251 157.263 136.232 162.526 142.898 162.526ZM142.898 158.303C139.457 158.303 137.298 154.848 137.311 148.209C137.325 141.624 139.47 138.156 142.898 138.156C146.339 138.156 148.484 141.624 148.498 148.209C148.498 154.848 146.352 158.303 142.898 158.303Z" fill="white"/>
<defs>
<filter id="filter0_i" x="14" y="10" width="12" height="12" filterUnits="userSpaceOnUse" color-interpolation-filters="sRGB">
<feFlood flood-opacity="0" result="BackgroundImageFix"/>
<feBlend mode="normal" in="SourceGraphic" in2="BackgroundImageFix" result="shape"/>
<feColorMatrix in="SourceAlpha" type="matrix" values="0 0 0 0 0 0 0 0 0 0 0 0 0 0 0 0 0 0 127 0" result="hardAlpha"/>
<feOffset/>
<feGaussianBlur stdDeviation="3"/>
<feComposite in2="hardAlpha" operator="arithmetic" k2="-1" k3="1"/>
<feColorMatrix type="matrix" values="0 0 0 0 0.92549 0 0 0 0 0.427451 0 0 0 0 0.384314 0 0 0 1 0"/>
<feBlend mode="normal" in2="shape" result="effect1_innerShadow"/>
</filter>
<filter id="filter1_i" x="34" y="10" width="12" height="12" filterUnits="userSpaceOnUse" color-interpolation-filters="sRGB">
<feFlood flood-opacity="0" result="BackgroundImageFix"/>
<feBlend mode="normal" in="SourceGraphic" in2="BackgroundImageFix" result="shape"/>
<feColorMatrix in="SourceAlpha" type="matrix" values="0 0 0 0 0 0 0 0 0 0 0 0 0 0 0 0 0 0 127 0" result="hardAlpha"/>
<feOffset/>
<feGaussianBlur stdDeviation="3"/>
<feComposite in2="hardAlpha" operator="arithmetic" k2="-1" k3="1"/>
<feColorMatrix type="matrix" values="0 0 0 0 0.960784 0 0 0 0 0.768627 0 0 0 0 0.317647 0 0 0 1 0"/>
<feBlend mode="normal" in2="shape" result="effect1_innerShadow"/>
</filter>
<filter id="filter2_i" x="54" y="10" width="12" height="12" filterUnits="userSpaceOnUse" color-interpolation-filters="sRGB">
<feFlood flood-opacity="0" result="BackgroundImageFix"/>
<feBlend mode="normal" in="SourceGraphic" in2="BackgroundImageFix" result="shape"/>
<feColorMatrix in="SourceAlpha" type="matrix" values="0 0 0 0 0 0 0 0 0 0 0 0 0 0 0 0 0 0 127 0" result="hardAlpha"/>
<feOffset/>
<feGaussianBlur stdDeviation="3"/>
<feComposite in2="hardAlpha" operator="arithmetic" k2="-1" k3="1"/>
<feColorMatrix type="matrix" values="0 0 0 0 0.407843 0 0 0 0 0.8 0 0 0 0 0.345098 0 0 0 1 0"/>
<feBlend mode="normal" in2="shape" result="effect1_innerShadow"/>
</filter>
<clipPath id="clip0">
<rect width="16" height="16" fill="white" transform="translate(1028 44)"/>
</clipPath>
<clipPath id="clip1">
<rect width="16" height="16" fill="white" transform="translate(1056 44)"/>
</clipPath>
<clipPath id="clip2">
<rect width="256" height="30" fill="white" transform="translate(106 2)"/>
</clipPath>
</defs>
</svg>
