<svg width="80" height="80" viewBox="0 0 80 80" fill="none" xmlns="http://www.w3.org/2000/svg">
<path fill-rule="evenodd" clip-rule="evenodd" d="M40 68C55.464 68 68 55.464 68 40C68 24.536 55.464 12 40 12C24.536 12 12 24.536 12 40C12 55.464 24.536 68 40 68ZM40 80C62.0914 80 80 62.0914 80 40C80 17.9086 62.0914 0 40 0C17.9086 0 0 17.9086 0 40C0 62.0914 17.9086 80 40 80Z" fill="black"/>
<path d="M48.9928 58.0745C46.4848 55.5665 46.4848 51.5003 48.9928 48.9923C51.5008 46.4843 55.567 46.4843 58.075 48.9923L77.0161 67.9334C79.524 70.4414 79.524 74.5076 77.0161 77.0156C74.5081 79.5235 70.4418 79.5235 67.9339 77.0156L48.9928 58.0745Z" fill="black"/>
<path d="M54.5093 63.5912L63.3783 72.4603C66.871 69.9404 69.9406 66.8707 72.4605 63.378L63.5914 54.509C61.3167 58.1998 58.2001 61.3164 54.5093 63.5912Z" fill="black"/>
</svg>
