<svg width="638" height="289" viewBox="0 0 638 289" fill="none" xmlns="http://www.w3.org/2000/svg">
<mask id="path-1-inside-1" fill="white">
<rect width="638" height="288" rx="4"/>
</mask>
<rect width="638" height="288" rx="4" fill="#454545" fill-opacity="0.5" stroke="#404040" stroke-width="20" mask="url(#path-1-inside-1)"/>
<line y1="-5" x2="631.002" y2="-5" transform="matrix(1 0.000127572 -1.56711e-05 1 6.99854 116.9)" stroke="#404040" stroke-width="10"/>
<line x1="59" y1="288.009" x2="58.5" y2="5.70642" stroke="#404040" stroke-width="10"/>
<line x1="105" y1="288" x2="105" y2="5.70001" stroke="#404040" stroke-width="10"/>
<line x1="153" y1="288" x2="153" y2="5.70001" stroke="#404040" stroke-width="10"/>
<line x1="201" y1="288" x2="201" y2="5.70001" stroke="#404040" stroke-width="10"/>
<line x1="249" y1="288" x2="249" y2="5.70001" stroke="#404040" stroke-width="10"/>
<line x1="297" y1="288" x2="297" y2="5.70001" stroke="#404040" stroke-width="10"/>
<line x1="345" y1="288" x2="345" y2="5.70001" stroke="#404040" stroke-width="10"/>
<line x1="393" y1="288" x2="393" y2="5.70001" stroke="#404040" stroke-width="10"/>
<line x1="441" y1="288" x2="441" y2="5.70001" stroke="#404040" stroke-width="10"/>
<line x1="489" y1="288" x2="489" y2="5.70001" stroke="#404040" stroke-width="10"/>
<line x1="537" y1="288" x2="537" y2="5.70001" stroke="#404040" stroke-width="10"/>
<line x1="585" y1="288" x2="585" y2="5.70001" stroke="#404040" stroke-width="10"/>
<line x1="7" y1="197.575" x2="638" y2="197.575" stroke="#404040" stroke-width="10"/>
</svg>
