<svg width="1057" height="595" viewBox="0 0 1057 595" fill="none" xmlns="http://www.w3.org/2000/svg">
<g clip-path="url(#clip0)">
<rect width="1057" height="595" rx="5" fill="white"/>
<rect x="-107" y="64" width="1180" height="244" fill="url(#paint0_linear)"/>
<path d="M0 5C0 2.23858 2.23858 0 5 0H1052C1054.76 0 1057 2.23858 1057 5V32H0V5Z" fill="black"/>
<circle cx="16" cy="16" r="3.75" fill="#FF5452" stroke="#E04744" stroke-width="0.5"/>
<circle cx="30" cy="16" r="3.75" fill="#FEBB40" stroke="#DE9E32" stroke-width="0.5"/>
<circle cx="44" cy="16" r="3.75" fill="#34C848" stroke="#28AA36" stroke-width="0.5"/>
<rect x="-2" y="32" width="1057" height="32" fill="white"/>
<line y1="63.75" x2="1057" y2="63.75" stroke="black" stroke-opacity="0.06" stroke-width="0.5"/>
<line x1="992.25" y1="41" x2="992.25" y2="55" stroke="black" stroke-opacity="0.13" stroke-width="0.5"/>
<rect x="505" y="116" width="46" height="46" rx="23" fill="black"/>
<path d="M62 9C62 6.23858 64.2386 4 67 4H257C259.761 4 262 6.23858 262 9V32H62V9Z" fill="white"/>
<path d="M78.669 14.7273H77.5824V20.0682H77.5149L73.8146 14.7273H72.799V22H73.8963V16.6662H73.9638L77.6605 22H78.669V14.7273ZM82.5353 22.1101C83.725 22.1101 84.5666 21.5241 84.8081 20.6364L83.8031 20.4553C83.6113 20.9702 83.1497 21.233 82.546 21.233C81.6369 21.233 81.0261 20.6435 80.9977 19.5923H84.8755V19.2159C84.8755 17.245 83.6966 16.4744 82.4608 16.4744C80.9409 16.4744 79.9395 17.6321 79.9395 19.3082C79.9395 21.0021 80.9267 22.1101 82.5353 22.1101ZM81.0012 18.7969C81.0439 18.0227 81.6049 17.3516 82.4679 17.3516C83.2917 17.3516 83.8315 17.9624 83.835 18.7969H81.0012ZM87.2264 22H88.3059L89.4139 18.0618H89.4956L90.6035 22H91.6866L93.2882 16.5455H92.1909L91.1291 20.5334H91.0758L90.0105 16.5455H88.9132L87.8407 20.5511H87.7875L86.7186 16.5455H85.6213L87.2264 22ZM96.6689 15.6719H98.9345V22H100.028V15.6719H102.297V14.7273H96.6689V15.6719ZM104.301 22.1207C105.203 22.1207 105.711 21.6626 105.913 21.2543H105.956V22H106.993V18.3778C106.993 16.7905 105.743 16.4744 104.876 16.4744C103.889 16.4744 102.98 16.8722 102.625 17.8665L103.623 18.0938C103.779 17.7067 104.177 17.3338 104.891 17.3338C105.576 17.3338 105.928 17.6925 105.928 18.3104V18.3352C105.928 18.7223 105.53 18.7152 104.55 18.8288C103.516 18.9496 102.458 19.2195 102.458 20.4588C102.458 21.5312 103.264 22.1207 104.301 22.1207ZM104.532 21.2685C103.932 21.2685 103.499 20.9986 103.499 20.473C103.499 19.9048 104.003 19.7024 104.617 19.6207C104.962 19.5746 105.778 19.4822 105.931 19.3295V20.0327C105.931 20.679 105.416 21.2685 104.532 21.2685ZM108.492 22H109.529V21.1513H109.618C109.81 21.4993 110.2 22.1065 111.195 22.1065C112.516 22.1065 113.475 21.0483 113.475 19.2834C113.475 17.5149 112.502 16.4744 111.184 16.4744C110.172 16.4744 109.806 17.0923 109.618 17.4297H109.554V14.7273H108.492V22ZM109.533 19.2727C109.533 18.1328 110.03 17.3764 110.957 17.3764C111.919 17.3764 112.402 18.1896 112.402 19.2727C112.402 20.3665 111.905 21.201 110.957 21.201C110.044 21.201 109.533 20.4197 109.533 19.2727Z" fill="#313131"/>
<rect x="81" y="37" width="847" height="22" rx="11" fill="#F1F3F4"/>
<path d="M115.868 46.6378H116.926C116.894 45.473 115.864 44.6278 114.387 44.6278C112.927 44.6278 111.809 45.4624 111.809 46.7159C111.809 47.728 112.533 48.321 113.701 48.6371L114.561 48.8714C115.339 49.0774 115.939 49.3331 115.939 49.9794C115.939 50.6896 115.26 51.1584 114.326 51.1584C113.481 51.1584 112.778 50.782 112.714 49.9901H111.613C111.684 51.3075 112.704 52.1207 114.334 52.1207C116.042 52.1207 117.025 51.2223 117.025 49.9901C117.025 48.6797 115.857 48.1719 114.934 47.9446L114.223 47.7599C113.655 47.6143 112.899 47.348 112.902 46.652C112.902 46.0341 113.467 45.576 114.362 45.576C115.197 45.576 115.79 45.9666 115.868 46.6378ZM120.602 52.1101C121.792 52.1101 122.633 51.5241 122.875 50.6364L121.87 50.4553C121.678 50.9702 121.217 51.233 120.613 51.233C119.704 51.233 119.093 50.6435 119.065 49.5923H122.942V49.2159C122.942 47.245 121.763 46.4744 120.528 46.4744C119.008 46.4744 118.006 47.6321 118.006 49.3082C118.006 51.0021 118.994 52.1101 120.602 52.1101ZM119.068 48.7969C119.111 48.0227 119.672 47.3516 120.535 47.3516C121.359 47.3516 121.898 47.9624 121.902 48.7969H119.068ZM125.708 52.1207C126.61 52.1207 127.118 51.6626 127.32 51.2543H127.363V52H128.4V48.3778C128.4 46.7905 127.15 46.4744 126.283 46.4744C125.296 46.4744 124.387 46.8722 124.032 47.8665L125.03 48.0938C125.186 47.7067 125.584 47.3338 126.297 47.3338C126.983 47.3338 127.334 47.6925 127.334 48.3104V48.3352C127.334 48.7223 126.937 48.7152 125.956 48.8288C124.923 48.9496 123.865 49.2195 123.865 50.4588C123.865 51.5312 124.671 52.1207 125.708 52.1207ZM125.939 51.2685C125.339 51.2685 124.905 50.9986 124.905 50.473C124.905 49.9048 125.41 49.7024 126.024 49.6207C126.368 49.5746 127.185 49.4822 127.338 49.3295V50.0327C127.338 50.679 126.823 51.2685 125.939 51.2685ZM129.814 52H130.876V48.669C130.876 47.9553 131.426 47.4403 132.179 47.4403C132.399 47.4403 132.648 47.4794 132.733 47.5043V46.4886C132.626 46.4744 132.417 46.4638 132.282 46.4638C131.643 46.4638 131.096 46.826 130.897 47.4119H130.84V46.5455H129.814V52ZM135.754 52.1101C137.043 52.1101 137.878 51.3359 137.995 50.2741H136.961C136.826 50.8636 136.368 51.2116 135.761 51.2116C134.863 51.2116 134.284 50.4624 134.284 49.2727C134.284 48.1044 134.873 47.3693 135.761 47.3693C136.436 47.3693 136.848 47.7955 136.961 48.3068H137.995C137.881 47.206 136.983 46.4744 135.743 46.4744C134.206 46.4744 133.211 47.6321 133.211 49.2976C133.211 50.9418 134.17 52.1101 135.754 52.1101ZM140.192 48.7614C140.192 47.8913 140.742 47.3942 141.499 47.3942C142.23 47.3942 142.667 47.8594 142.667 48.6584V52H143.729V48.5305C143.729 47.1705 142.983 46.4744 141.861 46.4744C141.012 46.4744 140.501 46.8438 140.245 47.4332H140.178V44.7273H139.13V52H140.192V48.7614ZM150.09 52.1101C151.628 52.1101 152.633 50.9844 152.633 49.2976C152.633 47.6001 151.628 46.4744 150.09 46.4744C148.552 46.4744 147.547 47.6001 147.547 49.2976C147.547 50.9844 148.552 52.1101 150.09 52.1101ZM150.094 51.2188C149.089 51.2188 148.62 50.3416 148.62 49.294C148.62 48.25 149.089 47.3622 150.094 47.3622C151.091 47.3622 151.56 48.25 151.56 49.294C151.56 50.3416 151.091 51.2188 150.094 51.2188ZM153.818 52H154.88V48.669C154.88 47.9553 155.43 47.4403 156.183 47.4403C156.403 47.4403 156.652 47.4794 156.737 47.5043V46.4886C156.63 46.4744 156.421 46.4638 156.286 46.4638C155.647 46.4638 155.1 46.826 154.901 47.4119H154.844V46.5455H153.818V52ZM162.653 52.1101C163.843 52.1101 164.684 51.5241 164.926 50.6364L163.921 50.4553C163.729 50.9702 163.267 51.233 162.664 51.233C161.755 51.233 161.144 50.6435 161.115 49.5923H164.993V49.2159C164.993 47.245 163.814 46.4744 162.578 46.4744C161.059 46.4744 160.057 47.6321 160.057 49.3082C160.057 51.0021 161.044 52.1101 162.653 52.1101ZM161.119 48.7969C161.162 48.0227 161.723 47.3516 162.586 47.3516C163.409 47.3516 163.949 47.9624 163.953 48.7969H161.119ZM167.233 48.7614C167.233 47.8913 167.766 47.3942 168.504 47.3942C169.225 47.3942 169.662 47.8665 169.662 48.6584V52H170.724V48.5305C170.724 47.1811 169.982 46.4744 168.867 46.4744C168.046 46.4744 167.51 46.8544 167.258 47.4332H167.19V46.5455H166.171V52H167.233V48.7614ZM174.694 46.5455H173.575V45.2386H172.514V46.5455H171.715V47.3977H172.514V50.6186C172.51 51.6094 173.266 52.0888 174.105 52.071C174.442 52.0675 174.669 52.0036 174.793 51.9574L174.602 51.0803C174.531 51.0945 174.399 51.1264 174.229 51.1264C173.884 51.1264 173.575 51.0128 173.575 50.3984V47.3977H174.694V46.5455ZM178.161 52.1101C179.35 52.1101 180.192 51.5241 180.434 50.6364L179.429 50.4553C179.237 50.9702 178.775 51.233 178.171 51.233C177.262 51.233 176.652 50.6435 176.623 49.5923H180.501V49.2159C180.501 47.245 179.322 46.4744 178.086 46.4744C176.566 46.4744 175.565 47.6321 175.565 49.3082C175.565 51.0021 176.552 52.1101 178.161 52.1101ZM176.627 48.7969C176.669 48.0227 177.23 47.3516 178.093 47.3516C178.917 47.3516 179.457 47.9624 179.461 48.7969H176.627ZM181.679 52H182.741V48.669C182.741 47.9553 183.291 47.4403 184.044 47.4403C184.264 47.4403 184.513 47.4794 184.598 47.5043V46.4886C184.492 46.4744 184.282 46.4638 184.147 46.4638C183.508 46.4638 182.961 46.826 182.762 47.4119H182.705V46.5455H181.679V52ZM189.346 52H190.426L191.534 48.0618H191.615L192.723 52H193.806L195.408 46.5455H194.311L193.249 50.5334H193.195L192.13 46.5455H191.033L189.96 50.5511H189.907L188.838 46.5455H187.741L189.346 52ZM198.6 52.1101C199.79 52.1101 200.632 51.5241 200.873 50.6364L199.868 50.4553C199.676 50.9702 199.215 51.233 198.611 51.233C197.702 51.233 197.091 50.6435 197.063 49.5923H200.94V49.2159C200.94 47.245 199.761 46.4744 198.526 46.4744C197.006 46.4744 196.004 47.6321 196.004 49.3082C196.004 51.0021 196.992 52.1101 198.6 52.1101ZM197.066 48.7969C197.109 48.0227 197.67 47.3516 198.533 47.3516C199.357 47.3516 199.896 47.9624 199.9 48.7969H197.066ZM202.204 52H203.241V51.1513H203.33C203.521 51.4993 203.912 52.1065 204.906 52.1065C206.227 52.1065 207.186 51.0483 207.186 49.2834C207.186 47.5149 206.213 46.4744 204.896 46.4744C203.883 46.4744 203.518 47.0923 203.33 47.4297H203.266V44.7273H202.204V52ZM203.244 49.2727C203.244 48.1328 203.741 47.3764 204.668 47.3764C205.631 47.3764 206.114 48.1896 206.114 49.2727C206.114 50.3665 205.616 51.201 204.668 51.201C203.756 51.201 203.244 50.4197 203.244 49.2727ZM212.466 47.8771C212.246 47.0284 211.581 46.4744 210.402 46.4744C209.17 46.4744 208.297 47.1243 208.297 48.0902C208.297 48.8643 208.765 49.3793 209.788 49.6065L210.711 49.8089C211.237 49.9261 211.482 50.1605 211.482 50.5014C211.482 50.924 211.031 51.2543 210.335 51.2543C209.699 51.2543 209.291 50.9808 209.163 50.4446L208.137 50.6009C208.314 51.5668 209.117 52.1101 210.342 52.1101C211.66 52.1101 212.572 51.4105 212.572 50.4233C212.572 49.6527 212.082 49.1768 211.081 48.946L210.214 48.7472C209.614 48.6051 209.355 48.4027 209.358 48.0334C209.355 47.6143 209.809 47.3161 210.413 47.3161C211.074 47.3161 211.379 47.6818 211.503 48.0476L212.466 47.8771ZM213.74 52H214.801V46.5455H213.74V52ZM214.276 45.7038C214.642 45.7038 214.947 45.4197 214.947 45.0717C214.947 44.7237 214.642 44.4361 214.276 44.4361C213.907 44.4361 213.605 44.7237 213.605 45.0717C213.605 45.4197 213.907 45.7038 214.276 45.7038ZM218.776 46.5455H217.657V45.2386H216.596V46.5455H215.797V47.3977H216.596V50.6186C216.592 51.6094 217.348 52.0888 218.187 52.071C218.524 52.0675 218.751 52.0036 218.875 51.9574L218.684 51.0803C218.613 51.0945 218.481 51.1264 218.311 51.1264C217.966 51.1264 217.657 51.0128 217.657 50.3984V47.3977H218.776V46.5455ZM222.243 52.1101C223.432 52.1101 224.274 51.5241 224.516 50.6364L223.511 50.4553C223.319 50.9702 222.857 51.233 222.254 51.233C221.344 51.233 220.734 50.6435 220.705 49.5923H224.583V49.2159C224.583 47.245 223.404 46.4744 222.168 46.4744C220.648 46.4744 219.647 47.6321 219.647 49.3082C219.647 51.0021 220.634 52.1101 222.243 52.1101ZM220.709 48.7969C220.751 48.0227 221.312 47.3516 222.175 47.3516C222.999 47.3516 223.539 47.9624 223.543 48.7969H220.709ZM229.995 52.1207C230.897 52.1207 231.405 51.6626 231.607 51.2543H231.65V52H232.687V48.3778C232.687 46.7905 231.437 46.4744 230.57 46.4744C229.583 46.4744 228.674 46.8722 228.319 47.8665L229.317 48.0938C229.473 47.7067 229.871 47.3338 230.584 47.3338C231.27 47.3338 231.621 47.6925 231.621 48.3104V48.3352C231.621 48.7223 231.224 48.7152 230.244 48.8288C229.21 48.9496 228.152 49.2195 228.152 50.4588C228.152 51.5312 228.958 52.1207 229.995 52.1207ZM230.226 51.2685C229.626 51.2685 229.192 50.9986 229.192 50.473C229.192 49.9048 229.697 49.7024 230.311 49.6207C230.655 49.5746 231.472 49.4822 231.625 49.3295V50.0327C231.625 50.679 231.11 51.2685 230.226 51.2685ZM236.143 52.1065C237.137 52.1065 237.528 51.4993 237.72 51.1513H237.808V52H238.845V44.7273H237.784V47.4297H237.72C237.528 47.0923 237.166 46.4744 236.15 46.4744C234.833 46.4744 233.863 47.5149 233.863 49.2834C233.863 51.0483 234.818 52.1065 236.143 52.1065ZM236.377 51.201C235.429 51.201 234.936 50.3665 234.936 49.2727C234.936 48.1896 235.418 47.3764 236.377 47.3764C237.304 47.3764 237.801 48.1328 237.801 49.2727C237.801 50.4197 237.293 51.201 236.377 51.201ZM242.403 52.1065C243.397 52.1065 243.788 51.4993 243.979 51.1513H244.068V52H245.105V44.7273H244.043V47.4297H243.979C243.788 47.0923 243.425 46.4744 242.41 46.4744C241.092 46.4744 240.123 47.5149 240.123 49.2834C240.123 51.0483 241.078 52.1065 242.403 52.1065ZM242.637 51.201C241.689 51.201 241.195 50.3665 241.195 49.2727C241.195 48.1896 241.678 47.3764 242.637 47.3764C243.564 47.3764 244.061 48.1328 244.061 49.2727C244.061 50.4197 243.553 51.201 242.637 51.201ZM246.621 52H247.682V48.669C247.682 47.9553 248.233 47.4403 248.986 47.4403C249.206 47.4403 249.454 47.4794 249.54 47.5043V46.4886C249.433 46.4744 249.223 46.4638 249.089 46.4638C248.449 46.4638 247.902 46.826 247.704 47.4119H247.647V46.5455H246.621V52ZM252.614 52.1101C253.804 52.1101 254.645 51.5241 254.887 50.6364L253.882 50.4553C253.69 50.9702 253.228 51.233 252.625 51.233C251.716 51.233 251.105 50.6435 251.076 49.5923H254.954V49.2159C254.954 47.245 253.775 46.4744 252.539 46.4744C251.019 46.4744 250.018 47.6321 250.018 49.3082C250.018 51.0021 251.005 52.1101 252.614 52.1101ZM251.08 48.7969C251.122 48.0227 251.684 47.3516 252.546 47.3516C253.37 47.3516 253.91 47.9624 253.914 48.7969H251.08ZM260.22 47.8771C259.999 47.0284 259.335 46.4744 258.156 46.4744C256.924 46.4744 256.051 47.1243 256.051 48.0902C256.051 48.8643 256.519 49.3793 257.542 49.6065L258.465 49.8089C258.991 49.9261 259.236 50.1605 259.236 50.5014C259.236 50.924 258.785 51.2543 258.089 51.2543C257.453 51.2543 257.045 50.9808 256.917 50.4446L255.891 50.6009C256.068 51.5668 256.871 52.1101 258.096 52.1101C259.413 52.1101 260.326 51.4105 260.326 50.4233C260.326 49.6527 259.836 49.1768 258.835 48.946L257.968 48.7472C257.368 48.6051 257.109 48.4027 257.112 48.0334C257.109 47.6143 257.563 47.3161 258.167 47.3161C258.828 47.3161 259.133 47.6818 259.257 48.0476L260.22 47.8771ZM265.581 47.8771C265.361 47.0284 264.697 46.4744 263.518 46.4744C262.285 46.4744 261.412 47.1243 261.412 48.0902C261.412 48.8643 261.881 49.3793 262.903 49.6065L263.827 49.8089C264.352 49.9261 264.597 50.1605 264.597 50.5014C264.597 50.924 264.146 51.2543 263.45 51.2543C262.815 51.2543 262.406 50.9808 262.278 50.4446L261.252 50.6009C261.43 51.5668 262.232 52.1101 263.457 52.1101C264.775 52.1101 265.687 51.4105 265.687 50.4233C265.687 49.6527 265.197 49.1768 264.196 48.946L263.33 48.7472C262.729 48.6051 262.47 48.4027 262.474 48.0334C262.47 47.6143 262.925 47.3161 263.528 47.3161C264.189 47.3161 264.494 47.6818 264.619 48.0476L265.581 47.8771Z" fill="black" fill-opacity="0.5"/>
<g clip-path="url(#clip1)">
<path d="M96.1377 50.9167C98.0486 50.9167 99.5977 49.4243 99.5977 47.5833C99.5977 45.7424 98.0486 44.25 96.1377 44.25C94.2268 44.25 92.6777 45.7424 92.6777 47.5833C92.6777 49.4243 94.2268 50.9167 96.1377 50.9167Z" stroke="#797A7A" stroke-width="1.25" stroke-linecap="round" stroke-linejoin="round"/>
<path d="M100.462 51.75L98.5811 49.9375" stroke="#797A7A" stroke-width="1.25" stroke-linecap="round" stroke-linejoin="round"/>
</g>
<rect x="328" y="194" width="400" height="30" rx="15" fill="#F1F3F4"/>
<path d="M366.766 207.638H367.824C367.792 206.473 366.762 205.628 365.285 205.628C363.825 205.628 362.707 206.462 362.707 207.716C362.707 208.728 363.431 209.321 364.599 209.637L365.459 209.871C366.237 210.077 366.837 210.333 366.837 210.979C366.837 211.69 366.158 212.158 365.224 212.158C364.379 212.158 363.676 211.782 363.612 210.99H362.511C362.582 212.308 363.602 213.121 365.232 213.121C366.94 213.121 367.923 212.222 367.923 210.99C367.923 209.68 366.755 209.172 365.832 208.945L365.121 208.76C364.553 208.614 363.797 208.348 363.8 207.652C363.8 207.034 364.365 206.576 365.26 206.576C366.094 206.576 366.688 206.967 366.766 207.638ZM371.5 213.11C372.69 213.11 373.531 212.524 373.773 211.636L372.768 211.455C372.576 211.97 372.115 212.233 371.511 212.233C370.602 212.233 369.991 211.643 369.963 210.592H373.84V210.216C373.84 208.245 372.661 207.474 371.426 207.474C369.906 207.474 368.904 208.632 368.904 210.308C368.904 212.002 369.892 213.11 371.5 213.11ZM369.966 209.797C370.009 209.023 370.57 208.352 371.433 208.352C372.257 208.352 372.796 208.962 372.8 209.797H369.966ZM376.606 213.121C377.508 213.121 378.016 212.663 378.218 212.254H378.261V213H379.298V209.378C379.298 207.79 378.048 207.474 377.181 207.474C376.194 207.474 375.285 207.872 374.93 208.866L375.928 209.094C376.084 208.707 376.482 208.334 377.195 208.334C377.881 208.334 378.232 208.692 378.232 209.31V209.335C378.232 209.722 377.835 209.715 376.854 209.829C375.821 209.95 374.763 210.219 374.763 211.459C374.763 212.531 375.569 213.121 376.606 213.121ZM376.837 212.268C376.237 212.268 375.803 211.999 375.803 211.473C375.803 210.905 376.308 210.702 376.922 210.621C377.266 210.575 378.083 210.482 378.236 210.33V211.033C378.236 211.679 377.721 212.268 376.837 212.268ZM380.712 213H381.774V209.669C381.774 208.955 382.324 208.44 383.077 208.44C383.297 208.44 383.546 208.479 383.631 208.504V207.489C383.524 207.474 383.315 207.464 383.18 207.464C382.541 207.464 381.994 207.826 381.795 208.412H381.738V207.545H380.712V213ZM386.652 213.11C387.941 213.11 388.776 212.336 388.893 211.274H387.859C387.724 211.864 387.266 212.212 386.659 212.212C385.761 212.212 385.182 211.462 385.182 210.273C385.182 209.104 385.771 208.369 386.659 208.369C387.334 208.369 387.746 208.795 387.859 209.307H388.893C388.779 208.206 387.881 207.474 386.641 207.474C385.104 207.474 384.109 208.632 384.109 210.298C384.109 211.942 385.068 213.11 386.652 213.11ZM391.09 209.761C391.09 208.891 391.64 208.394 392.397 208.394C393.128 208.394 393.565 208.859 393.565 209.658V213H394.627V209.531C394.627 208.17 393.881 207.474 392.759 207.474C391.91 207.474 391.399 207.844 391.143 208.433H391.076V205.727H390.028V213H391.09V209.761ZM400.988 213.11C402.526 213.11 403.531 211.984 403.531 210.298C403.531 208.6 402.526 207.474 400.988 207.474C399.45 207.474 398.445 208.6 398.445 210.298C398.445 211.984 399.45 213.11 400.988 213.11ZM400.991 212.219C399.987 212.219 399.518 211.342 399.518 210.294C399.518 209.25 399.987 208.362 400.991 208.362C401.989 208.362 402.458 209.25 402.458 210.294C402.458 211.342 401.989 212.219 400.991 212.219ZM404.716 213H405.778V209.669C405.778 208.955 406.328 208.44 407.081 208.44C407.301 208.44 407.55 208.479 407.635 208.504V207.489C407.528 207.474 407.319 207.464 407.184 207.464C406.545 207.464 405.998 207.826 405.799 208.412H405.742V207.545H404.716V213ZM413.551 213.11C414.741 213.11 415.582 212.524 415.824 211.636L414.819 211.455C414.627 211.97 414.165 212.233 413.562 212.233C412.653 212.233 412.042 211.643 412.013 210.592H415.891V210.216C415.891 208.245 414.712 207.474 413.476 207.474C411.956 207.474 410.955 208.632 410.955 210.308C410.955 212.002 411.942 213.11 413.551 213.11ZM412.017 209.797C412.059 209.023 412.621 208.352 413.483 208.352C414.307 208.352 414.847 208.962 414.851 209.797H412.017ZM418.131 209.761C418.131 208.891 418.664 208.394 419.402 208.394C420.123 208.394 420.56 208.866 420.56 209.658V213H421.622V209.531C421.622 208.181 420.88 207.474 419.765 207.474C418.944 207.474 418.408 207.854 418.156 208.433H418.088V207.545H417.069V213H418.131V209.761ZM425.592 207.545H424.473V206.239H423.412V207.545H422.613V208.398H423.412V211.619C423.408 212.609 424.164 213.089 425.002 213.071C425.34 213.067 425.567 213.004 425.691 212.957L425.5 212.08C425.429 212.094 425.297 212.126 425.127 212.126C424.782 212.126 424.473 212.013 424.473 211.398V208.398H425.592V207.545ZM429.059 213.11C430.248 213.11 431.09 212.524 431.331 211.636L430.327 211.455C430.135 211.97 429.673 212.233 429.069 212.233C428.16 212.233 427.55 211.643 427.521 210.592H431.399V210.216C431.399 208.245 430.22 207.474 428.984 207.474C427.464 207.474 426.463 208.632 426.463 210.308C426.463 212.002 427.45 213.11 429.059 213.11ZM427.525 209.797C427.567 209.023 428.128 208.352 428.991 208.352C429.815 208.352 430.355 208.962 430.358 209.797H427.525ZM432.577 213H433.639V209.669C433.639 208.955 434.189 208.44 434.942 208.44C435.162 208.44 435.411 208.479 435.496 208.504V207.489C435.39 207.474 435.18 207.464 435.045 207.464C434.406 207.464 433.859 207.826 433.66 208.412H433.603V207.545H432.577V213ZM440.244 213H441.324L442.431 209.062H442.513L443.621 213H444.704L446.306 207.545H445.208L444.147 211.533H444.093L443.028 207.545H441.931L440.858 211.551H440.805L439.736 207.545H438.639L440.244 213ZM449.498 213.11C450.688 213.11 451.529 212.524 451.771 211.636L450.766 211.455C450.574 211.97 450.113 212.233 449.509 212.233C448.6 212.233 447.989 211.643 447.961 210.592H451.838V210.216C451.838 208.245 450.659 207.474 449.424 207.474C447.904 207.474 446.902 208.632 446.902 210.308C446.902 212.002 447.89 213.11 449.498 213.11ZM447.964 209.797C448.007 209.023 448.568 208.352 449.431 208.352C450.255 208.352 450.794 208.962 450.798 209.797H447.964ZM453.102 213H454.139V212.151H454.227C454.419 212.499 454.81 213.107 455.804 213.107C457.125 213.107 458.084 212.048 458.084 210.283C458.084 208.515 457.111 207.474 455.794 207.474C454.781 207.474 454.416 208.092 454.227 208.43H454.164V205.727H453.102V213ZM454.142 210.273C454.142 209.133 454.639 208.376 455.566 208.376C456.529 208.376 457.012 209.19 457.012 210.273C457.012 211.366 456.514 212.201 455.566 212.201C454.654 212.201 454.142 211.42 454.142 210.273ZM463.364 208.877C463.143 208.028 462.479 207.474 461.3 207.474C460.068 207.474 459.195 208.124 459.195 209.09C459.195 209.864 459.663 210.379 460.686 210.607L461.609 210.809C462.135 210.926 462.38 211.161 462.38 211.501C462.38 211.924 461.929 212.254 461.233 212.254C460.597 212.254 460.189 211.981 460.061 211.445L459.035 211.601C459.212 212.567 460.015 213.11 461.24 213.11C462.558 213.11 463.47 212.411 463.47 211.423C463.47 210.653 462.98 210.177 461.979 209.946L461.112 209.747C460.512 209.605 460.253 209.403 460.256 209.033C460.253 208.614 460.707 208.316 461.311 208.316C461.972 208.316 462.277 208.682 462.401 209.048L463.364 208.877ZM464.638 213H465.699V207.545H464.638V213ZM465.174 206.704C465.54 206.704 465.845 206.42 465.845 206.072C465.845 205.724 465.54 205.436 465.174 205.436C464.805 205.436 464.503 205.724 464.503 206.072C464.503 206.42 464.805 206.704 465.174 206.704ZM469.674 207.545H468.555V206.239H467.494V207.545H466.695V208.398H467.494V211.619C467.49 212.609 468.246 213.089 469.085 213.071C469.422 213.067 469.649 213.004 469.773 212.957L469.582 212.08C469.511 212.094 469.379 212.126 469.209 212.126C468.864 212.126 468.555 212.013 468.555 211.398V208.398H469.674V207.545ZM473.141 213.11C474.33 213.11 475.172 212.524 475.414 211.636L474.409 211.455C474.217 211.97 473.755 212.233 473.151 212.233C472.242 212.233 471.632 211.643 471.603 210.592H475.481V210.216C475.481 208.245 474.302 207.474 473.066 207.474C471.546 207.474 470.545 208.632 470.545 210.308C470.545 212.002 471.532 213.11 473.141 213.11ZM471.607 209.797C471.649 209.023 472.21 208.352 473.073 208.352C473.897 208.352 474.437 208.962 474.441 209.797H471.607ZM480.893 213.121C481.795 213.121 482.303 212.663 482.505 212.254H482.548V213H483.585V209.378C483.585 207.79 482.335 207.474 481.468 207.474C480.481 207.474 479.572 207.872 479.217 208.866L480.215 209.094C480.371 208.707 480.769 208.334 481.482 208.334C482.168 208.334 482.519 208.692 482.519 209.31V209.335C482.519 209.722 482.122 209.715 481.142 209.829C480.108 209.95 479.05 210.219 479.05 211.459C479.05 212.531 479.856 213.121 480.893 213.121ZM481.124 212.268C480.524 212.268 480.09 211.999 480.09 211.473C480.09 210.905 480.595 210.702 481.209 210.621C481.553 210.575 482.37 210.482 482.523 210.33V211.033C482.523 211.679 482.008 212.268 481.124 212.268ZM487.041 213.107C488.035 213.107 488.426 212.499 488.618 212.151H488.706V213H489.743V205.727H488.681V208.43H488.618C488.426 208.092 488.064 207.474 487.048 207.474C485.73 207.474 484.761 208.515 484.761 210.283C484.761 212.048 485.716 213.107 487.041 213.107ZM487.275 212.201C486.327 212.201 485.833 211.366 485.833 210.273C485.833 209.19 486.316 208.376 487.275 208.376C488.202 208.376 488.699 209.133 488.699 210.273C488.699 211.42 488.191 212.201 487.275 212.201ZM493.301 213.107C494.295 213.107 494.686 212.499 494.877 212.151H494.966V213H496.003V205.727H494.941V208.43H494.877C494.686 208.092 494.323 207.474 493.308 207.474C491.99 207.474 491.021 208.515 491.021 210.283C491.021 212.048 491.976 213.107 493.301 213.107ZM493.535 212.201C492.587 212.201 492.093 211.366 492.093 210.273C492.093 209.19 492.576 208.376 493.535 208.376C494.462 208.376 494.959 209.133 494.959 210.273C494.959 211.42 494.451 212.201 493.535 212.201ZM497.518 213H498.58V209.669C498.58 208.955 499.131 208.44 499.884 208.44C500.104 208.44 500.352 208.479 500.438 208.504V207.489C500.331 207.474 500.121 207.464 499.987 207.464C499.347 207.464 498.8 207.826 498.602 208.412H498.545V207.545H497.518V213ZM503.512 213.11C504.702 213.11 505.543 212.524 505.785 211.636L504.78 211.455C504.588 211.97 504.126 212.233 503.523 212.233C502.613 212.233 502.003 211.643 501.974 210.592H505.852V210.216C505.852 208.245 504.673 207.474 503.437 207.474C501.917 207.474 500.916 208.632 500.916 210.308C500.916 212.002 501.903 213.11 503.512 213.11ZM501.978 209.797C502.02 209.023 502.581 208.352 503.444 208.352C504.268 208.352 504.808 208.962 504.812 209.797H501.978ZM511.118 208.877C510.897 208.028 510.233 207.474 509.054 207.474C507.822 207.474 506.949 208.124 506.949 209.09C506.949 209.864 507.417 210.379 508.44 210.607L509.363 210.809C509.889 210.926 510.134 211.161 510.134 211.501C510.134 211.924 509.683 212.254 508.987 212.254C508.351 212.254 507.943 211.981 507.815 211.445L506.789 211.601C506.966 212.567 507.769 213.11 508.994 213.11C510.311 213.11 511.224 212.411 511.224 211.423C511.224 210.653 510.734 210.177 509.733 209.946L508.866 209.747C508.266 209.605 508.007 209.403 508.01 209.033C508.007 208.614 508.461 208.316 509.065 208.316C509.725 208.316 510.031 208.682 510.155 209.048L511.118 208.877ZM516.479 208.877C516.259 208.028 515.595 207.474 514.416 207.474C513.183 207.474 512.31 208.124 512.31 209.09C512.31 209.864 512.779 210.379 513.801 210.607L514.725 210.809C515.25 210.926 515.495 211.161 515.495 211.501C515.495 211.924 515.044 212.254 514.348 212.254C513.713 212.254 513.304 211.981 513.176 211.445L512.15 211.601C512.328 212.567 513.13 213.11 514.355 213.11C515.673 213.11 516.585 212.411 516.585 211.423C516.585 210.653 516.095 210.177 515.094 209.946L514.227 209.747C513.627 209.605 513.368 209.403 513.372 209.033C513.368 208.614 513.823 208.316 514.426 208.316C515.087 208.316 515.392 208.682 515.517 209.048L516.479 208.877Z" fill="black" fill-opacity="0.5"/>
<path d="M346.5 212.5C348.709 212.5 350.5 210.709 350.5 208.5C350.5 206.291 348.709 204.5 346.5 204.5C344.291 204.5 342.5 206.291 342.5 208.5C342.5 210.709 344.291 212.5 346.5 212.5Z" stroke="#797A7A" stroke-width="1.25" stroke-linecap="round" stroke-linejoin="round"/>
<path d="M351.5 213.5L349.325 211.325" stroke="#797A7A" stroke-width="1.25" stroke-linecap="round" stroke-linejoin="round"/>
<path d="M20.0832 48H11.9165" stroke="black" stroke-linecap="round" stroke-linejoin="round"/>
<path d="M15.9998 52.0833L11.9165 48L15.9998 43.9166" stroke="black" stroke-linecap="round" stroke-linejoin="round"/>
<path d="M34.9168 48H43.0835" stroke="black" stroke-linecap="round" stroke-linejoin="round"/>
<path d="M39.0002 43.9167L43.0835 48L39.0002 52.0834" stroke="black" stroke-linecap="round" stroke-linejoin="round"/>
<path d="M68.5 44V47H65.5" stroke="black" stroke-linecap="round" stroke-linejoin="round"/>
<path d="M67.2449 49.5C66.9199 50.42 66.3047 51.2094 65.492 51.7493C64.6793 52.2892 63.7132 52.5503 62.7392 52.4933C61.7651 52.4363 60.836 52.0643 60.0918 51.4333C59.3476 50.8024 58.8287 49.9466 58.6131 48.995C58.3976 48.0435 58.4972 47.0476 58.8969 46.1575C59.2966 45.2675 59.9747 44.5314 60.8291 44.0603C61.6835 43.5892 62.6679 43.4086 63.6339 43.5456C64.5999 43.6826 65.4952 44.1299 66.1849 44.82L68.4999 47" stroke="black" stroke-linecap="round" stroke-linejoin="round"/>
<path d="M279 13.9166V22.0833" stroke="white" stroke-width="1.25" stroke-linecap="round" stroke-linejoin="round"/>
<path d="M274.917 18H283.083" stroke="white" stroke-width="1.25" stroke-linecap="round" stroke-linejoin="round"/>
<path d="M250.625 15.3749L245.375 20.6249" stroke="black" stroke-linecap="round" stroke-linejoin="round"/>
<path d="M245.375 15.3749L250.625 20.6249" stroke="black" stroke-linecap="round" stroke-linejoin="round"/>
<path d="M1041 48.5833C1041.32 48.5833 1041.58 48.3221 1041.58 48C1041.58 47.6778 1041.32 47.4166 1041 47.4166C1040.68 47.4166 1040.42 47.6778 1040.42 48C1040.42 48.3221 1040.68 48.5833 1041 48.5833Z" fill="black" stroke="black" stroke-linecap="round" stroke-linejoin="round"/>
<path d="M1045.08 48.5833C1045.41 48.5833 1045.67 48.3221 1045.67 48C1045.67 47.6778 1045.41 47.4166 1045.08 47.4166C1044.76 47.4166 1044.5 47.6778 1044.5 48C1044.5 48.3221 1044.76 48.5833 1045.08 48.5833Z" fill="black" stroke="black" stroke-linecap="round" stroke-linejoin="round"/>
<path d="M1036.92 48.5833C1037.24 48.5833 1037.5 48.3221 1037.5 48C1037.5 47.6778 1037.24 47.4166 1036.92 47.4166C1036.59 47.4166 1036.33 47.6778 1036.33 48C1036.33 48.3221 1036.59 48.5833 1036.92 48.5833Z" fill="black" stroke="black" stroke-linecap="round" stroke-linejoin="round"/>
<path d="M968.333 48V52.6667C968.333 52.9761 968.456 53.2728 968.675 53.4916C968.894 53.7104 969.191 53.8333 969.5 53.8333H976.5C976.81 53.8333 977.106 53.7104 977.325 53.4916C977.544 53.2728 977.667 52.9761 977.667 52.6667V48" stroke="black" stroke-width="1.125" stroke-linecap="round" stroke-linejoin="round"/>
<path d="M975.334 44.5L973 42.1666L970.667 44.5" stroke="black" stroke-width="1.125" stroke-linecap="round" stroke-linejoin="round"/>
<path d="M973 42.1666V49.75" stroke="black" stroke-width="1.125" stroke-linecap="round" stroke-linejoin="round"/>
<circle cx="1013" cy="48" r="9" fill="#FFD75C"/>
<path d="M1016.33 51.75V50.9167C1016.33 50.4746 1016.16 50.0507 1015.85 49.7382C1015.53 49.4256 1015.11 49.25 1014.67 49.25H1011.33C1010.89 49.25 1010.47 49.4256 1010.15 49.7382C1009.84 50.0507 1009.67 50.4746 1009.67 50.9167V51.75" stroke="#6A5000" stroke-linecap="round" stroke-linejoin="round"/>
<path d="M1013 47.5833C1013.92 47.5833 1014.67 46.8371 1014.67 45.9167C1014.67 44.9962 1013.92 44.25 1013 44.25C1012.08 44.25 1011.33 44.9962 1011.33 45.9167C1011.33 46.8371 1012.08 47.5833 1013 47.5833Z" stroke="#6A5000" stroke-linecap="round" stroke-linejoin="round"/>
<path d="M947 53.8333C947 53.8333 951.667 51.5 951.667 48V43.9166L947 42.1666L942.333 43.9166V48C942.333 51.5 947 53.8333 947 53.8333Z" stroke="black" stroke-width="1.125" stroke-linecap="round" stroke-linejoin="round"/>
<rect x="396" y="314" width="72" height="72" rx="6" fill="#F1F3F4"/>
<circle cx="432" cy="350" r="17" fill="#C2C2C2"/>
<rect x="410" y="394" width="45" height="8" rx="4" fill="#C2C2C2"/>
<rect x="502" y="394" width="53" height="8" rx="4" fill="#C2C2C2"/>
<rect x="492" y="314" width="72" height="72" rx="6" fill="#F1F3F4"/>
<path d="M527.134 333.5C527.519 332.833 528.481 332.833 528.866 333.5L547.053 365C547.437 365.667 546.956 366.5 546.187 366.5H509.813C509.044 366.5 508.563 365.667 508.947 365L527.134 333.5Z" fill="#C4C4C4"/>
<rect x="609" y="394" width="34" height="8" rx="4" fill="#C2C2C2"/>
<rect x="588" y="314" width="72" height="72" rx="6" fill="#F1F3F4"/>
<rect x="607" y="333" width="34" height="34" rx="2" fill="#C4C4C4"/>
<rect x="492" y="426" width="72" height="72" rx="6" fill="#F1F3F4"/>
<rect x="503" y="506" width="50" height="8" rx="4" fill="#C2C2C2"/>
<rect x="588" y="426" width="72" height="72" rx="6" fill="#F1F3F4"/>
<circle cx="624" cy="462" r="17" fill="#C2C2C2"/>
<rect x="596" y="506" width="56" height="8" rx="4" fill="#C2C2C2"/>
<rect x="411" y="506" width="42" height="8" rx="4" fill="#C2C2C2"/>
<rect x="396" y="426" width="72" height="72" rx="6" fill="#F1F3F4"/>
<path d="M431.134 445.5C431.519 444.833 432.481 444.833 432.866 445.5L451.053 477C451.437 477.667 450.956 478.5 450.187 478.5H413.813C413.044 478.5 412.563 477.667 412.947 477L431.134 445.5Z" fill="#C4C4C4"/>
<rect x="511" y="445" width="34" height="34" rx="2" fill="#C4C4C4"/>
</g>
<defs>
<linearGradient id="paint0_linear" x1="483" y1="64" x2="483" y2="278.5" gradientUnits="userSpaceOnUse">
<stop stop-color="white" stop-opacity="0"/>
<stop offset="1" stop-color="white"/>
</linearGradient>
<clipPath id="clip0">
<rect width="1057" height="595" fill="white"/>
</clipPath>
<clipPath id="clip1">
<rect width="10.3799" height="10" fill="white" transform="translate(91.3804 43)"/>
</clipPath>
</defs>
</svg>
