<svg width="456" height="437" viewBox="0 0 456 437" fill="none" xmlns="http://www.w3.org/2000/svg">
<path d="M456 0H0V437H456V0Z" fill="white"/>
<path d="M456 99.716C456 105.089 451.644 109.444 446.272 109.444H9.728C4.35537 109.444 0 105.089 0 99.716V0H456V99.716Z" fill="white"/>
<path d="M456 99.716C456 105.089 451.644 109.444 446.272 109.444H9.728C4.35537 109.444 0 105.089 0 99.716V0H456V99.716Z" fill="white"/>
<path d="M431.68 55.9383H24.3198C18.9472 55.9383 14.5918 60.2938 14.5918 65.6667V85.1235C14.5918 90.4963 18.9472 94.8519 24.3198 94.8519H431.68C437.052 94.8519 441.408 90.4963 441.408 85.1235V65.6667C441.408 60.2938 437.052 55.9383 431.68 55.9383Z" fill="#F1F3F4"/>
<path d="M110.245 71.6943H112.175C112.117 69.5696 110.238 68.028 107.544 68.028C104.881 68.028 102.841 69.5501 102.841 71.8368C102.841 73.6829 104.162 74.7645 106.293 75.3411L107.861 75.7686C109.28 76.1443 110.374 76.6106 110.374 77.7896C110.374 79.085 109.137 79.9402 107.433 79.9402C105.892 79.9402 104.609 79.2535 104.493 77.809H102.485C102.614 80.2122 104.473 81.6955 107.446 81.6955C110.562 81.6955 112.356 80.0568 112.356 77.809C112.356 75.4188 110.225 74.4925 108.541 74.078L107.246 73.7411C106.209 73.4755 104.83 72.9897 104.836 71.7202C104.836 70.593 105.866 69.7575 107.498 69.7575C109.02 69.7575 110.102 70.4699 110.245 71.6943ZM118.589 81.6761C120.759 81.6761 122.294 80.6073 122.734 78.9879L120.901 78.6576C120.551 79.5969 119.709 80.0761 118.608 80.0761C116.95 80.0761 115.836 79.0009 115.784 77.0835H122.857V76.397C122.857 72.8018 120.707 71.3962 118.453 71.3962C115.68 71.3962 113.854 73.508 113.854 76.5654C113.854 79.6551 115.654 81.6761 118.589 81.6761ZM115.79 75.6326C115.868 74.2205 116.892 72.9962 118.466 72.9962C119.968 72.9962 120.953 74.1103 120.959 75.6326H115.79ZM127.609 81.6955C129.254 81.6955 130.181 80.86 130.55 80.115H130.627V81.4753H132.519V74.8683C132.519 71.9727 130.239 71.3962 128.659 71.3962C126.858 71.3962 125.2 72.1217 124.552 73.9354L126.373 74.35C126.657 73.6439 127.383 72.9638 128.684 72.9638C129.934 72.9638 130.576 73.618 130.576 74.7452V74.7904C130.576 75.4966 129.85 75.4836 128.063 75.6909C126.178 75.9112 124.248 76.4034 124.248 78.664C124.248 80.6203 125.718 81.6955 127.609 81.6955ZM128.03 80.1409C126.936 80.1409 126.145 79.6487 126.145 78.69C126.145 77.6535 127.066 77.2843 128.186 77.1353C128.814 77.0512 130.304 76.8828 130.582 76.6042V77.8868C130.582 79.0657 129.644 80.1409 128.03 80.1409ZM134.807 81.4753H136.744V75.3994C136.744 74.0974 137.747 73.1581 139.121 73.1581C139.522 73.1581 139.976 73.2294 140.132 73.2748V71.4222C139.937 71.3962 139.555 71.3769 139.308 71.3769C138.142 71.3769 137.145 72.0375 136.783 73.1063H136.679V71.5258H134.807V81.4753ZM145.349 81.6761C147.701 81.6761 149.224 80.264 149.438 78.3272H147.552C147.306 79.4026 146.471 80.0373 145.363 80.0373C143.724 80.0373 142.668 78.6705 142.668 76.5006C142.668 74.3694 143.743 73.0286 145.363 73.0286C146.593 73.0286 147.345 73.8059 147.552 74.7386H149.438C149.23 72.7306 147.591 71.3962 145.33 71.3962C142.526 71.3962 140.712 73.508 140.712 76.5459C140.712 79.545 142.461 81.6761 145.349 81.6761ZM153.153 75.5677C153.153 73.9808 154.157 73.074 155.537 73.074C156.871 73.074 157.668 73.9225 157.668 75.38V81.4753H159.605V75.1467C159.605 72.6659 158.244 71.3962 156.197 71.3962C154.649 71.3962 153.717 72.0699 153.25 73.1452H153.127V68.2093H151.217V81.4753H153.153V75.5677ZM170.623 81.6761C173.428 81.6761 175.261 79.6228 175.261 76.5459C175.261 73.4496 173.428 71.3962 170.623 71.3962C167.819 71.3962 165.985 73.4496 165.985 76.5459C165.985 79.6228 167.819 81.6761 170.623 81.6761ZM170.63 80.0502C168.796 80.0502 167.942 78.4503 167.942 76.5395C167.942 74.635 168.796 73.0156 170.63 73.0156C172.449 73.0156 173.305 74.635 173.305 76.5395C173.305 78.4503 172.449 80.0502 170.63 80.0502ZM177.131 81.4753H179.068V75.3994C179.068 74.0974 180.071 73.1581 181.445 73.1581C181.846 73.1581 182.3 73.2294 182.456 73.2748V71.4222C182.261 71.3962 181.879 71.3769 181.632 71.3769C180.466 71.3769 179.469 72.0375 179.107 73.1063H179.002V71.5258H177.131V81.4753ZM192.663 81.6761C194.832 81.6761 196.368 80.6073 196.808 78.9879L194.976 78.6576C194.625 79.5969 193.783 80.0761 192.682 80.0761C191.024 80.0761 189.91 79.0009 189.857 77.0835H196.931V76.397C196.931 72.8018 194.781 71.3962 192.527 71.3962C189.754 71.3962 187.928 73.508 187.928 76.5654C187.928 79.6551 189.729 81.6761 192.663 81.6761ZM189.865 75.6326C189.943 74.2205 190.965 72.9962 192.54 72.9962C194.042 72.9962 195.027 74.1103 195.033 75.6326H189.865ZM200.725 75.5677C200.725 73.9808 201.696 73.074 203.044 73.074C204.358 73.074 205.155 73.9354 205.155 75.38V81.4753H207.092V75.1467C207.092 72.6853 205.738 71.3962 203.704 71.3962C202.208 71.3962 201.23 72.0894 200.77 73.1452H200.647V71.5258H198.788V81.4753H200.725V75.5677ZM214.041 71.5258H212.001V69.1421H210.065V71.5258H208.607V73.0804H210.065V78.9555C210.058 80.7628 211.438 81.6373 212.966 81.6048C213.582 81.5984 213.996 81.4817 214.224 81.3976L213.873 79.7976C213.743 79.8235 213.504 79.8818 213.194 79.8818C212.565 79.8818 212.001 79.6746 212.001 78.554V73.0804H214.041V71.5258ZM220.074 81.6761C222.243 81.6761 223.778 80.6073 224.219 78.9879L222.386 78.6576C222.037 79.5969 221.194 80.0761 220.093 80.0761C218.435 80.0761 217.321 79.0009 217.269 77.0835H224.342V76.397C224.342 72.8018 222.191 71.3962 219.938 71.3962C217.165 71.3962 215.339 73.508 215.339 76.5654C215.339 79.6551 217.14 81.6761 220.074 81.6761ZM217.275 75.6326C217.352 74.2205 218.376 72.9962 219.95 72.9962C221.453 72.9962 222.438 74.1103 222.444 75.6326H217.275ZM226.199 81.4753H228.136V75.3994C228.136 74.0974 229.139 73.1581 230.513 73.1581C230.915 73.1581 231.368 73.2294 231.524 73.2748V71.4222C231.329 71.3962 230.947 71.3769 230.701 71.3769C229.534 71.3769 228.537 72.0375 228.175 73.1063H228.07V71.5258H226.199V81.4753ZM239.599 81.4753H241.569L243.59 74.2917H243.738L245.759 81.4753H247.735L250.656 71.5258H248.655L246.718 78.8001H246.622L244.678 71.5258H242.677L240.72 78.8325H240.623L238.674 71.5258H236.672L239.599 81.4753ZM256.188 81.6761C258.357 81.6761 259.893 80.6073 260.333 78.9879L258.499 78.6576C258.15 79.5969 257.308 80.0761 256.207 80.0761C254.549 80.0761 253.435 79.0009 253.383 77.0835H260.456V76.397C260.456 72.8018 258.306 71.3962 256.052 71.3962C253.279 71.3962 251.453 73.508 251.453 76.5654C251.453 79.6551 253.254 81.6761 256.188 81.6761ZM253.39 75.6326C253.468 74.2205 254.49 72.9962 256.065 72.9962C257.567 72.9962 258.552 74.1103 258.558 75.6326H253.39ZM262.469 81.4753H264.359V79.9272H264.522C264.871 80.5619 265.584 81.6696 267.398 81.6696C269.807 81.6696 271.556 79.7393 271.556 76.52C271.556 73.2942 269.782 71.3962 267.379 71.3962C265.533 71.3962 264.865 72.5234 264.522 73.1387H264.406V68.2093H262.469V81.4753ZM264.367 76.5006C264.367 74.4212 265.273 73.0415 266.964 73.0415C268.719 73.0415 269.6 74.5249 269.6 76.5006C269.6 78.4956 268.693 80.0179 266.964 80.0179C265.299 80.0179 264.367 78.5928 264.367 76.5006ZM280.895 73.9549C280.493 72.4067 279.282 71.3962 277.131 71.3962C274.884 71.3962 273.29 72.5816 273.29 74.3435C273.29 75.7556 274.145 76.6949 276.011 77.1094L277.694 77.4786C278.653 77.6924 279.1 78.12 279.1 78.7417C279.1 79.5126 278.278 80.115 277.008 80.115C275.848 80.115 275.104 79.6162 274.871 78.6381L272.999 78.9232C273.323 80.685 274.787 81.6761 277.022 81.6761C279.424 81.6761 281.089 80.4001 281.089 78.5992C281.089 77.1936 280.195 76.3257 278.368 75.9046L276.788 75.5418C275.694 75.2828 275.221 74.9135 275.227 74.2399C275.221 73.4755 276.05 72.9315 277.151 72.9315C278.356 72.9315 278.912 73.5986 279.139 74.2658L280.895 73.9549ZM282.926 81.4753H284.864V71.5258H282.926V81.4753ZM283.904 69.9907C284.572 69.9907 285.129 69.4724 285.129 68.8376C285.129 68.2029 284.572 67.6781 283.904 67.6781C283.231 67.6781 282.68 68.2029 282.68 68.8376C282.68 69.4724 283.231 69.9907 283.904 69.9907ZM291.82 71.5258H289.781V69.1421H287.844V71.5258H286.386V73.0804H287.844V78.9555C287.838 80.7628 289.217 81.6373 290.745 81.6048C291.361 81.5984 291.775 81.4817 292.003 81.3976L291.653 79.7976C291.522 79.8235 291.283 79.8818 290.973 79.8818C290.344 79.8818 289.781 79.6746 289.781 78.554V73.0804H291.82V71.5258ZM297.853 81.6761C300.022 81.6761 301.558 80.6073 301.998 78.9879L300.165 78.6576C299.816 79.5969 298.973 80.0761 297.872 80.0761C296.214 80.0761 295.1 79.0009 295.048 77.0835H302.121V76.397C302.121 72.8018 299.97 71.3962 297.717 71.3962C294.944 71.3962 293.118 73.508 293.118 76.5654C293.118 79.6551 294.919 81.6761 297.853 81.6761ZM295.054 75.6326C295.131 74.2205 296.155 72.9962 297.729 72.9962C299.232 72.9962 300.217 74.1103 300.223 75.6326H295.054ZM310.449 75.5677C310.449 73.9808 311.422 73.074 312.768 73.074C314.084 73.074 314.881 73.9354 314.881 75.38V81.4753H316.818V75.1467C316.818 72.6853 315.463 71.3962 313.43 71.3962C311.933 71.3962 310.955 72.0894 310.496 73.1452H310.373V71.5258H308.514V81.4753H310.449V75.5677ZM322.018 81.6955C323.664 81.6955 324.589 80.86 324.959 80.115H325.037V81.4753H326.927V74.8683C326.927 71.9727 324.647 71.3962 323.068 71.3962C321.267 71.3962 319.608 72.1217 318.96 73.9354L320.781 74.35C321.066 73.6439 321.791 72.9638 323.093 72.9638C324.343 72.9638 324.984 73.618 324.984 74.7452V74.7904C324.984 75.4966 324.26 75.4836 322.472 75.6909C320.586 75.9112 318.656 76.4034 318.656 78.664C318.656 80.6203 320.126 81.6955 322.018 81.6955ZM322.439 80.1409C321.345 80.1409 320.554 79.6487 320.554 78.69C320.554 77.6535 321.474 77.2843 322.595 77.1353C323.222 77.0512 324.713 76.8828 324.992 76.6042V77.8868C324.992 79.0657 324.052 80.1409 322.439 80.1409ZM329.216 81.4753H331.152V75.3411C331.152 74.0003 332.092 73.0674 333.192 73.0674C334.268 73.0674 335.013 73.78 335.013 74.8617V81.4753H336.942V75.1339C336.942 73.9354 337.674 73.0674 338.938 73.0674C339.962 73.0674 340.803 73.6375 340.803 74.9848V81.4753H342.74V74.8035C342.74 72.5298 341.471 71.3962 339.67 71.3962C338.239 71.3962 337.164 72.0829 336.683 73.1452H336.58C336.146 72.057 335.233 71.3962 333.905 71.3962C332.59 71.3962 331.613 72.0504 331.198 73.1452H331.074V71.5258H329.216V81.4753ZM349.332 81.6761C351.502 81.6761 353.037 80.6073 353.478 78.9879L351.644 78.6576C351.295 79.5969 350.452 80.0761 349.352 80.0761C347.693 80.0761 346.579 79.0009 346.527 77.0835H353.6V76.397C353.6 72.8018 351.451 71.3962 349.196 71.3962C346.424 71.3962 344.597 73.508 344.597 76.5654C344.597 79.6551 346.398 81.6761 349.332 81.6761ZM346.534 75.6326C346.612 74.2205 347.635 72.9962 349.209 72.9962C350.711 72.9962 351.696 74.1103 351.702 75.6326H346.534Z" fill="#6A6A6A"/>
<path d="M35.6694 81.07C39.2512 81.07 42.1548 78.1663 42.1548 74.5843C42.1548 71.0025 39.2512 68.0988 35.6694 68.0988C32.0876 68.0988 29.1841 71.0025 29.1841 74.5843C29.1841 78.1663 32.0876 81.07 35.6694 81.07Z" stroke="#6A6A6A" stroke-width="2" stroke-linecap="round" stroke-linejoin="round"/>
<path d="M43.7764 82.6914L40.25 79.1648" stroke="#6A6A6A" stroke-width="2" stroke-linecap="round" stroke-linejoin="round"/>
<path d="M30.2818 34.0494H32.5797V21.1972H30.2908L26.9331 23.5484V25.7574L30.1305 23.5128H30.2818V34.0494ZM35.8148 24.9558V24.9914H37.97V24.9558C37.97 23.6464 38.8785 22.7647 40.2234 22.7647C41.488 22.7647 42.4142 23.5841 42.4142 24.7152C42.4142 25.6237 41.9778 26.2917 40.2234 28.073L35.9394 32.4551V34.0494H44.8635V32.0988H39.0923V31.9474L41.7819 29.2487C43.9639 27.0933 44.6675 25.9533 44.6675 24.5727C44.6675 22.4263 42.8329 20.8765 40.2946 20.8765C37.6583 20.8765 35.8148 22.5509 35.8148 24.9558ZM48.7933 32.6867C49.6394 32.6867 50.2182 32.081 50.2182 31.2795C50.2182 30.469 49.6394 29.8721 48.7933 29.8721C47.956 29.8721 47.3682 30.469 47.3682 31.2795C47.3682 32.081 47.956 32.6867 48.7933 32.6867ZM48.7933 26.0067C49.6394 26.0067 50.2182 25.41 50.2182 24.6083C50.2182 23.7978 49.6394 23.2011 48.7933 23.2011C47.956 23.2011 47.3682 23.7978 47.3682 24.6083C47.3682 25.41 47.956 26.0067 48.7933 26.0067ZM57.4789 34.3701C60.5515 34.3701 62.3773 31.8762 62.3773 27.6277C62.3773 23.3614 60.5249 20.8765 57.4789 20.8765C54.4241 20.8765 52.5715 23.3614 52.5715 27.6099C52.5715 31.8762 54.3973 34.3701 57.4789 34.3701ZM57.4789 32.464C55.849 32.464 54.896 30.7718 54.896 27.6099C54.896 24.4748 55.8669 22.7914 57.4789 22.7914C59.091 22.7914 60.0528 24.4658 60.0528 27.6099C60.0528 30.7718 59.1087 32.464 57.4789 32.464ZM69.3174 34.3701C72.39 34.3701 74.2158 31.8762 74.2158 27.6277C74.2158 23.3614 72.3632 20.8765 69.3174 20.8765C66.2626 20.8765 64.41 23.3614 64.41 27.6099C64.41 31.8762 66.2358 34.3701 69.3174 34.3701ZM69.3174 32.464C67.6875 32.464 66.7345 30.7718 66.7345 27.6099C66.7345 24.4748 67.7053 22.7914 69.3174 22.7914C70.9293 22.7914 71.8913 24.4658 71.8913 27.6099C71.8913 30.7718 70.9472 32.464 69.3174 32.464Z" fill="black"/>
<path opacity="0.35" fill-rule="evenodd" clip-rule="evenodd" d="M411.616 21.2809H434.72C436.399 21.2809 437.76 22.642 437.76 24.321V32.2253C437.76 33.9043 436.399 35.2654 434.72 35.2654H411.616C409.937 35.2654 408.576 33.9043 408.576 32.2253V24.321C408.576 22.642 409.937 21.2809 411.616 21.2809ZM411.616 22.4969C410.609 22.4969 409.792 23.3136 409.792 24.321V32.2253C409.792 33.2327 410.609 34.0494 411.616 34.0494H434.72C435.727 34.0494 436.544 33.2327 436.544 32.2253V24.321C436.544 23.3136 435.727 22.4969 434.72 22.4969H411.616Z" fill="black"/>
<path opacity="0.4" fill-rule="evenodd" clip-rule="evenodd" d="M438.976 25.2936C440.058 25.8471 440.8 26.9736 440.8 28.273C440.8 29.5726 440.058 30.699 438.976 31.2526V25.2936Z" fill="black"/>
<path fill-rule="evenodd" clip-rule="evenodd" d="M412.224 23.713H434.112C434.783 23.713 435.328 24.2574 435.328 24.929V31.6173C435.328 32.2889 434.783 32.8333 434.112 32.8333H412.224C411.553 32.8333 411.008 32.2889 411.008 31.6173V24.929C411.008 24.2574 411.553 23.713 412.224 23.713Z" fill="black"/>
<path fill-rule="evenodd" clip-rule="evenodd" d="M401.259 24.9569C398.935 22.9719 395.999 21.8889 392.93 21.8889C389.851 21.8889 386.907 22.9783 384.579 24.9741L384.382 25.1436C384.222 25.2807 384.213 25.5243 384.362 25.673L385.732 27.0396C385.866 27.1723 386.077 27.1813 386.222 27.0604L386.391 26.9177C388.224 25.3782 390.524 24.5404 392.93 24.5404C395.326 24.5404 397.618 25.3725 399.449 26.9024L399.619 27.0443C399.762 27.1647 399.974 27.1554 400.108 27.0229L401.478 25.6562C401.626 25.5074 401.618 25.2633 401.457 25.1264L401.259 24.9569ZM392.93 26.1083C394.864 26.1083 396.721 26.75 398.234 27.9386L398.448 28.1065C398.618 28.2404 398.634 28.4928 398.479 28.6457L397.105 30.0171C396.978 30.1439 396.777 30.1584 396.632 30.0513L396.464 29.9267C395.443 29.1672 394.21 28.7597 392.93 28.7597C391.641 28.7597 390.4 29.1722 389.375 29.9405L389.207 30.0662C389.064 30.1742 388.861 30.16 388.734 30.0328L387.359 28.662C387.206 28.5093 387.22 28.2577 387.391 28.1234L387.603 27.9554C389.12 26.7564 390.985 26.1083 392.93 26.1083ZM392.93 30.3278C393.707 30.3278 394.463 30.5321 395.128 30.9218L395.398 31.0797C395.602 31.1993 395.639 31.4795 395.471 31.6467L393.168 33.9436C393.026 34.0846 392.797 34.0846 392.655 33.9436L390.367 31.6614C390.2 31.4949 390.235 31.2162 390.438 31.0957L390.704 30.937C391.377 30.5376 392.142 30.3278 392.93 30.3278Z" fill="black"/>
<path opacity="0.25" fill-rule="evenodd" clip-rule="evenodd" d="M376.352 21.8889H377.568C378.239 21.8889 378.784 22.4333 378.784 23.1049V32.8333C378.784 33.505 378.239 34.0494 377.568 34.0494H376.352C375.681 34.0494 375.136 33.505 375.136 32.8333V23.1049C375.136 22.4333 375.681 21.8889 376.352 21.8889Z" fill="black"/>
<path fill-rule="evenodd" clip-rule="evenodd" d="M372.096 24.321H370.88C370.209 24.321 369.664 24.8654 369.664 25.537V32.8333C369.664 33.505 370.209 34.0494 370.88 34.0494H372.096C372.767 34.0494 373.312 33.505 373.312 32.8333V25.537C373.312 24.8654 372.767 24.321 372.096 24.321ZM365.408 26.7531H366.624C367.295 26.7531 367.84 27.2975 367.84 27.9691V32.8333C367.84 33.505 367.295 34.0494 366.624 34.0494H365.408C364.737 34.0494 364.192 33.505 364.192 32.8333V27.9691C364.192 27.2975 364.737 26.7531 365.408 26.7531ZM359.936 28.5772H361.152C361.823 28.5772 362.368 29.1216 362.368 29.7932V32.8333C362.368 33.505 361.823 34.0494 361.152 34.0494H359.936C359.265 34.0494 358.72 33.505 358.72 32.8333V29.7932C358.72 29.1216 359.265 28.5772 359.936 28.5772Z" fill="black"/>
<path d="M227.392 199.432C246.196 199.432 261.44 184.188 261.44 165.383C261.44 146.578 246.196 131.333 227.392 131.333C208.588 131.333 193.344 146.578 193.344 165.383C193.344 184.188 208.588 199.432 227.392 199.432Z" fill="#161616"/>
<g filter="url(#filter0_d)">
<path d="M144.704 286.988H59.584C54.2113 286.988 49.856 291.343 49.856 296.716V381.839C49.856 387.212 54.2113 391.568 59.584 391.568H144.704C150.077 391.568 154.432 387.212 154.432 381.839V296.716C154.432 291.343 150.077 286.988 144.704 286.988Z" fill="white"/>
</g>
<path d="M127.68 339.278C127.68 325.174 116.247 313.741 102.144 313.741C88.0408 313.741 76.6079 325.174 76.6079 339.278C76.6079 353.381 88.0408 364.815 102.144 364.815C116.247 364.815 127.68 353.381 127.68 339.278Z" fill="#C2C2C2"/>
<path d="M121.6 409.809H82.6879C79.33 409.809 76.6079 412.531 76.6079 415.889C76.6079 419.247 79.33 421.969 82.6879 421.969H121.6C124.958 421.969 127.68 419.247 127.68 415.889C127.68 412.531 124.958 409.809 121.6 409.809Z" fill="#C2C2C2"/>
<path d="M252.928 409.809H201.856C198.498 409.809 195.776 412.531 195.776 415.889C195.776 419.247 198.498 421.969 201.856 421.969H252.928C256.286 421.969 259.008 419.247 259.008 415.889C259.008 412.531 256.286 409.809 252.928 409.809Z" fill="#C2C2C2"/>
<path d="M386.688 409.809H318.592C315.234 409.809 312.512 412.531 312.512 415.889C312.512 419.247 315.234 421.969 318.592 421.969H386.688C390.046 421.969 392.768 419.247 392.768 415.889C392.768 412.531 390.046 409.809 386.688 409.809Z" fill="#C2C2C2"/>
<g filter="url(#filter1_d)">
<path d="M269.952 286.988H184.832C179.459 286.988 175.104 291.343 175.104 296.716V381.839C175.104 387.212 179.459 391.568 184.832 391.568H269.952C275.325 391.568 279.68 387.212 279.68 381.839V296.716C279.68 291.343 275.325 286.988 269.952 286.988Z" fill="white"/>
</g>
<path d="M226.339 315.565C226.807 314.754 227.977 314.754 228.445 315.565L254.773 361.167C255.241 361.978 254.655 362.991 253.72 362.991H201.064C200.129 362.991 199.543 361.978 200.011 361.167L226.339 315.565Z" fill="#C2C2C2"/>
<g filter="url(#filter2_d)">
<path d="M395.2 286.988H310.08C304.707 286.988 300.352 291.343 300.352 296.716V381.839C300.352 387.212 304.707 391.568 310.08 391.568H395.2C400.573 391.568 404.928 387.212 404.928 381.839V296.716C404.928 291.343 400.573 286.988 395.2 286.988Z" fill="white"/>
</g>
<path d="M376.96 313.741H328.32C327.648 313.741 327.104 314.285 327.104 314.957V363.599C327.104 364.27 327.648 364.815 328.32 364.815H376.96C377.632 364.815 378.176 364.27 378.176 363.599V314.957C378.176 314.285 377.632 313.741 376.96 313.741Z" fill="#C4C4C4"/>
<defs>
<filter id="filter0_d" x="39.856" y="276.988" width="124.576" height="124.58" filterUnits="userSpaceOnUse" color-interpolation-filters="sRGB">
<feFlood flood-opacity="0" result="BackgroundImageFix"/>
<feColorMatrix in="SourceAlpha" type="matrix" values="0 0 0 0 0 0 0 0 0 0 0 0 0 0 0 0 0 0 127 0"/>
<feOffset/>
<feGaussianBlur stdDeviation="5"/>
<feColorMatrix type="matrix" values="0 0 0 0 0 0 0 0 0 0 0 0 0 0 0 0 0 0 0.15 0"/>
<feBlend mode="normal" in2="BackgroundImageFix" result="effect1_dropShadow"/>
<feBlend mode="normal" in="SourceGraphic" in2="effect1_dropShadow" result="shape"/>
</filter>
<filter id="filter1_d" x="165.104" y="276.988" width="124.576" height="124.58" filterUnits="userSpaceOnUse" color-interpolation-filters="sRGB">
<feFlood flood-opacity="0" result="BackgroundImageFix"/>
<feColorMatrix in="SourceAlpha" type="matrix" values="0 0 0 0 0 0 0 0 0 0 0 0 0 0 0 0 0 0 127 0"/>
<feOffset/>
<feGaussianBlur stdDeviation="5"/>
<feColorMatrix type="matrix" values="0 0 0 0 0 0 0 0 0 0 0 0 0 0 0 0 0 0 0.15 0"/>
<feBlend mode="normal" in2="BackgroundImageFix" result="effect1_dropShadow"/>
<feBlend mode="normal" in="SourceGraphic" in2="effect1_dropShadow" result="shape"/>
</filter>
<filter id="filter2_d" x="290.352" y="276.988" width="124.576" height="124.58" filterUnits="userSpaceOnUse" color-interpolation-filters="sRGB">
<feFlood flood-opacity="0" result="BackgroundImageFix"/>
<feColorMatrix in="SourceAlpha" type="matrix" values="0 0 0 0 0 0 0 0 0 0 0 0 0 0 0 0 0 0 127 0"/>
<feOffset/>
<feGaussianBlur stdDeviation="5"/>
<feColorMatrix type="matrix" values="0 0 0 0 0 0 0 0 0 0 0 0 0 0 0 0 0 0 0.15 0"/>
<feBlend mode="normal" in2="BackgroundImageFix" result="effect1_dropShadow"/>
<feBlend mode="normal" in="SourceGraphic" in2="effect1_dropShadow" result="shape"/>
</filter>
</defs>
</svg>
