<svg width="16" height="16" viewBox="0 0 16 16" fill="none" xmlns="http://www.w3.org/2000/svg">
<g clip-path="url(#clip0)">
<path fill-rule="evenodd" clip-rule="evenodd" d="M8.33733 0.0683797C8.22935 0.023068 8.11497 1.00362e-05 8 3.27324e-09C7.88789 -9.76511e-06 7.77522 0.0218932 7.66736 0.0664451L7.66267 0.0683796L2.61473 2.1534C2.24496 2.30613 2 2.69547 2 3.13044V8C2 9.72919 2.70204 11.2066 3.56522 12.3752L8.94737 6.99306V2.54922L12.0922 3.84819L13.634 2.30645C13.5598 2.24298 13.4763 2.19102 13.3853 2.1534L8.33733 0.0683797ZM14 5.56234L12.1053 7.45707V8C12.1053 9.62111 11.109 11.0953 9.90247 12.2582C9.57689 12.572 9.24993 12.8494 8.94737 13.0865V10.615L5.31003 14.2523C5.8273 14.7073 6.3192 15.0734 6.70842 15.3414C6.96115 15.5154 7.17312 15.6497 7.32407 15.7417C7.39961 15.7878 7.46005 15.8234 7.50289 15.8481C7.52431 15.8605 7.54135 15.8702 7.55369 15.8772L7.56864 15.8856L7.57015 15.8864L7.57341 15.8882L7.57632 15.8898C7.84653 16.0386 8.16338 16.0359 8.42985 15.8864L8.43136 15.8856L8.44631 15.8772C8.45865 15.8702 8.47569 15.8605 8.49711 15.8481C8.53995 15.8234 8.60039 15.7878 8.67593 15.7417C8.82688 15.6497 9.03885 15.5154 9.29158 15.3414C9.79506 14.9948 10.4704 14.4839 11.1502 13.8288C12.4699 12.5568 14 10.5528 14 8V5.56234Z" fill="black"/>
<path d="M0.272048 15.6475C-0.118476 15.257 -0.118476 14.6238 0.272048 14.2333L13.7983 0.707084C14.1888 0.31656 14.822 0.316559 15.2125 0.707083V0.707083C15.603 1.09761 15.603 1.73077 15.2125 2.1213L1.68626 15.6475C1.29574 16.0381 0.662572 16.0381 0.272048 15.6475V15.6475Z" fill="#FF4752"/>
</g>
<defs>
<clipPath id="clip0">
<rect width="16" height="16" fill="white"/>
</clipPath>
</defs>
</svg>
