<svg width="256" height="256" viewBox="0 0 256 256" fill="none" xmlns="http://www.w3.org/2000/svg">
<g clip-path="url(#clip0)">
<path d="M114.372 24.0112C118.904 16.3365 128.919 13.7199 136.74 18.167L137.342 18.5095C145.164 22.9565 147.83 32.7832 143.298 40.4579L31.1339 230.404C26.602 238.079 16.5877 240.695 8.76647 236.248L8.16411 235.906C0.342875 231.459 -2.3236 221.632 2.20835 213.957L114.372 24.0112Z" fill="url(#paint0_linear)"/>
<path d="M113.79 41.3185C109.304 33.6178 112.029 23.8067 119.876 19.4047L120.481 19.0657C128.329 14.6637 138.327 17.3379 142.813 25.0386L253.839 215.627C258.325 223.328 255.6 233.139 247.753 237.541L247.148 237.88C239.3 242.282 229.302 239.608 224.816 231.907L113.79 41.3185Z" fill="url(#paint1_linear)"/>
<path d="M139.14 84.8351C130.436 77.4085 125.708 77.4128 117.093 84.8351L128.094 65.4126L139.14 84.8351Z" fill="url(#paint2_linear)"/>
<path d="M111.218 159.778C106.655 151.791 109.555 141.687 117.694 137.21C125.833 132.733 136.13 135.578 140.693 143.565L180.766 213.714C185.329 221.701 182.429 231.805 174.29 236.282C166.151 240.759 155.854 237.914 151.291 229.927L111.218 159.778Z" fill="url(#paint3_linear)"/>
<path d="M73.2116 224.024C68.649 216.037 71.5486 205.933 79.6879 201.456C87.8273 196.978 98.1243 199.824 102.687 207.811L106.638 214.727C111.201 222.714 108.301 232.818 100.162 237.295C92.0223 241.772 81.7253 238.927 77.1627 230.94L73.2116 224.024Z" fill="url(#paint4_linear)"/>
</g>
<defs>
<linearGradient id="paint0_linear" x1="128.094" y1="12.0499" x2="128.094" y2="239.489" gradientUnits="userSpaceOnUse">
<stop stop-color="#159DD5"/>
<stop offset="1" stop-color="#005E9E"/>
</linearGradient>
<linearGradient id="paint1_linear" x1="128.094" y1="12.0499" x2="128.094" y2="239.489" gradientUnits="userSpaceOnUse">
<stop stop-color="#159DD5"/>
<stop offset="1" stop-color="#005E9E"/>
</linearGradient>
<linearGradient id="paint2_linear" x1="128.094" y1="12.0499" x2="128.094" y2="239.489" gradientUnits="userSpaceOnUse">
<stop stop-color="#159DD5"/>
<stop offset="1" stop-color="#005E9E"/>
</linearGradient>
<linearGradient id="paint3_linear" x1="128.094" y1="12.0499" x2="128.094" y2="239.489" gradientUnits="userSpaceOnUse">
<stop stop-color="#159DD5"/>
<stop offset="1" stop-color="#005E9E"/>
</linearGradient>
<linearGradient id="paint4_linear" x1="128.094" y1="12.0499" x2="128.094" y2="239.489" gradientUnits="userSpaceOnUse">
<stop stop-color="#159DD5"/>
<stop offset="1" stop-color="#005E9E"/>
</linearGradient>
<clipPath id="clip0">
<rect width="256" height="256" fill="white"/>
</clipPath>
</defs>
</svg>
