<svg width="256" height="256" viewBox="0 0 256 256" fill="none" xmlns="http://www.w3.org/2000/svg">
<g clip-path="url(#clip0)">
<circle cx="128" cy="128" r="128" fill="#686868"/>
<path d="M112.763 0.876651C132.815 -1.48779 153.429 0.936999 172.351 8.0742C189.43 14.512 205.672 24.4215 218.5 37.5C207.529 48.4636 196.158 59.7517 185.2 70.7291C178.137 63.7482 169.907 57.9332 160.849 53.8955C148.813 48.4589 135.43 46.0671 122.276 46.9832C107.415 47.9487 92.8511 53.1522 80.7338 61.8775C65.6989 72.5614 54.439 88.5447 49.4881 106.41C45.7756 119.516 45.4681 133.557 48.4647 146.841C50.8735 157.706 55.5658 168.041 62.0871 177.022C68.1403 185.374 75.7775 192.558 84.4654 198.063C94.4787 204.438 105.902 208.547 117.66 209.99C127.736 211.265 138.046 210.601 147.885 208.07C148.965 207.546 149.583 208.785 150.261 209.403C161.349 220.635 172.909 231.773 184 243C164.047 252.765 141.127 257.265 118.996 255.69C100.475 254.453 82.2335 249.085 66.001 240.006C59.232 236.276 52.874 231.826 46.8589 226.966C42.1067 222.904 37.4117 218.734 33.3263 213.978C26.4104 206.465 20.4769 198.039 15.5887 189.053C14.5 186.935 13.2371 184.905 12.3498 182.689C11.1332 180.207 10.0717 177.653 9.01563 175.099C7.66564 171.459 6.22311 167.847 5.23783 164.086C5.1208 163.59 4.82141 163.173 4.55195 162.756C2.2929 154.894 1.02728 146.756 0.349564 138.607C-0.363535 128.359 -0.0124283 118.021 1.65056 107.877C4.96566 87.1732 13.4657 67.3525 26.1082 50.7027C34.3062 39.868 44.2161 30.3471 55.3562 22.6284C72.3508 10.8035 92.2441 3.23835 112.763 0.876651ZM126.149 14.7232C124.598 14.9947 123.166 15.7545 121.963 16.7612C119.132 19.2107 118.114 23.5665 119.739 26.987C121.462 31.1069 126.587 33.3232 130.724 31.65C134.924 30.2127 137.469 25.2013 136.097 20.936C134.981 16.7036 130.403 13.8619 126.149 14.7232ZM53.2169 45.4417C51.7662 45.5185 50.3346 45.9683 49.0907 46.7254C45.9689 48.6537 44.2242 52.6886 45.1823 56.2874C46.0233 60.1495 49.7494 63.1613 53.6905 63.0378C57.7813 63.1503 61.6053 59.9136 62.2749 55.8595C62.8846 53.026 61.8367 49.9484 59.7872 47.946C58.0888 46.2097 55.6229 45.3073 53.2169 45.4417ZM21.6555 120.05C19.8537 120.388 18.1607 121.307 16.8815 122.629C14.3094 125.295 13.6916 129.643 15.5152 132.893C17.4639 136.722 22.4502 138.615 26.3967 136.903C30.4848 135.392 32.9262 130.479 31.5844 126.285C30.4848 122.058 25.9068 119.164 21.6555 120.05ZM52.1336 194.673C49.0063 195.208 46.2873 197.613 45.3728 200.675C44.3195 203.865 45.3374 207.576 47.7952 209.825C49.469 211.328 51.7145 212.211 53.9654 212.107C57.0029 212.039 59.9478 210.223 61.3468 207.499C62.6886 205.077 62.7485 202.008 61.54 199.517C59.956 196.011 55.8761 193.941 52.1336 194.673ZM126.182 225.402C122.981 225.956 120.216 228.439 119.353 231.602C118.299 235.049 119.66 239.076 122.594 241.144C124.734 242.732 127.608 243.248 130.153 242.477C132.768 241.718 134.97 239.669 135.887 237.079C137.24 233.585 135.985 229.311 133.008 227.078C131.097 225.583 128.558 224.974 126.182 225.402Z" fill="#A0A0A0"/>
<path fill-rule="evenodd" clip-rule="evenodd" d="M121.963 16.7612C123.166 15.7545 124.598 14.9947 126.149 14.7232C130.403 13.8619 134.981 16.7036 136.097 20.936C137.469 25.2013 134.924 30.2127 130.724 31.6501C126.587 33.3233 121.462 31.1069 119.739 26.987C118.114 23.5665 119.132 19.2107 121.963 16.7612ZM49.0908 46.7254C50.3347 45.9684 51.7663 45.5185 53.217 45.4417C55.623 45.3073 58.0889 46.2097 59.7873 47.946C61.8368 49.9484 62.8847 53.026 62.275 55.8595C61.6054 59.9136 57.7814 63.1503 53.6906 63.0379C49.7495 63.1613 46.0234 60.1495 45.1824 56.2874C44.2243 52.6886 45.969 48.6537 49.0908 46.7254ZM16.8816 122.629C18.1608 121.307 19.8538 120.388 21.6556 120.05C25.9069 119.164 30.4849 122.058 31.5845 126.285C32.9263 130.479 30.4849 135.392 26.3968 136.903C22.4503 138.615 17.4641 136.722 15.5153 132.893C13.6917 129.643 14.3095 125.295 16.8816 122.629ZM45.3729 200.675C46.2874 197.613 49.0065 195.208 52.1337 194.673C55.8762 193.941 59.9561 196.012 61.5401 199.517C62.7486 202.008 62.6887 205.077 61.3469 207.499C59.9479 210.223 57.003 212.039 53.9655 212.107C51.7146 212.211 49.4691 211.328 47.7953 209.825C45.3375 207.576 44.3196 203.865 45.3729 200.675ZM119.353 231.602C120.216 228.439 122.981 225.956 126.182 225.402C128.558 224.975 131.097 225.583 133.008 227.078C135.986 229.311 137.24 233.585 135.888 237.079C134.97 239.669 132.768 241.718 130.153 242.477C127.608 243.248 124.734 242.732 122.594 241.144C119.66 239.076 118.3 235.049 119.353 231.602Z" fill="#C1C1C1"/>
<path d="M120.158 79.3251C122.993 78.8648 125.879 79.03 128.742 79.0241C139.907 79.5582 150.688 84.7244 158.317 92.8381C162.909 97.8244 166.475 103.799 168.38 110.314C154.284 110.311 140.185 110.311 126.086 110.311C122.482 110.278 118.922 111.91 116.562 114.621C114.785 116.642 113.682 119.239 113.475 121.921C113.123 126.101 115.06 130.388 118.41 132.92C120.663 134.664 123.52 135.575 126.37 135.516C163.832 135.505 201.296 135.499 238.758 135.525C240.166 135.537 241.594 135.481 242.957 135.089C247.159 133.961 250.651 130.524 251.778 126.326C251.976 126.63 252.041 126.957 251.976 127.314C250.825 132.828 245.553 137.098 239.923 137.186C231.159 137.169 222.397 137.183 213.636 137.172C213.154 137.08 213.16 137.632 213.089 137.939C209.94 156.119 200.906 173.261 187.567 186.049C176.81 196.511 163.332 204.144 148.816 208C131.849 191.079 114.912 174.129 97.9597 157.19C95.0027 154.323 92.1286 151.331 89.7837 147.932C86.3743 143.025 83.9792 137.411 82.8171 131.554C81.0015 122.124 82.2021 112.09 86.5133 103.474C90.1031 96.2961 95.6266 90.0618 102.451 85.7984C107.771 82.3581 113.88 80.166 120.158 79.3251V79.3251Z" fill="#474747"/>
<rect x="113" y="110" width="139" height="26" rx="13" fill="#B0B0B0"/>
<path d="M199.857 196.13C201.96 195.778 204.243 196.13 206.022 197.346C208.698 198.944 210.313 202.144 210.078 205.245C210.018 207.299 209.042 209.228 207.713 210.755C206.109 212.313 203.938 213.398 201.668 213.39C198.719 213.529 195.708 212.013 194.136 209.503C192.808 207.64 192.442 205.218 192.846 202.998C193.482 199.564 196.409 196.691 199.857 196.13V196.13Z" fill="#767676"/>
</g>
<defs>
<clipPath id="clip0">
<rect width="256" height="256" fill="white"/>
</clipPath>
</defs>
</svg>
