<svg width="256" height="256" viewBox="0 0 256 256" fill="none" xmlns="http://www.w3.org/2000/svg">
<circle cx="128" cy="128" r="128" fill="#0078D7"/>
<path d="M128.001 71.3313C133.8 71.3134 139.377 73.5298 143.543 77.5082C147.71 81.4867 150.136 86.9126 150.306 92.6297C154.748 93.2145 159.305 93.9943 163.954 95C163.986 94.4011 164.002 93.7984 164 93.1919C163.915 83.8297 160.085 74.8793 153.343 68.2885C146.601 61.6977 137.492 58 128 58C118.507 58 109.399 61.6977 102.657 68.2885C95.9148 74.8793 92.0847 83.8297 92 93.1919C92 93.757 92.0172 94.322 92.043 94.887C96.053 94.0395 100.636 93.2258 105.697 92.5789C105.88 86.8706 108.312 81.4576 112.477 77.49C116.642 73.5224 122.211 71.313 128.001 71.3313V71.3313Z" fill="white"/>
<path d="M75 105.841V119.008C75 178.252 128 198 128 198C128 198 181 178.252 181 119.008V105.841C146.649 94.0531 109.351 94.0531 75 105.841H75ZM145.666 158.493H110.334V156.31C110.341 152.632 111.501 149.049 113.652 146.065C115.802 143.082 118.835 140.849 122.321 139.681C119.602 138.392 117.403 136.215 116.085 133.509C114.767 130.802 114.409 127.728 115.07 124.791C115.731 121.855 117.371 119.23 119.72 117.35C122.07 115.469 124.99 114.445 127.999 114.445C131.008 114.445 133.927 115.469 136.277 117.35C138.627 119.23 140.267 121.855 140.927 124.791C141.588 127.728 141.23 130.802 139.912 133.509C138.594 136.215 136.395 138.392 133.676 139.681C137.163 140.849 140.196 143.081 142.347 146.065C144.498 149.048 145.659 152.632 145.666 156.31V158.493Z" fill="white"/>
</svg>
