<svg width="256" height="256" viewBox="0 0 256 256" fill="none" xmlns="http://www.w3.org/2000/svg">
<path fill-rule="evenodd" clip-rule="evenodd" d="M128 224.283C181.176 224.283 224.283 181.176 224.283 128C224.283 74.8243 181.176 31.7168 128 31.7168C74.8243 31.7168 31.7168 74.8243 31.7168 128C31.7168 181.176 74.8243 224.283 128 224.283ZM128 256C198.692 256 256 198.692 256 128C256 57.3076 198.692 0 128 0C57.3076 0 0 57.3076 0 128C0 198.692 57.3076 256 128 256Z" fill="#8ABD50"/>
<path d="M110.201 67.9646C100.671 68.2179 81.1466 68.5726 79.292 67.9646L114.065 153.838L99.3829 188.035H129.519L178.973 67.9646H151.155L129.519 121.92L110.201 67.9646Z" fill="#8ABD50"/>
</svg>
