<svg width="24" height="24" viewBox="0 0 24 24" fill="none" xmlns="http://www.w3.org/2000/svg">
<path fill-rule="evenodd" clip-rule="evenodd" d="M12 21C16.9706 21 21 16.9706 21 12C21 7.02944 16.9706 3 12 3C7.02944 3 3 7.02944 3 12C3 16.9706 7.02944 21 12 21ZM12 24C18.6274 24 24 18.6274 24 12C24 5.37258 18.6274 0 12 0C5.37258 0 0 5.37258 0 12C0 18.6274 5.37258 24 12 24Z" fill="black"/>
<path fill-rule="evenodd" clip-rule="evenodd" d="M11.2929 6.04289C11.6834 5.65237 12.3166 5.65237 12.7071 6.04289L17.9571 11.2929C18.3476 11.6834 18.3476 12.3166 17.9571 12.7071L12.7071 17.9571C12.3166 18.3476 11.6834 18.3476 11.2929 17.9571C10.9024 17.5666 10.9024 16.9334 11.2929 16.5429L14.8358 13H6.75C6.19771 13 5.75 12.5523 5.75 12C5.75 11.4477 6.19771 11 6.75 11H14.8358L11.2929 7.45711C10.9024 7.06658 10.9024 6.43342 11.2929 6.04289Z" fill="black"/>
</svg>
