<svg width="24" height="24" viewBox="0 0 24 24" fill="none" xmlns="http://www.w3.org/2000/svg">
<path fill-rule="evenodd" clip-rule="evenodd" d="M12 21C7.02944 21 3 16.9706 3 12C3 7.02944 7.02944 3 12 3C16.9706 3 21 7.02944 21 12C21 16.9706 16.9706 21 12 21ZM12 24C5.37258 24 0 18.6274 0 12C0 5.37258 5.37258 0 12 0C18.6274 0 24 5.37258 24 12C24 18.6274 18.6274 24 12 24Z" fill="black"/>
<path fill-rule="evenodd" clip-rule="evenodd" d="M12.7071 6.04289C12.3166 5.65237 11.6834 5.65237 11.2929 6.04289L6.04288 11.2929C5.65238 11.6834 5.65238 12.3166 6.04287 12.7071L11.2929 17.9571C11.6834 18.3476 12.3166 18.3476 12.7071 17.9571C13.0976 17.5666 13.0976 16.9334 12.7071 16.5429L9.16419 13H17.25C17.8023 13 18.25 12.5523 18.25 12C18.25 11.4477 17.8023 11 17.25 11H9.16419L12.7071 7.45711C13.0976 7.06658 13.0976 6.43342 12.7071 6.04289Z" fill="black"/>
</svg>
