<svg width="24" height="24" viewBox="0 0 24 24" fill="none" xmlns="http://www.w3.org/2000/svg">
<g clip-path="url(#clip0)">
<path fill-rule="evenodd" clip-rule="evenodd" d="M3 12C3 16.9706 7.02944 21 12 21C16.9706 21 21 16.9706 21 12C21 7.02944 16.9706 3 12 3C7.02944 3 3 7.02944 3 12ZM0 12C0 18.6274 5.37258 24 12 24C18.6274 24 24 18.6274 24 12C24 5.37258 18.6274 0 12 0C5.37258 0 0 5.37258 0 12Z" fill="black"/>
<path fill-rule="evenodd" clip-rule="evenodd" d="M17.9571 11.2929C18.3476 11.6834 18.3476 12.3166 17.9571 12.7071L12.7071 17.9571C12.3166 18.3476 11.6834 18.3476 11.2929 17.9571L6.04288 12.7071C5.65238 12.3166 5.65238 11.6834 6.04287 11.2929C6.43338 10.9024 7.06658 10.9024 7.45709 11.2929L11 14.8358V6.75C11 6.19771 11.4477 5.75 12 5.75C12.5523 5.75 13 6.19771 13 6.75V14.8358L16.5429 11.2929C16.9334 10.9024 17.5666 10.9024 17.9571 11.2929Z" fill="black"/>
</g>
<defs>
<clipPath id="clip0">
<rect width="24" height="24" fill="white"/>
</clipPath>
</defs>
</svg>
