<svg width="24" height="24" viewBox="0 0 24 24" fill="none" xmlns="http://www.w3.org/2000/svg">
<g clip-path="url(#clip0)">
<path fill-rule="evenodd" clip-rule="evenodd" d="M21 12C21 7.02944 16.9706 3 12 3C7.02944 3 3 7.02944 3 12C3 16.9706 7.02944 21 12 21C16.9706 21 21 16.9706 21 12ZM24 12C24 5.37258 18.6274 0 12 0C5.37258 0 0 5.37258 0 12C0 18.6274 5.37258 24 12 24C18.6274 24 24 18.6274 24 12Z" fill="black"/>
<path fill-rule="evenodd" clip-rule="evenodd" d="M6.04289 12.7071C5.65237 12.3166 5.65237 11.6834 6.04289 11.2929L11.2929 6.04288C11.6834 5.65238 12.3166 5.65238 12.7071 6.04287L17.9571 11.2929C18.3476 11.6834 18.3476 12.3166 17.9571 12.7071C17.5666 13.0976 16.9334 13.0976 16.5429 12.7071L13 9.16419V17.25C13 17.8023 12.5523 18.25 12 18.25C11.4477 18.25 11 17.8023 11 17.25V9.16419L7.45711 12.7071C7.06658 13.0976 6.43342 13.0976 6.04289 12.7071Z" fill="black"/>
</g>
<defs>
<clipPath id="clip0">
<rect width="24" height="24" fill="white"/>
</clipPath>
</defs>
</svg>
