<svg width="24" height="24" viewBox="0 0 24 24" fill="none" xmlns="http://www.w3.org/2000/svg">
<path fill-rule="evenodd" clip-rule="evenodd" d="M11.5145 6.14251C11.9881 6.42666 12.1416 7.04092 11.8575 7.5145L9.76619 11H12C12.3603 11 12.6927 11.1938 12.8702 11.5073C13.0477 11.8208 13.0429 12.2056 12.8575 12.5145L9.85749 17.5145C9.57334 17.9881 8.95908 18.1416 8.4855 17.8575C8.01192 17.5733 7.85836 16.9591 8.14251 16.4855L10.2338 13H8C7.63973 13 7.30731 12.8062 7.1298 12.4927C6.95229 12.1792 6.95715 11.7944 7.14251 11.4855L10.1425 6.4855C10.4267 6.01192 11.0409 5.85836 11.5145 6.14251Z" fill="black"/>
<path fill-rule="evenodd" clip-rule="evenodd" d="M16 8C16.5523 8 17 8.44772 17 9V15C17 15.5523 16.5523 16 16 16H15.5C14.6716 16 14 16.6716 14 17.5C14 18.3284 14.6716 19 15.5 19H17C18.6569 19 20 17.6569 20 16V8C20 6.34315 18.6569 5 17 5H15.5C14.6716 5 14 5.67157 14 6.5C14 7.32843 14.6716 8 15.5 8H16ZM4.5 8C5.32843 8 6 7.32843 6 6.5C6 5.67157 5.32843 5 4.5 5H3C1.34315 5 0 6.34315 0 8V16C0 17.6569 1.34315 19 3 19H4.5C5.32843 19 6 18.3284 6 17.5C6 16.6716 5.32843 16 4.5 16H4C3.44772 16 3 15.5523 3 15L3 9C3 8.44772 3.44772 8 4 8H4.5ZM22 10C21.4477 10 21 10.4477 21 11V13C21 13.5523 21.4477 14 22 14C22.5523 14 23 13.5523 23 13V11C23 10.4477 22.5523 10 22 10Z" fill="black"/>
</svg>
