<svg width="24" height="24" viewBox="0 0 24 24" fill="none" xmlns="http://www.w3.org/2000/svg">
<path fill-rule="evenodd" clip-rule="evenodd" d="M17 9C17 8.44772 16.5523 8 16 8H4C3.44772 8 3 8.44772 3 9L3 15C3 15.5523 3.44772 16 4 16H16C16.5523 16 17 15.5523 17 15V9ZM3 5C1.34315 5 0 6.34315 0 8V16C0 17.6569 1.34315 19 3 19H17C18.6569 19 20 17.6569 20 16V8C20 6.34315 18.6569 5 17 5H3Z" fill="black"/>
<path d="M21 11C21 10.4477 21.4477 10 22 10C22.5523 10 23 10.4477 23 11V13C23 13.5523 22.5523 14 22 14C21.4477 14 21 13.5523 21 13V11Z" fill="black"/>
<path d="M4 10C4 9.44772 4.44772 9 5 9H6C6.55228 9 7 9.44772 7 10V14C7 14.5523 6.55228 15 6 15H5C4.44772 15 4 14.5523 4 14V10Z" fill="black"/>
</svg>
