<svg width="24" height="24" viewBox="0 0 24 24" fill="none" xmlns="http://www.w3.org/2000/svg">
<path fill-rule="evenodd" clip-rule="evenodd" d="M9 7C8.44772 7 8 7.44772 8 8V20C8 20.5523 8.44772 21 9 21H15C15.5523 21 16 20.5523 16 20V8C16 7.44772 15.5523 7 15 7H9ZM5 21C5 22.6569 6.34315 24 8 24H16C17.6569 24 19 22.6569 19 21V7C19 5.34315 17.6569 4 16 4H8C6.34315 4 5 5.34315 5 7V21Z" fill="black"/>
<path d="M11 3C10.4477 3 10 2.55228 10 2C10 1.44772 10.4477 1 11 1H13C13.5523 1 14 1.44772 14 2C14 2.55228 13.5523 3 13 3H11Z" fill="black"/>
<path d="M9 15C9 14.4477 9.44772 14 10 14H14C14.5523 14 15 14.4477 15 15V19C15 19.5523 14.5523 20 14 20H10C9.44772 20 9 19.5523 9 19V15Z" fill="black"/>
</svg>
