<svg width="24" height="24" viewBox="0 0 24 24" fill="none" xmlns="http://www.w3.org/2000/svg">
<path fill-rule="evenodd" clip-rule="evenodd" d="M9 7C8.44772 7 8 7.44772 8 8V20C8 20.5523 8.44772 21 9 21H15C15.5523 21 16 20.5523 16 20V8C16 7.44772 15.5523 7 15 7H9ZM5 21C5 22.6569 6.34315 24 8 24H16C17.6569 24 19 22.6569 19 21V7C19 5.34315 17.6569 4 16 4H8C6.34315 4 5 5.34315 5 7V21Z" fill="black"/>
<path d="M11 3C10.4477 3 10 2.55228 10 2C10 1.44772 10.4477 1 11 1H13C13.5523 1 14 1.44772 14 2C14 2.55228 13.5523 3 13 3H11Z" fill="black"/>
<path fill-rule="evenodd" clip-rule="evenodd" d="M13.5145 8.14266C13.9881 8.42681 14.1416 9.04107 13.8575 9.51465L11.7662 13.0002H14C14.3603 13.0002 14.6927 13.1939 14.8702 13.5075C15.0477 13.821 15.0429 14.2057 14.8575 14.5146L11.8575 19.5146C11.5733 19.9882 10.9591 20.1418 10.4855 19.8576C10.0119 19.5735 9.85836 18.9592 10.1425 18.4857L12.2338 15.0002H10C9.63973 15.0002 9.30731 14.8064 9.1298 14.4928C8.95229 14.1793 8.95715 13.7946 9.14251 13.4857L12.1425 8.48566C12.4267 8.01208 13.0409 7.85851 13.5145 8.14266Z" fill="black"/>
</svg>
