<svg width="24" height="24" viewBox="0 0 24 24" fill="none" xmlns="http://www.w3.org/2000/svg">
<path d="M6.19442 15L6.91459 12.848H10.1958L10.9203 15H12.6078L9.53107 6.27273H7.57936L4.50692 15H6.19442ZM7.34072 11.5781L8.52112 8.0625H8.58931L9.7697 11.5781H7.34072Z" fill="black"/>
<path d="M15.5725 15.1321C16.5996 15.1321 17.2132 14.6506 17.4945 14.1008H17.5456V15H19.0285V10.6193C19.0285 8.8892 17.6181 8.36931 16.3695 8.36931C14.9931 8.36931 13.9363 8.98295 13.5953 10.1761L15.0357 10.3807C15.1891 9.93323 15.6237 9.54971 16.378 9.54971C17.094 9.54971 17.4859 9.91619 17.4859 10.5596V10.5852C17.4859 11.0284 17.0215 11.0497 15.8667 11.1733C14.5968 11.3096 13.3823 11.6889 13.3823 13.1633C13.3823 14.4503 14.324 15.1321 15.5725 15.1321ZM15.9732 13.9986C15.3297 13.9986 14.8695 13.7045 14.8695 13.1378C14.8695 12.5454 15.385 12.2983 16.0755 12.2003C16.4803 12.1449 17.2899 12.0426 17.4903 11.8807V12.652C17.4903 13.3807 16.9021 13.9986 15.9732 13.9986Z" fill="black"/>
<path fill-rule="evenodd" clip-rule="evenodd" d="M3 0C1.34315 0 0 1.34315 0 3V21C0 22.6569 1.34315 24 3 24H21C22.6569 24 24 22.6569 24 21V3C24 1.34315 22.6569 0 21 0H3ZM6 3C4.34314 3 3 4.34314 3 6V16.5C3 18.1569 4.34314 19.5 6 19.5H18C19.6569 19.5 21 18.1569 21 16.5V6C21 4.34314 19.6569 3 18 3H6Z" fill="black"/>
</svg>
