<svg width="24" height="24" viewBox="0 0 24 24" fill="none" xmlns="http://www.w3.org/2000/svg">
<path fill-rule="evenodd" clip-rule="evenodd" d="M15 2H9V5H15V2ZM9 0C7.89543 0 7 0.89543 7 2V5C7 6.10457 7.89543 7 9 7H15C16.1046 7 17 6.10457 17 5V2C17 0.895431 16.1046 0 15 0H9Z" fill="black"/>
<path d="M7 5V2H5C3.34315 2 2 3.34315 2 5V21C2 22.6569 3.34315 24 5 24H19C20.6569 24 22 22.6569 22 21V5C22 3.34315 20.6569 2 19 2L17 2V5H18C18.5523 5 19 5.44772 19 6V20C19 20.5523 18.5523 21 18 21H6C5.44771 21 5 20.5523 5 20L5 6C5 5.44772 5.44772 5 6 5H7Z" fill="black"/>
</svg>
