<svg width="24" height="24" viewBox="0 0 24 24" fill="none" xmlns="http://www.w3.org/2000/svg">
<path fill-rule="evenodd" clip-rule="evenodd" d="M0 5C0 2.23858 2.23858 0 5 0C7.76142 0 10 2.23858 10 5V7H14V5C14 2.23858 16.2386 0 19 0C21.7614 0 24 2.23858 24 5C24 7.76142 21.7614 10 19 10H17V14H19C21.7614 14 24 16.2386 24 19C24 21.7614 21.7614 24 19 24C16.2386 24 14 21.7614 14 19V17H10V19C10 21.7614 7.76142 24 5 24C2.23858 24 0 21.7614 0 19C0 16.2386 2.23858 14 5 14H7V10H5C2.23858 10 0 7.76142 0 5ZM7 7V5C7 3.89543 6.10457 3 5 3C3.89543 3 3 3.89543 3 5C3 6.10457 3.89543 7 5 7H7ZM17 7H19C20.1046 7 21 6.10457 21 5C21 3.89543 20.1046 3 19 3C17.8954 3 17 3.89543 17 5V7ZM19 17H17V19C17 20.1046 17.8954 21 19 21C20.1046 21 21 20.1046 21 19C21 17.8954 20.1046 17 19 17ZM7 17H5C3.89543 17 3 17.8954 3 19C3 20.1046 3.89543 21 5 21C6.10457 21 7 20.1046 7 19V17ZM14 10H10V14H14V10Z" fill="black"/>
</svg>
