<svg width="24" height="24" viewBox="0 0 24 24" fill="none" xmlns="http://www.w3.org/2000/svg">
<path fill-rule="evenodd" clip-rule="evenodd" d="M12 9C11.4477 9 11 9.44772 11 10V20C11 20.5523 11.4477 21 12 21H20C20.5523 21 21 20.5523 21 20V10C21 9.44772 20.5523 9 20 9H12ZM10 6C8.89543 6 8 6.89543 8 8V22C8 23.1046 8.89543 24 10 24H22C23.1046 24 24 23.1046 24 22V8C24 6.89543 23.1046 6 22 6H10Z" fill="black"/>
<path d="M8 18V15H4C3.44772 15 3 14.5523 3 14V4C3 3.44772 3.44772 3 4 3H12C12.5523 3 13 3.44772 13 4V6H16V2C16 0.895431 15.1046 0 14 0H2C0.895431 0 0 0.89543 0 2V16C0 17.1046 0.895431 18 2 18H8Z" fill="black"/>
</svg>
