<svg width="24" height="24" viewBox="0 0 24 24" fill="none" xmlns="http://www.w3.org/2000/svg">
<g clip-path="url(#clip0)">
<path fill-rule="evenodd" clip-rule="evenodd" d="M1.79061 15.3517C8.21609 14.6824 13.1508 9.49495 13.1508 3.27173C13.1508 2.89878 13.1332 2.53001 13.0988 2.16612C13.0371 1.51491 13.2927 0.898748 13.7384 0.491228C14.1965 0.0723523 14.8764 -0.137144 15.5762 0.0971487C20.4672 1.73479 24 6.31657 24 11.7263C24 18.5152 18.4386 24 11.6016 24H10.8008C6.36786 24 2.47521 21.6957 0.28378 18.2292C-0.119208 17.5917 -0.0617272 16.8674 0.259688 16.3234C0.571304 15.7959 1.13309 15.4201 1.79061 15.3517Z" fill="black"/>
</g>
<defs>
<clipPath id="clip0">
<rect width="24" height="24" fill="white"/>
</clipPath>
</defs>
</svg>
