<svg width="24" height="24" viewBox="0 0 24 24" fill="none" xmlns="http://www.w3.org/2000/svg">
<path fill-rule="evenodd" clip-rule="evenodd" d="M17 3H7C6.44772 3 6 3.44772 6 4V20C6 20.5523 6.44772 21 7 21H17C17.5523 21 18 20.5523 18 20V4C18 3.44772 17.5523 3 17 3ZM7 0C4.79086 0 3 1.79086 3 4V20C3 22.2091 4.79086 24 7 24H17C19.2091 24 21 22.2091 21 20V4C21 1.79086 19.2091 0 17 0H7Z" fill="black"/>
<path d="M13.5 18C13.5 18.8284 12.8284 19.5 12 19.5C11.1716 19.5 10.5 18.8284 10.5 18C10.5 17.1716 11.1716 16.5 12 16.5C12.8284 16.5 13.5 17.1716 13.5 18Z" fill="black"/>
</svg>
