<svg width="24" height="24" viewBox="0 0 24 24" fill="none" xmlns="http://www.w3.org/2000/svg">
<path fill-rule="evenodd" clip-rule="evenodd" d="M11 20C11 20.5523 11.4477 21 12 21C12.5523 21 13 20.5523 13 20C13 19.4477 12.5523 19 12 19C11.4477 19 11 19.4477 11 20ZM12 16C9.79086 16 8 17.7909 8 20C8 22.2091 9.79086 24 12 24C14.2091 24 16 22.2091 16 20C16 17.7909 14.2091 16 12 16Z" fill="black"/>
<path fill-rule="evenodd" clip-rule="evenodd" d="M13 11V4C13 3.44772 12.5523 3 12 3C11.4477 3 11 3.44772 11 4V11C11 11.5523 11.4477 12 12 12C12.5523 12 13 11.5523 13 11ZM12 0C9.79086 0 8 1.79086 8 4V11C8 13.2091 9.79086 15 12 15C14.2091 15 16 13.2091 16 11V4C16 1.79086 14.2091 0 12 0Z" fill="black"/>
</svg>
