<svg width="24" height="24" viewBox="0 0 24 24" fill="none" xmlns="http://www.w3.org/2000/svg">
<g clip-path="url(#clip0)">
<path fill-rule="evenodd" clip-rule="evenodd" d="M0.00395453 19.392C0.063572 18.5658 0.781733 17.9442 1.60802 18.0039C8.5359 18.5037 14.7731 18.5304 22.3967 18.0036C23.2232 17.9465 23.9394 18.5702 23.9965 19.3967C24.0535 20.223 23.43 20.9393 22.6035 20.9964C14.8413 21.533 8.46286 21.5063 1.39212 20.9961C0.565839 20.9366 -0.0556627 20.2184 0.00395453 19.392Z" fill="black"/>
<path d="M5.0263 4.42795C5.24597 3.32905 6.49013 2.69043 7.5761 3.15148C13.3174 5.58906 10.7075 5.72262 16.5768 3.2511C17.6226 2.81071 18.8294 3.38499 19.1075 4.42809L20.9427 14.2954C21.2412 15.4152 20.3381 16.5 19.1075 16.5H4.89238C3.70789 16.5 2.81476 15.4906 3.03305 14.3987L5.0263 4.42795Z" fill="black"/>
</g>
<defs>
<clipPath id="clip0">
<rect width="24" height="24" fill="white"/>
</clipPath>
</defs>
</svg>
