<svg width="24" height="24" viewBox="0 0 24 24" fill="none" xmlns="http://www.w3.org/2000/svg">
<path fill-rule="evenodd" clip-rule="evenodd" d="M8 15C8 14.4477 8.44772 14 9 14H15C15.5523 14 16 14.4477 16 15C16 15.5523 15.5523 16 15 16H9C8.44772 16 8 15.5523 8 15Z" fill="black"/>
<path fill-rule="evenodd" clip-rule="evenodd" d="M22 21V8.36343L22 8.35579V7.45377C22 7.16541 21.8755 6.89108 21.6585 6.70119L14.2828 0.247428C14.1005 0.0879216 13.8665 2.01166e-06 13.6243 2.01166e-06H13.002L5 0C3.34315 0 2 1.34315 2 3V21C2 22.6569 3.34315 24 5 24H19C20.6569 24 22 22.6569 22 21ZM5 20L5 4C5 3.44772 5.44772 3 6 3H12.8446L14 4.03237L18.9004 8.41101C18.932 8.43919 18.9652 8.46531 19 8.48923V20C19 20.5523 18.5523 21 18 21H6C5.44771 21 5 20.5523 5 20Z" fill="black"/>
<path d="M14 4.03237L12.8446 3L12 3V9C12 9.55229 12.4477 10 13 10H19V8.48923C18.9652 8.46531 18.932 8.43919 18.9004 8.41101L18.4334 7.99375L14 8V4.03237Z" fill="black"/>
</svg>
