<svg width="24" height="24" viewBox="0 0 24 24" fill="none" xmlns="http://www.w3.org/2000/svg">
<path fill-rule="evenodd" clip-rule="evenodd" d="M9.87869 1.92053C9.31607 1.33112 8.55301 1 7.75735 1H3C1.34314 1 0 2.4071 0 4.14286V19.8571C0 21.5929 1.34315 23 3 23H21C22.6569 23 24 21.5929 24 19.8571V7.28571C24 5.54996 22.6569 4.14286 21 4.14286H13.2426C12.447 4.14286 11.6839 3.81174 11.1213 3.22233L9.87869 1.92053ZM3 4.14286V19.8571H21V7.28571H13.2426C11.6513 7.28571 10.1252 6.62347 9 5.44468L7.75735 4.14286H3Z" fill="black"/>
</svg>
