<svg width="24" height="24" viewBox="0 0 24 24" fill="none" xmlns="http://www.w3.org/2000/svg">
<path fill-rule="evenodd" clip-rule="evenodd" d="M0.999978 21V9.03954C0.999978 9.01319 0.998883 8.98726 0.998786 8.9609C0.998208 8.80497 1.03609 8.21543 1.61018 7.79242L11.1102 0.792416C11.6393 0.402528 12.3606 0.402528 12.8898 0.792416L22.3898 7.79242C22.9639 8.21543 23.0017 8.80497 23.0012 8.9609C23.0011 8.98726 23 9.01319 23 9.03954V21C23 22.6569 21.7688 24 20.25 24H3.74998C2.2312 24 0.999978 22.6569 0.999978 21ZM4.13667 9.96907C3.89271 10.1585 3.74998 10.45 3.74998 10.7589V20C3.74998 20.5523 4.19769 21 4.74998 21H19.25C19.8023 21 20.25 20.5523 20.25 20V10.7589C20.25 10.45 20.1072 10.1585 19.8633 9.96907L12.6133 4.33946C12.2524 4.05925 11.7475 4.05925 11.3867 4.33946L4.13667 9.96907Z" fill="black"/>
</svg>
