<svg width="24" height="24" viewBox="0 0 24 24" fill="none" xmlns="http://www.w3.org/2000/svg">
<path fill-rule="evenodd" clip-rule="evenodd" d="M1.00001 21V9.03954C1.00001 9.01319 0.998914 8.98726 0.998816 8.9609C0.998238 8.80497 1.03612 8.21543 1.61021 7.79242L11.1102 0.792416C11.6393 0.402528 12.3607 0.402528 12.8898 0.792416L22.3898 7.79242C22.9639 8.21543 23.0018 8.80497 23.0012 8.9609C23.0011 8.98726 23 9.01319 23 9.03954V21C23 22.6569 21.7688 24 20.25 24H3.75001C2.23123 24 1.00001 22.6569 1.00001 21ZM4.1367 9.96907C3.89274 10.1585 3.75001 10.45 3.75001 10.7589V20C3.75001 20.5523 4.19773 21 4.75001 21H19.25C19.8023 21 20.25 20.5523 20.25 20V10.7589C20.25 10.45 20.1073 10.1585 19.8633 9.96907L12.6133 4.33946C12.2525 4.05925 11.7476 4.05925 11.3867 4.33946L4.1367 9.96907Z" fill="black"/>
<path d="M10 21V14C10 13.4477 10.4477 13 11 13H13C13.5523 13 14 13.4477 14 14V21H17V12.5455C17 11.1396 16.1046 10 15 10H9.00001C7.89544 10 7.00001 11.1396 7.00001 12.5455V21H10Z" fill="black"/>
</svg>
