<svg width="24" height="24" viewBox="0 0 24 24" fill="none" xmlns="http://www.w3.org/2000/svg">
<path d="M4.93367 16.4411C5.1773 15.6493 4.73292 14.81 3.94113 14.5663C3.14934 14.3227 2.30996 14.7671 2.06633 15.5589L4.93367 16.4411ZM1.89818 21.2059L0.464512 20.7648L0.464512 20.7648L1.89818 21.2059ZM22.1018 21.2059L20.6682 21.647L20.6682 21.647L22.1018 21.2059ZM21.9337 15.5589C21.69 14.7671 20.8507 14.3227 20.0589 14.5663C19.2671 14.81 18.8227 15.6493 19.0663 16.4411L21.9337 15.5589ZM2.06633 15.5589L0.464512 20.7648L3.33185 21.647L4.93367 16.4411L2.06633 15.5589ZM2.85396 24H21.146V21H2.85396V24ZM23.5355 20.7648L21.9337 15.5589L19.0663 16.4411L20.6682 21.647L23.5355 20.7648ZM21.146 24C22.8281 24 24.0301 22.3724 23.5355 20.7648L20.6682 21.647C20.5692 21.3255 20.8096 21 21.146 21V24ZM0.464512 20.7648C-0.0301443 22.3724 1.17195 24 2.85396 24V21C3.19036 21 3.43078 21.3255 3.33185 21.647L0.464512 20.7648Z" fill="black"/>
<path d="M5 3.5H19C19.8284 3.5 20.5 4.17157 20.5 5V15.5H3.5V5C3.5 4.17157 4.17157 3.5 5 3.5Z" stroke="black" stroke-width="3"/>
</svg>
