<svg width="24" height="24" viewBox="0 0 24 24" fill="none" xmlns="http://www.w3.org/2000/svg">
<path d="M2 11.2C2 9.43269 3.49238 8 5.33333 8H18.6667C20.5077 8 22 9.43269 22 11.2V20.8C22 22.5674 20.5077 24 18.6667 24H5.33333C3.49238 24 2 22.5674 2 20.8V11.2Z" fill="black"/>
<path d="M18 6.4V8C18 8 15.3137 8 12 8C8.68629 8 6 8 6 8V6.4C6 2.86538 8.68629 0 12 0C15.3137 0 18 2.86538 18 6.4ZM12 3.2C10.3431 3.2 9 4.63269 9 6.4V8C9 8 10.3431 8 12 8C13.6569 8 15 8 15 8V6.4C15 4.63269 13.6569 3.2 12 3.2Z" fill="black"/>
</svg>
