<svg width="24" height="24" viewBox="0 0 24 24" fill="none" xmlns="http://www.w3.org/2000/svg">
<g clip-path="url(#clip0)">
<path d="M21.0814 8.99397L6.07534 24H18.6667C20.5077 24 22 22.5674 22 20.8V11.2C22 10.3448 21.6506 9.56803 21.0814 8.99397Z" fill="black"/>
<path d="M12 0C8.68631 0 6.00002 2.86538 6.00002 6.4V8H5.33336C3.49241 8 2.00002 9.43269 2.00002 11.2L2 20L13.9297 8H9.00002V6.4C9.00002 4.63269 10.3432 3.2 12 3.2C13.6569 3.2 15 4.63269 15 6.4L15 7L17.6667 4.29135C16.8496 1.79272 14.6211 0 12 0Z" fill="black"/>
<path d="M20.887 1.03766L1.03766 20.887C0.464575 21.4601 0.464575 22.3893 1.03766 22.9623C1.61074 23.5354 2.53989 23.5354 3.11297 22.9623L22.9623 3.11297C23.5354 2.53989 23.5354 1.61074 22.9623 1.03766C22.3893 0.464576 21.4601 0.464576 20.887 1.03766Z" fill="#FF4752"/>
</g>
<defs>
<clipPath id="clip0">
<rect width="24" height="24" fill="white"/>
</clipPath>
</defs>
</svg>
