<svg width="24" height="24" viewBox="0 0 24 24" fill="none" xmlns="http://www.w3.org/2000/svg">
<path fill-rule="evenodd" clip-rule="evenodd" d="M0 3C0 1.34315 1.34315 0 3 0H21C22.6569 0 24 1.34315 24 3V15C24 16.6569 22.6569 18 21 18H13.5V20.5H17C17.8284 20.5 18.5 21.1716 18.5 22C18.5 22.8284 17.8284 23.5 17 23.5H7C6.17157 23.5 5.5 22.8284 5.5 22C5.5 21.1716 6.17157 20.5 7 20.5H10.5V18H3C1.34315 18 0 16.6569 0 15V3ZM20 3H4C3.44772 3 3 3.44772 3 4V14C3 14.5523 3.44772 15 4 15H20C20.5523 15 21 14.5523 21 14V4C21 3.44772 20.5523 3 20 3Z" fill="black"/>
</svg>
