<svg width="24" height="24" viewBox="0 0 24 24" fill="none" xmlns="http://www.w3.org/2000/svg">
<path fill-rule="evenodd" clip-rule="evenodd" d="M18 15V9C18 5.68629 15.3137 3 12 3C8.68629 3 6 5.68629 6 9V15C6 18.3137 8.68629 21 12 21C15.3137 21 18 18.3137 18 15ZM12 0C7.02944 0 3 4.02944 3 9V15C3 19.9706 7.02944 24 12 24C16.9706 24 21 19.9706 21 15V9C21 4.02944 16.9706 0 12 0Z" fill="black"/>
<path d="M18 10V9C18 8.65929 17.9716 8.32521 17.917 8H13V3.08296C12.6748 3.0284 12.3407 3 12 3C11.6593 3 11.3252 3.0284 11 3.08296V8H6.08296C6.0284 8.32521 6 8.65929 6 9V10H18Z" fill="black"/>
</svg>
