<svg width="24" height="24" viewBox="0 0 24 24" fill="none" xmlns="http://www.w3.org/2000/svg">
<path fill-rule="evenodd" clip-rule="evenodd" d="M12 24C11.3975 24 10.9091 23.4963 10.9091 22.875V15.841L9.8623 16.9204C9.43626 17.3598 8.74555 17.3598 8.31953 16.9204C7.89349 16.4811 7.89349 15.7689 8.31953 15.3295L11.2286 12.3295C11.4332 12.1185 11.7107 12 12 12C12.2893 12 12.5668 12.1185 12.7714 12.3295L15.6805 15.3295C16.1065 15.7689 16.1065 16.4811 15.6805 16.9204C15.2544 17.3598 14.5637 17.3598 14.1377 16.9204L13.0909 15.841V22.875C13.0909 23.4963 12.6025 24 12 24Z" fill="black"/>
<path fill-rule="evenodd" clip-rule="evenodd" d="M4 5H20C20.5523 5 21 5.44772 21 6V17C21 17.5523 20.5523 18 20 18H19.5C18.6716 18 18 18.6716 18 19.5C18 20.3284 18.6716 21 19.5 21H20C22.2091 21 24 19.2091 24 17V6C24 3.79086 22.2091 2 20 2H4C1.79086 2 0 3.79086 0 6V17C0 19.2091 1.79086 21 4 21H4.5C5.32843 21 6 20.3284 6 19.5C6 18.6716 5.32843 18 4.5 18H4C3.44772 18 3 17.5523 3 17V6C3 5.44772 3.44771 5 4 5Z" fill="black"/>
</svg>
