<svg width="24" height="24" viewBox="0 0 24 24" fill="none" xmlns="http://www.w3.org/2000/svg">
<path fill-rule="evenodd" clip-rule="evenodd" d="M0 1.5C0 0.671573 0.671573 0 1.5 0H9.5C10.1946 0 10.7983 0.476867 10.9592 1.15257L15.6848 21H22.5C23.3284 21 24 21.6716 24 22.5C24 23.3284 23.3284 24 22.5 24H14.5C13.8054 24 13.2017 23.5231 13.0408 22.8474L8.31521 3H1.5C0.671573 3 0 2.32843 0 1.5Z" fill="black"/>
<path fill-rule="evenodd" clip-rule="evenodd" d="M15 1.5C15 0.671573 15.6716 0 16.5 0H22.5C23.3284 0 24 0.671573 24 1.5C24 2.32843 23.3284 3 22.5 3H16.5C15.6716 3 15 2.32843 15 1.5Z" fill="black"/>
</svg>
