<svg width="24" height="24" viewBox="0 0 24 24" fill="none" xmlns="http://www.w3.org/2000/svg">
<path fill-rule="evenodd" clip-rule="evenodd" d="M15 10C14.4477 10 14 10.4477 14 11V20C14 20.5523 14.4477 21 15 21H20C20.5523 21 21 20.5523 21 20V11C21 10.4477 20.5523 10 20 10H15ZM13 7C11.8954 7 11 7.89543 11 9V22C11 23.1046 11.8954 24 13 24H22C23.1046 24 24 23.1046 24 22V9C24 7.89543 23.1046 7 22 7H13Z" fill="black"/>
<path fill-rule="evenodd" clip-rule="evenodd" d="M4.5 1.83333C4.5 0.820811 5.30589 0 6.3 0H11.7C12.6941 0 13.5 0.820811 13.5 1.83333L15.3 1.83333C16.7912 1.83333 18 3.06455 18 4.58333V7H15.3V5.5C15.3 4.99374 14.8971 4.58333 14.4 4.58333H13.5C13.5 5.59586 12.6941 6.41667 11.7 6.41667H6.3C5.30589 6.41667 4.5 5.59586 4.5 4.58333H3.6C3.10294 4.58333 2.7 4.99374 2.7 5.5L2.7 18.3333C2.7 18.8396 3.10294 19.25 3.6 19.25H11V22H2.7C1.20883 22 0 20.7688 0 19.25V4.58333C0 3.06455 1.20883 1.83333 2.7 1.83333H4.5ZM6.3 1.83333H11.7V4.58333H6.3V1.83333Z" fill="black"/>
</svg>
