<svg width="24" height="24" viewBox="0 0 24 24" fill="none" xmlns="http://www.w3.org/2000/svg">
<path fill-rule="evenodd" clip-rule="evenodd" d="M4.5 1.5V7.5H3C1.34315 7.5 0 8.84314 0 10.5V16.5C0 17.3284 0.671572 18 1.5 18H4.5V22.5C4.5 23.3284 5.17158 24 6 24H18C18.8284 24 19.5 23.3284 19.5 22.5V18H22.5C23.3284 18 24 17.3284 24 16.5V10.5C24 8.84314 22.6569 7.5 21 7.5H19.5V1.5C19.5 0.671572 18.8284 0 18 0H6C5.17158 0 4.5 0.671572 4.5 1.5ZM6.75 2.25V7.5H17.25V2.25H6.75ZM17.25 14.25H6.75V21.75H17.25V14.25Z" fill="black"/>
</svg>
