<svg width="24" height="24" viewBox="0 0 24 24" fill="none" xmlns="http://www.w3.org/2000/svg">
<g clip-path="url(#clip0)">
<path d="M7.48164 4.10738C9.11546 3.17333 10.9921 2.81768 12.831 3.08813C14.6703 3.35862 16.3839 4.24275 17.7102 5.61872C18.2881 6.21839 18.8541 6.89625 19.3288 7.50002H18.4712H15.0005C14.6026 7.50002 14.2211 7.65804 13.9398 7.93935C13.6585 8.22066 13.5004 8.60219 13.5004 9.00002C13.5004 9.39783 13.6585 9.77937 13.9398 10.0607C14.2211 10.342 14.6026 10.5 15.0005 10.5H22.5005C22.8983 10.5 23.2799 10.342 23.5611 10.0607C23.8424 9.77937 24.0004 9.39783 24.0004 9.00002V1.50002C24.0004 1.10219 23.8424 0.720654 23.5611 0.43935C23.2799 0.158045 22.8983 1.00508e-05 22.5005 1.00508e-05C22.1027 1.00508e-05 21.721 0.158045 21.4398 0.43935C21.1584 0.720654 21.0005 1.10219 21.0005 1.50002V4.79966C20.6472 4.37892 20.2647 3.9461 19.8702 3.53678C18.0923 1.69212 15.7761 0.488973 13.2675 0.120044C10.7585 -0.24895 8.20449 0.23847 5.9927 1.50294C3.78194 2.76683 2.03759 4.73523 1.0123 7.1025C-0.0127282 9.46916 -0.267106 12.1134 0.284738 14.6396C0.836657 17.1662 2.16753 19.4477 4.08756 21.1355C6.00849 22.8242 8.41459 23.8259 10.9448 23.9793C13.4752 24.1328 15.9802 23.4288 18.0817 21.9813C18.1161 21.9576 18.1497 21.9324 18.1821 21.9059L17.2308 20.7461L18.1821 21.9057H18.1823L18.1826 21.9054L18.1836 21.9045L18.1873 21.9014L18.2013 21.89L18.2531 21.8474C18.2976 21.8105 18.3615 21.7575 18.4406 21.6917C18.5982 21.5601 18.8166 21.3767 19.0594 21.1689C19.5339 20.7629 20.1405 20.2308 20.5606 19.8107C21.1464 19.2249 21.1464 18.2751 20.5606 17.6894C19.9749 17.1036 19.0251 17.1036 18.4394 17.6894C18.1095 18.0192 17.5815 18.4851 17.1089 18.8897C16.8782 19.0871 16.6698 19.262 16.5194 19.3875C16.4441 19.4502 16.3836 19.5005 16.3421 19.5347L16.3288 19.5456C14.7832 20.594 12.9597 21.096 11.1264 20.9849C9.27266 20.8724 7.49689 20.1381 6.06826 18.8823C4.63872 17.6256 3.63378 15.9135 3.21562 13.9993C2.79739 12.0848 2.99124 10.0818 3.76518 8.29481C4.53888 6.50847 5.84679 5.04201 7.48164 4.10738Z" fill="black"/>
</g>
<defs>
<clipPath id="clip0">
<rect width="24" height="24" fill="white"/>
</clipPath>
</defs>
</svg>
