<svg width="24" height="24" viewBox="0 0 24 24" fill="none" xmlns="http://www.w3.org/2000/svg">
<path fill-rule="evenodd" clip-rule="evenodd" d="M12 21C16.9706 21 21 16.9706 21 12C21 7.02944 16.9706 3 12 3C7.02944 3 3 7.02944 3 12C3 16.9706 7.02944 21 12 21ZM12 24C18.6274 24 24 18.6274 24 12C24 5.37258 18.6274 0 12 0C5.37258 0 0 5.37258 0 12C0 18.6274 5.37258 24 12 24Z" fill="black"/>
<path d="M10 9.5C10 10.3284 9.32843 11 8.5 11C7.67157 11 7 10.3284 7 9.5C7 8.67157 7.67157 8 8.5 8C9.32843 8 10 8.67157 10 9.5Z" fill="black"/>
<path d="M17 9.5C17 10.3284 16.3284 11 15.5 11C14.6716 11 14 10.3284 14 9.5C14 8.67157 14.6716 8 15.5 8C16.3284 8 17 8.67157 17 9.5Z" fill="black"/>
<path fill-rule="evenodd" clip-rule="evenodd" d="M17.1713 16.437C16.6538 17.0839 15.7099 17.1888 15.063 16.6713C14.0469 15.8585 12.9955 15.5 12 15.5C11.0045 15.5 9.95311 15.8585 8.93704 16.6713C8.29015 17.1888 7.34621 17.0839 6.8287 16.437C6.31118 15.7901 6.41606 14.8462 7.06296 14.3287C8.54689 13.1415 10.2455 12.5 12 12.5C13.7545 12.5 15.4531 13.1415 16.937 14.3287C17.5839 14.8462 17.6888 15.7901 17.1713 16.437Z" fill="black"/>
</svg>
