<svg width="24" height="24" viewBox="0 0 24 24" fill="none" xmlns="http://www.w3.org/2000/svg">
<g clip-path="url(#clip0)">
<path fill-rule="evenodd" clip-rule="evenodd" d="M4.5 0C2.01473 0 0 2.01473 0 4.5V19.5C0 21.9854 2.01473 24 4.5 24H19.5C21.9854 24 24 21.9854 24 19.5L24.0001 6L18.0002 0H4.5ZM18 4.24256L21 7.24256V19.5C21 20.3284 20.3284 21 19.5 21H18V13.5C18 12.6716 17.3284 12 16.5 12H7.5C6.67158 12 6 12.6716 6 13.5V21H4.5C3.67158 21 3 20.3284 3 19.5V4.5C3 3.67158 3.67158 3 4.5 3H6V7.5C6 8.32842 6.67158 9 7.5 9H16.5C17.3284 9 18 8.32842 18 7.5V4.24256ZM15 21V15H9V21H15ZM9 3H15V6H9V3Z" fill="black"/>
</g>
<defs>
<clipPath id="clip0">
<rect width="24" height="24" fill="white"/>
</clipPath>
</defs>
</svg>
