<svg width="24" height="24" viewBox="0 0 24 24" fill="none" xmlns="http://www.w3.org/2000/svg">
<path d="M10.5 3C6.35787 3 3 6.35787 3 10.5C3 14.6421 6.35787 18 10.5 18C14.6421 18 18 14.6421 18 10.5C18 6.35787 14.6421 3 10.5 3ZM0 10.5C0 4.70101 4.70101 0 10.5 0C16.299 0 21 4.70101 21 10.5C21 16.299 16.299 21 10.5 21C4.70101 21 0 16.299 0 10.5Z" fill="black"/>
<path d="M18.75 16.98L23.5606 21.4393C24.1464 22.0251 24.1464 22.9749 23.5606 23.5606C22.9749 24.1464 22.0251 24.1464 21.4393 23.5606L16.5 19.125L18.75 16.98Z" fill="black"/>
</svg>
