<svg width="24" height="24" viewBox="0 0 24 24" fill="none" xmlns="http://www.w3.org/2000/svg">
<path fill-rule="evenodd" clip-rule="evenodd" d="M8 3H18C18.5523 3 19 3.44772 19 4V20C19 20.5523 18.5523 21 18 21H8C7.44772 21 7 20.5523 7 20V19.5C7 18.6716 6.32843 18 5.5 18C4.67157 18 4 18.6716 4 19.5V20C4 22.2091 5.79086 24 8 24H18C20.2091 24 22 22.2091 22 20V4C22 1.79086 20.2091 0 18 0H8C5.79086 0 4 1.79086 4 4V4.5C4 5.32843 4.67157 6 5.5 6C6.32843 6 7 5.32843 7 4.5V4C7 3.44772 7.44772 3 8 3ZM13 19.5C13.8284 19.5 14.5 18.8284 14.5 18C14.5 17.1716 13.8284 16.5 13 16.5C12.1716 16.5 11.5 17.1716 11.5 18C11.5 18.8284 12.1716 19.5 13 19.5Z" fill="black"/>
<path fill-rule="evenodd" clip-rule="evenodd" d="M0 12C0 11.3975 0.503701 10.9091 1.125 10.9091H8.15896L7.07956 9.8623C6.64021 9.43626 6.64021 8.74555 7.07956 8.31953C7.51891 7.89349 8.23111 7.89349 8.67049 8.31953L11.6705 11.2286C11.8815 11.4332 12 11.7107 12 12C12 12.2893 11.8815 12.5668 11.6705 12.7714L8.67049 15.6805C8.23111 16.1065 7.51891 16.1065 7.07956 15.6805C6.64021 15.2544 6.64021 14.5637 7.07956 14.1377L8.15896 13.0909H1.125C0.503701 13.0909 0 12.6025 0 12Z" fill="black"/>
</svg>
