<svg width="24" height="24" viewBox="0 0 24 24" fill="none" xmlns="http://www.w3.org/2000/svg">
<g clip-path="url(#clip0)">
<path fill-rule="evenodd" clip-rule="evenodd" d="M12.506 0.10257C12.344 0.034602 12.1725 1.50543e-05 12 4.89892e-09C11.8318 -1.46477e-05 11.6628 0.0328398 11.501 0.0996676L11.494 0.102569L3.92209 3.2301C3.36744 3.45919 3 4.04321 3 4.69566V12C3 14.5938 4.05306 16.8099 5.34783 18.5628L13.4211 10.4896V3.82383L18.1383 5.77229L20.451 3.45967C20.3397 3.36447 20.2144 3.28653 20.0779 3.2301L12.506 0.10257ZM21 8.34351L18.1579 11.1856V12C18.1579 14.4317 16.6635 16.6429 14.8537 18.3873C14.3653 18.858 13.8749 19.2741 13.4211 19.6298V15.9225L7.96504 21.3785C8.74095 22.061 9.4788 22.6101 10.0626 23.0121C10.4417 23.2731 10.7597 23.4746 10.9861 23.6126C11.0994 23.6817 11.1901 23.7351 11.2543 23.7721C11.2865 23.7907 11.312 23.8053 11.3305 23.8158L11.353 23.8284L11.3552 23.8296L11.3601 23.8323L11.3645 23.8347C11.7698 24.0579 12.2451 24.0539 12.6448 23.8296L12.647 23.8284L12.6695 23.8158C12.688 23.8053 12.7135 23.7907 12.7457 23.7721C12.8099 23.7351 12.9006 23.6817 13.0139 23.6126C13.2403 23.4746 13.5583 23.2731 13.9374 23.0121C14.6926 22.4922 15.7056 21.7259 16.7253 20.7432C18.7048 18.8352 21 15.8292 21 12V8.34351Z" fill="black"/>
<path d="M0.408028 23.4712C-0.177758 22.8855 -0.177758 21.9357 0.408028 21.3499L20.6974 1.06062C21.2832 0.474831 22.233 0.47483 22.8187 1.06062C23.4045 1.64641 23.4045 2.59615 22.8187 3.18194L2.52935 23.4712C1.94357 24.0571 0.993814 24.0571 0.408028 23.4712Z" fill="#FF4752"/>
</g>
<defs>
<clipPath id="clip0">
<rect width="24" height="24" fill="white"/>
</clipPath>
</defs>
</svg>
