<svg width="16" height="16" viewBox="0 0 16 16" fill="none" xmlns="http://www.w3.org/2000/svg">
<path fill-rule="evenodd" clip-rule="evenodd" d="M7.66267 0.0683796C7.77065 0.023068 7.88503 1.00714e-05 8 4.00519e-09C8.11497 1.00297e-05 8.22935 0.023068 8.33733 0.0683796L13.3853 2.1534C13.755 2.30613 14 2.69547 14 3.13044V8C14 10.5528 12.4699 12.5568 11.1502 13.8288C10.4704 14.4839 9.79507 14.9948 9.29158 15.3414C9.03885 15.5154 8.82688 15.6497 8.67593 15.7417C8.60039 15.7878 8.53995 15.8234 8.49711 15.8481C8.47569 15.8605 8.45865 15.8702 8.44631 15.8772L8.43136 15.8856L8.42985 15.8864C8.16338 16.0359 7.84653 16.0386 7.57632 15.8898L7.57341 15.8882L7.57015 15.8864L7.56864 15.8856L7.55369 15.8772C7.54135 15.8702 7.52431 15.8605 7.50289 15.8481C7.46005 15.8234 7.39961 15.7878 7.32407 15.7417C7.17312 15.6497 6.96115 15.5154 6.70842 15.3414C6.20493 14.9948 5.52962 14.4839 4.84984 13.8288C3.53008 12.5568 2 10.5528 2 8V3.13044C2 2.69547 2.24496 2.30613 2.61473 2.1534L7.66267 0.0683796ZM8 4.00519e-09C7.88503 1.00714e-05 7.77065 0.023068 7.66267 0.0683796L7.66736 0.0664451C7.77522 0.0218932 7.88789 -9.77166e-06 8 4.00519e-09ZM8.94737 13.0865C9.24993 12.8494 9.57689 12.572 9.90247 12.2582C11.109 11.0953 12.1053 9.62111 12.1053 8V3.85357L8.94737 2.54922V13.0865Z" fill="black"/>
</svg>
