<svg width="24" height="24" viewBox="0 0 24 24" fill="none" xmlns="http://www.w3.org/2000/svg">
<path fill-rule="evenodd" clip-rule="evenodd" d="M12 21C16.9706 21 21 16.9706 21 12C21 7.02944 16.9706 3 12 3C7.02944 3 3 7.02944 3 12C3 16.9706 7.02944 21 12 21ZM12 24C18.6274 24 24 18.6274 24 12C24 5.37258 18.6274 0 12 0C5.37258 0 0 5.37258 0 12C0 18.6274 5.37258 24 12 24Z" fill="black"/>
<path d="M10 9.5C10 10.3284 9.32843 11 8.5 11C7.67157 11 7 10.3284 7 9.5C7 8.67157 7.67157 8 8.5 8C9.32843 8 10 8.67157 10 9.5Z" fill="black"/>
<path d="M17 9.5C17 10.3284 16.3284 11 15.5 11C14.6716 11 14 10.3284 14 9.5C14 8.67157 14.6716 8 15.5 8C16.3284 8 17 8.67157 17 9.5Z" fill="black"/>
<path fill-rule="evenodd" clip-rule="evenodd" d="M6.8287 14.063C7.34621 13.4161 8.29015 13.3112 8.93704 13.8287C9.9531 14.6415 11.0045 15 12 15C12.9955 15 14.0469 14.6415 15.063 13.8287C15.7098 13.3112 16.6538 13.4161 17.1713 14.063C17.6888 14.7099 17.5839 15.6538 16.937 16.1713C15.4531 17.3585 13.7545 18 12 18C10.2455 18 8.54689 17.3585 7.06296 16.1713C6.41606 15.6538 6.31118 14.7099 6.8287 14.063Z" fill="black"/>
</svg>
