<svg width="24" height="24" viewBox="0 0 24 24" fill="none" xmlns="http://www.w3.org/2000/svg">
<g clip-path="url(#clip0)">
<path fill-rule="evenodd" clip-rule="evenodd" d="M12 0C12.5928 0 13.13 0.349101 13.3707 0.890793L16.0554 6.93138L22.7942 8.27913C23.3192 8.38412 23.7483 8.76089 23.9204 9.2678C24.0926 9.77469 23.9814 10.3349 23.6289 10.7378L18.867 16.1801L20.0816 22.2035C20.1929 22.7556 19.9855 23.3235 19.5448 23.6739C19.1041 24.0245 18.5041 24.0987 17.9913 23.8659L12.0409 21.1658L6.85272 23.834C6.36036 24.0872 5.76855 24.0486 5.31324 23.7336C4.85793 23.4185 4.61318 22.8783 4.67655 22.3282L5.37645 16.2541L0.389188 10.758C0.0262057 10.358 -0.0936672 9.79366 0.0753538 9.28063C0.244375 8.7676 0.676183 8.38506 1.20585 8.27913L7.9446 6.93138L10.6293 0.890793C10.8701 0.349101 11.4072 0 12 0ZM12 5.19331L10.3707 8.85921C10.173 9.30412 9.77163 9.62538 9.29421 9.72087L4.38926 10.7019L8.05532 14.742C8.34585 15.0622 8.4841 15.4922 8.43462 15.9218L7.97834 19.8816L11.314 18.166C11.7216 17.9565 12.2025 17.9447 12.6199 18.1341L16.5612 19.9226L15.7796 16.0465C15.6873 15.5886 15.8136 15.1139 16.1211 14.7623L19.6646 10.7126L14.7058 9.72087C14.2284 9.62538 13.827 9.30412 13.6293 8.85921L12 5.19331Z" fill="black"/>
</g>
<defs>
<clipPath id="clip0">
<rect width="24" height="24" fill="white"/>
</clipPath>
</defs>
</svg>
