<svg width="24" height="24" viewBox="0 0 24 24" fill="none" xmlns="http://www.w3.org/2000/svg">
<g clip-path="url(#clip0)">
<path fill-rule="evenodd" clip-rule="evenodd" d="M0 8.68088C0 6.98877 1.34315 5.61705 3 5.61705L8.45692 5.61704L5.03972 2.7088C4.40331 2.16717 4.31732 1.2012 4.84767 0.551244C5.37801 -0.0987107 6.32386 -0.186526 6.96028 0.355103L11.941 4.69443L17.0397 0.355103C17.6761 -0.186526 18.622 -0.0987107 19.1523 0.551244C19.6827 1.2012 19.5967 2.16717 18.9603 2.7088L15.5 5.61704L21 5.61705C22.6569 5.61705 24 6.98877 24 8.68087V20.9362C24 22.6283 22.6569 24 21 24H3C1.34315 24 0 22.6283 0 20.9362V8.68088ZM20 8.68087H4C3.44772 8.68087 3 9.13811 3 9.70215V19.9149C3 20.4789 3.44772 20.9362 4 20.9362H20C20.5523 20.9362 21 20.4789 21 19.9149V9.70215C21 9.13811 20.5523 8.68087 20 8.68087Z" fill="black"/>
</g>
<defs>
<clipPath id="clip0">
<rect width="24" height="24" fill="white"/>
</clipPath>
</defs>
</svg>
