<svg width="24" height="24" viewBox="0 0 24 24" fill="none" xmlns="http://www.w3.org/2000/svg">
<path fill-rule="evenodd" clip-rule="evenodd" d="M20.9617 1.16222C21.0432 1.51392 20.9934 1.88157 20.829 2.19632C20.7139 2.41647 20.5426 2.61073 20.3209 2.75557C20.3059 2.76544 20.2906 2.77506 20.2752 2.78439C18.1233 4.11075 17.3401 5.56605 17.34 6.9379C17.34 7.05567 17.3457 7.17612 17.3572 7.29918L14.9525 9.86432C14.553 8.90104 14.3398 7.92213 14.34 6.93752C14.3402 5.4902 14.7983 4.16985 15.6285 3H8.47602C9.3115 4.18911 9.72171 5.53348 9.65478 7.00587C9.57765 8.70273 8.86756 10.3864 7.73883 12H12.9503L10.1378 15H4.5279C4.13479 15.0072 3.73938 14.8609 3.43941 14.5609C3.28755 14.409 3.17505 14.2327 3.10192 14.0446C3.03612 13.8758 3 13.6921 3 13.5C3 13.0766 3.17545 12.6941 3.45762 12.4214C5.59755 10.2763 6.58963 8.37087 6.65787 6.86964C6.71838 5.53839 6.05878 4.12243 3.76864 2.80993C3.74686 2.79775 3.72543 2.78504 3.70432 2.77182C3.48088 2.6322 3.30625 2.44231 3.18673 2.22537C3.08715 2.04546 3.02346 1.8429 3.00534 1.62739C2.99341 1.48875 3.00069 1.34778 3.02827 1.20863C3.078 0.956085 3.1911 0.726286 3.35032 0.536493C3.43209 0.438714 3.52471 0.353371 3.62538 0.281241C3.87159 0.104239 4.1751 0 4.50148 0H19.5C19.8052 0 20.0892 0.0911574 20.326 0.247731C20.4471 0.327433 20.5578 0.425616 20.6536 0.541188C20.8009 0.718338 20.9083 0.929976 20.9617 1.16222ZM10.5 19.0001V22.5C10.5 23.3284 11.1716 24 12 24C12.8284 24 13.5 23.3284 13.5 22.5V15.8L10.5 19.0001ZM14.25 15H19.4739C19.8868 15.007 20.3008 14.8445 20.6028 14.5169C20.7532 14.3538 20.8605 14.1664 20.9254 13.9685C20.9737 13.8211 21 13.6636 21 13.5C21 13.2388 20.9332 12.9931 20.8158 12.7792C20.7748 12.7046 20.7273 12.6329 20.6728 12.5648C20.6203 12.4991 20.5624 12.4378 20.4997 12.3818C19.7236 11.6645 19.1101 10.9746 18.6384 10.3191L14.25 15Z" fill="black"/>
<path d="M0.43934 22.9394C-0.146447 22.3536 -0.146447 21.404 0.43934 20.8181L20.818 0.439462C21.4038 -0.146324 22.3536 -0.146325 22.9393 0.439462C23.5251 1.02525 23.5251 1.97499 22.9393 2.56078L2.56067 22.9394C1.97487 23.5253 1.02513 23.5253 0.43934 22.9394Z" fill="#FF4752"/>
</svg>
