<svg width="24" height="24" viewBox="0 0 24 24" fill="none" xmlns="http://www.w3.org/2000/svg">
<path fill-rule="evenodd" clip-rule="evenodd" d="M10.5 19V22.5C10.5 23.3284 11.1715 24 12 24C12.8284 24 13.5 23.3284 13.5 22.5V15.8L10.5 19ZM14.25 15H19.4739C19.8868 15.007 20.3008 14.8445 20.6028 14.5169C20.7532 14.3538 20.8605 14.1664 20.9254 13.9685C20.9737 13.8211 21 13.6636 21 13.5C21 13.2388 20.9332 12.9931 20.8158 12.7792C20.7748 12.7046 20.7273 12.6329 20.6728 12.5648C20.6203 12.4991 20.5624 12.4378 20.4997 12.3818C19.7236 11.6645 19.1101 10.9746 18.6384 10.3191L14.25 15Z" fill="black"/>
<path d="M0.43934 22.9394C-0.146447 22.3537 -0.146447 21.404 0.43934 20.8181L6.25747 15L9.25748 12L14.34 6.91752L20.818 0.439492C21.4038 -0.146295 22.3536 -0.146295 22.9393 0.439492C23.5251 1.02528 23.5251 1.97502 22.9393 2.56081L2.56067 22.9394C1.97487 23.5253 1.02513 23.5253 0.43934 22.9394Z" fill="black"/>
<path d="M15.6285 3C14.8021 4.16446 14.3444 5.47803 14.34 6.91752L20.6854 0.572109C20.5895 0.456537 20.4471 0.327433 20.326 0.247731C20.0892 0.0911574 19.8052 0 19.5 0H4.50146C4.17507 0 3.87156 0.104239 3.62535 0.281241C3.52469 0.353372 3.43206 0.438714 3.3503 0.536493C3.19107 0.726286 3.07797 0.956085 3.02825 1.20863C3.00066 1.34778 2.99339 1.48875 3.00531 1.62739C3.02343 1.8429 3.08712 2.04546 3.18671 2.22537C3.30623 2.44232 3.48086 2.6322 3.7043 2.77182C3.7254 2.78503 3.74684 2.79776 3.76862 2.80993C6.05876 4.12244 6.71835 5.53839 6.65784 6.86964C6.58961 8.37087 5.59752 10.2763 3.45759 12.4214C3.17543 12.6941 2.99997 13.0766 2.99997 13.5C2.99997 13.6921 3.03609 13.8758 3.1019 14.0446C3.17502 14.2327 3.28752 14.409 3.43938 14.5609C3.73935 14.8609 4.13477 15.0072 4.52787 15H6.25747L9.25748 12H7.7388C8.86754 10.3864 9.57762 8.70273 9.65475 7.00587C9.72168 5.53348 9.31148 4.18911 8.47599 3H15.6285Z" fill="black"/>
</svg>
