<svg width="24" height="24" viewBox="0 0 24 24" fill="none" xmlns="http://www.w3.org/2000/svg">
<path fill-rule="evenodd" clip-rule="evenodd" d="M12 21C16.9706 21 21 16.9706 21 12C21 7.02944 16.9706 3 12 3C7.02944 3 3 7.02944 3 12C3 16.9706 7.02944 21 12 21ZM12 24C18.6274 24 24 18.6274 24 12C24 5.37258 18.6274 0 12 0C5.37258 0 0 5.37258 0 12C0 18.6274 5.37258 24 12 24Z" fill="black"/>
<path fill-rule="evenodd" clip-rule="evenodd" d="M12 10C12.5523 10 13 9.55228 13 9C13 8.44772 12.5523 8 12 8C11.4477 8 11 8.44772 11 9C11 9.55228 11.4477 10 12 10ZM12 12C13.6569 12 15 10.6569 15 9C15 7.34315 13.6569 6 12 6C10.3431 6 9 7.34315 9 9C9 10.6569 10.3431 12 12 12Z" fill="black"/>
<path d="M13 14.7778H11C10.4477 14.7778 10 15.1757 10 15.6667V16C10 16.5523 9.55228 17 9 17C8.44772 17 8 16.5523 8 16V15.6667C8 14.1939 9.34315 13 11 13H13C14.6569 13 16 14.1939 16 15.6667V16C16 16.5523 15.5523 17 15 17C14.4477 17 14 16.5523 14 16V15.6667C14 15.1757 13.5523 14.7778 13 14.7778Z" fill="black"/>
</svg>
