<svg width="24" height="24" viewBox="0 0 24 24" fill="none" xmlns="http://www.w3.org/2000/svg">
<path fill-rule="evenodd" clip-rule="evenodd" d="M9 10C10.6569 10 12 8.65685 12 7C12 5.34315 10.6569 4 9 4C7.34315 4 6 5.34315 6 7C6 8.65685 7.34315 10 9 10ZM9 13C12.3137 13 15 10.3137 15 7C15 3.68629 12.3137 1 9 1C5.68629 1 3 3.68629 3 7C3 10.3137 5.68629 13 9 13Z" fill="black"/>
<path d="M6 18H12C13.6569 18 15 19.3431 15 21V22.5C15 23.3284 15.6716 24 16.5 24C17.3284 24 18 23.3284 18 22.5V21C18 17.6863 15.3137 15 12 15H6C2.68629 15 0 17.6863 0 21V22.5C0 23.3284 0.671573 24 1.5 24C2.32843 24 3 23.3284 3 22.5V21C3 19.3431 4.34315 18 6 18Z" fill="black"/>
<path d="M19 8C19 7.17157 19.6716 6.5 20.5 6.5C21.3284 6.5 22 7.17157 22 8V11C22 11.8284 21.3284 12.5 20.5 12.5C19.6716 12.5 19 11.8284 19 11V8Z" fill="black"/>
<path d="M19 15.5C19 14.6716 19.6716 14 20.5 14C21.3284 14 22 14.6716 22 15.5C22 16.3284 21.3284 17 20.5 17C19.6716 17 19 16.3284 19 15.5Z" fill="black"/>
</svg>
