<svg width="24" height="24" viewBox="0 0 24 24" fill="none" xmlns="http://www.w3.org/2000/svg">
<path fill-rule="evenodd" clip-rule="evenodd" d="M9 10C10.6569 10 12 8.65685 12 7C12 5.34315 10.6569 4 9 4C7.34315 4 6 5.34315 6 7C6 8.65685 7.34315 10 9 10ZM9 13C12.3137 13 15 10.3137 15 7C15 3.68629 12.3137 1 9 1C5.68629 1 3 3.68629 3 7C3 10.3137 5.68629 13 9 13Z" fill="black"/>
<path d="M6 18H12C13.6569 18 15 19.3431 15 21V22.5C15 23.3284 15.6716 24 16.5 24C17.3284 24 18 23.3284 18 22.5V21C18 17.6863 15.3137 15 12 15H6C2.68629 15 0 17.6863 0 21V22.5C0 23.3284 0.671573 24 1.5 24C2.32843 24 3 23.3284 3 22.5V21C3 19.3431 4.34315 18 6 18Z" fill="black"/>
<path fill-rule="evenodd" clip-rule="evenodd" d="M23.5355 8.12132C23.9261 8.51184 23.9261 9.14501 23.5355 9.53553L21.4142 11.6569L23.5355 13.7782C23.9261 14.1687 23.9261 14.8019 23.5355 15.1924C23.145 15.5829 22.5118 15.5829 22.1213 15.1924L20 13.0711L17.8787 15.1924C17.4882 15.5829 16.855 15.5829 16.4645 15.1924C16.0739 14.8019 16.0739 14.1687 16.4645 13.7782L18.5858 11.6569L16.4645 9.53553C16.0739 9.14501 16.0739 8.51184 16.4645 8.12132C16.855 7.7308 17.4882 7.7308 17.8787 8.12132L20 10.2426L22.1213 8.12132C22.5118 7.7308 23.145 7.7308 23.5355 8.12132Z" fill="black"/>
</svg>
