<svg width="24" height="24" viewBox="0 0 24 24" fill="none" xmlns="http://www.w3.org/2000/svg">
<path fill-rule="evenodd" clip-rule="evenodd" d="M9 10C10.6569 10 12 8.65685 12 7C12 5.34315 10.6569 4 9 4C7.34315 4 6 5.34315 6 7C6 8.65685 7.34315 10 9 10ZM9 13C12.3137 13 15 10.3137 15 7C15 3.68629 12.3137 1 9 1C5.68629 1 3 3.68629 3 7C3 10.3137 5.68629 13 9 13Z" fill="black"/>
<path d="M6 18H12C13.6569 18 15 19.3431 15 21V22.5C15 23.3284 15.6716 24 16.5 24C17.3284 24 18 23.3284 18 22.5V21C18 17.6863 15.3137 15 12 15H6C2.68629 15 0 17.6863 0 21V22.5C0 23.3284 0.671573 24 1.5 24C2.32843 24 3 23.3284 3 22.5V21C3 19.3431 4.34315 18 6 18Z" fill="black"/>
<path d="M21 21C21 19.8644 20.369 18.8761 19.4385 18.3667C18.7118 17.9689 18 17.3284 18 16.5C18 15.6716 18.682 14.9808 19.4848 15.1851C22.0804 15.8459 24 18.1988 24 21V22.5C24 23.3284 23.3284 24 22.5 24C21.6716 24 21 23.3284 21 22.5V21Z" fill="black"/>
<path d="M19 7C19 5.86436 18.369 4.8761 17.4385 4.36671C16.7118 3.96891 16 3.32843 16 2.5C16 1.67157 16.682 0.980759 17.4848 1.18514C20.0804 1.84591 22 4.19878 22 7C22 9.80122 20.0804 12.1541 17.4848 12.8149C16.682 13.0192 16 12.3284 16 11.5C16 10.6716 16.7118 10.0311 17.4385 9.63329C18.369 9.1239 19 8.13564 19 7Z" fill="black"/>
</svg>
