<svg width="24" height="24" viewBox="0 0 24 24" fill="none" xmlns="http://www.w3.org/2000/svg">
<path fill-rule="evenodd" clip-rule="evenodd" d="M9 10C10.6569 10 12 8.65685 12 7C12 5.34315 10.6569 4 9 4C7.34315 4 6 5.34315 6 7C6 8.65685 7.34315 10 9 10ZM9 13C12.3137 13 15 10.3137 15 7C15 3.68629 12.3137 1 9 1C5.68629 1 3 3.68629 3 7C3 10.3137 5.68629 13 9 13Z" fill="black"/>
<path d="M6 18H12C13.6569 18 15 19.3431 15 21V22.5C15 23.3284 15.6716 24 16.5 24C17.3284 24 18 23.3284 18 22.5V21C18 17.6863 15.3137 15 12 15H6C2.68629 15 0 17.6863 0 21V22.5C0 23.3284 0.671573 24 1.5 24C2.32843 24 3 23.3284 3 22.5V21C3 19.3431 4.34315 18 6 18Z" fill="black"/>
<path fill-rule="evenodd" clip-rule="evenodd" d="M20 8C20.5523 8 21 8.44772 21 9V11H23C23.5523 11 24 11.4477 24 12C24 12.5523 23.5523 13 23 13H21V15C21 15.5523 20.5523 16 20 16C19.4477 16 19 15.5523 19 15V13H17C16.4477 13 16 12.5523 16 12C16 11.4477 16.4477 11 17 11H19V9C19 8.44772 19.4477 8 20 8Z" fill="black"/>
</svg>
