<svg width="24" height="24" viewBox="0 0 24 24" fill="none" xmlns="http://www.w3.org/2000/svg">
<path fill-rule="evenodd" clip-rule="evenodd" d="M12 10C13.6569 10 15 8.65685 15 7C15 5.34315 13.6569 4 12 4C10.3431 4 9 5.34315 9 7C9 8.65685 10.3431 10 12 10ZM12 13C15.3137 13 18 10.3137 18 7C18 3.68629 15.3137 1 12 1C8.68629 1 6 3.68629 6 7C6 10.3137 8.68629 13 12 13Z" fill="black"/>
<path d="M9 18H15C16.6569 18 18 19.3431 18 21V22.5C18 23.3284 18.6716 24 19.5 24C20.3284 24 21 23.3284 21 22.5V21C21 17.6863 18.3137 15 15 15H9C5.68629 15 3 17.6863 3 21V22.5C3 23.3284 3.67157 24 4.5 24C5.32843 24 6 23.3284 6 22.5V21C6 19.3431 7.34315 18 9 18Z" fill="black"/>
</svg>
