<svg width="24" height="24" viewBox="0 0 24 24" fill="none" xmlns="http://www.w3.org/2000/svg">
<g clip-path="url(#clip0)">
<path fill-rule="evenodd" clip-rule="evenodd" d="M9 10C10.6569 10 12 8.65685 12 7C12 5.34315 10.6569 4 9 4C7.34315 4 6 5.34315 6 7C6 8.65685 7.34315 10 9 10ZM9 13C12.3137 13 15 10.3137 15 7C15 3.68629 12.3137 1 9 1C5.68629 1 3 3.68629 3 7C3 10.3137 5.68629 13 9 13Z" fill="black"/>
<path d="M6 18H12C13.6569 18 15 19.3431 15 21V22.5C15 23.3284 15.6716 24 16.5 24C17.3284 24 18 23.3284 18 22.5V21C18 17.6863 15.3137 15 12 15H6C2.68629 15 0 17.6863 0 21V22.5C0 23.3284 0.671573 24 1.5 24C2.32843 24 3 23.3284 3 22.5V21C3 19.3431 4.34315 18 6 18Z" fill="black"/>
<path fill-rule="evenodd" clip-rule="evenodd" d="M23.6839 9.27046C24.0869 9.64819 24.1073 10.281 23.7295 10.6839L19.9795 14.6839C19.7961 14.8796 19.5419 14.9933 19.2738 14.9997C19.0057 15.0061 18.7464 14.9046 18.5539 14.7179L16.3039 12.5361C15.9074 12.1516 15.8976 11.5185 16.2821 11.122C16.6666 10.7256 17.2997 10.7158 17.6961 11.1003L19.216 12.5741L22.2705 9.31606C22.6482 8.91315 23.281 8.89273 23.6839 9.27046Z" fill="black"/>
</g>
<defs>
<clipPath id="clip0">
<rect width="24" height="24" fill="white"/>
</clipPath>
</defs>
</svg>
