<svg width="24" height="24" viewBox="0 0 24 24" fill="none" xmlns="http://www.w3.org/2000/svg">
<path fill-rule="evenodd" clip-rule="evenodd" d="M1.09803 7.19121C1.03415 7.44851 1 7.71977 1 8V16C1 16.2802 1.03415 16.5515 1.09803 16.8088C1.41184 18.0728 2.443 19 3.66667 19H14.3333C15.557 19 16.5882 18.0728 16.902 16.8088C16.9078 16.7855 16.9133 16.7621 16.9186 16.7386C16.9717 16.5023 17 16.2549 17 16V12.8571L21.3492 16.585C21.9979 17.141 23 16.6801 23 15.8258V8.17422C23 7.31987 21.9979 6.85896 21.3492 7.41496L17 11.1429V8C17 7.74513 16.9717 7.49769 16.9186 7.26141C16.9133 7.2379 16.9078 7.2145 16.902 7.19122C16.5882 5.92723 15.557 5 14.3333 5H3.66667C2.443 5 1.41184 5.92723 1.09803 7.19121ZM14.3333 9C14.3333 8.70383 14.2046 8.43774 14 8.25463C13.8231 8.09628 13.5895 8 13.3333 8H4.66667C4.41055 8 4.17692 8.09628 4 8.25463C3.79542 8.43774 3.66667 8.70383 3.66667 9V15C3.66667 15.2962 3.79542 15.5623 4 15.7454C4.17692 15.9037 4.41055 16 4.66667 16H13.3333C13.5895 16 13.8231 15.9037 14 15.7454C14.2046 15.5623 14.3333 15.2962 14.3333 15V9Z" fill="black"/>
</svg>
