<svg width="24" height="24" viewBox="0 0 24 24" fill="none" xmlns="http://www.w3.org/2000/svg">
<path fill-rule="evenodd" clip-rule="evenodd" d="M3.77709 18.5321C3.4245 19.1981 3.9073 20 4.66088 20H19.3391C20.0926 20 20.5754 19.1981 20.2229 18.5321L12.8838 4.66938C12.5082 3.9599 11.4918 3.9599 11.1162 4.66938L3.77709 18.5321ZM15.5351 3.26572L22.8742 17.1285C24.2846 19.7925 22.3534 23 19.3391 23H4.66088C1.64658 23 -0.284628 19.7925 1.12573 17.1285L8.46482 3.26572C9.96726 0.427773 14.0327 0.427797 15.5351 3.26572Z" fill="black"/>
<path d="M10.5 9.5C10.5 8.67158 11.1715 8 12 8C12.8284 8 13.5 8.67158 13.5 9.5V12.5C13.5 13.3284 12.8284 14 12 14C11.1715 14 10.5 13.3284 10.5 12.5V9.5Z" fill="black"/>
<path d="M10.5 17C10.5 16.1716 11.1715 15.5 12 15.5C12.8284 15.5 13.5 16.1716 13.5 17C13.5 17.8284 12.8284 18.5 12 18.5C11.1715 18.5 10.5 17.8284 10.5 17Z" fill="black"/>
</svg>
