<svg width="24" height="24" viewBox="0 0 24 24" fill="none" xmlns="http://www.w3.org/2000/svg">
<path fill-rule="evenodd" clip-rule="evenodd" d="M12 15C15.3137 15 18 12.3137 18 9C18 5.68629 15.3137 3 12 3C8.68629 3 6 5.68629 6 9C6 12.3137 8.68629 15 12 15ZM12 18C16.9706 18 21 13.9706 21 9C21 4.02944 16.9706 0 12 0C7.02944 0 3 4.02944 3 9C3 13.9706 7.02944 18 12 18Z" fill="black"/>
<path fill-rule="evenodd" clip-rule="evenodd" d="M12 12C13.6569 12 15 10.6569 15 9C15 7.34315 13.6569 6 12 6C10.3431 6 9 7.34315 9 9C9 10.6569 10.3431 12 12 12Z" fill="black"/>
<path d="M14 20V17.777C13.3568 17.9229 12.6874 18 12 18C11.3126 18 10.6432 17.9229 10 17.777V20H7C5.89543 20 5 20.8954 5 22C5 23.1046 5.89543 24 7 24H17C18.1046 24 19 23.1046 19 22C19 20.8954 18.1046 20 17 20H14Z" fill="black"/>
</svg>
