<svg width="16" height="16" viewBox="0 0 16 16" fill="none" xmlns="http://www.w3.org/2000/svg">
<path d="M8.1 14.2848L2.125 14.3333C1.50368 14.3333 1 13.7364 1 13V2.33333C1 1.59695 1.50368 1 2.125 1H8.875C9.49632 1 10 1.59695 10 2.33333V5H9.5" stroke="#9B9B9B" stroke-width="1.25" stroke-linecap="round" stroke-linejoin="round"/>
<path d="M5.5 11.6667H5.50563" stroke="#9B9B9B" stroke-width="1.25" stroke-linecap="round" stroke-linejoin="round"/>
<path d="M11.7165 13.2667H11.7222M9.13294 5H14.2996C14.8703 5 15.3329 5.46264 15.3329 6.03333V14.3C15.3329 14.8707 14.8703 15.3333 14.2996 15.3333H9.13294C8.56225 15.3333 8.09961 14.8707 8.09961 14.3V6.03333C8.09961 5.46264 8.56225 5 9.13294 5Z" stroke="#464646" stroke-width="1.25" stroke-linecap="round" stroke-linejoin="round"/>
</svg>
