<svg width="44" height="44" viewBox="0 0 44 44" fill="none" xmlns="http://www.w3.org/2000/svg">
<circle cx="22" cy="22" r="22" fill="#ECBA04"/>
<path d="M12.4315 29L13.6317 25.4134H19.1005L20.3079 29H23.1204L17.9925 14.4545H14.7397L9.61896 29H12.4315ZM14.342 23.2969L16.3093 17.4375H16.4229L18.3903 23.2969H14.342ZM27.4084 29.2557C29.3118 29.2557 30.4766 28.233 30.9311 27.5227H31.0163L30.7607 29H32.4368L33.63 21.8125C34.1982 18.3466 31.6413 17.9489 30.2493 17.9489C28.6016 17.9489 26.6129 18.517 25.4482 20.5057L26.9254 21.0739C27.4368 20.2784 28.5163 19.4261 30.1072 19.4261C31.6413 19.4261 32.2095 20.25 31.9822 21.642V21.6989C31.8402 22.4943 31.0163 22.4375 28.9993 22.6932C26.9254 22.9489 24.6527 23.4034 24.2266 25.9034C23.8857 28.0341 25.3345 29.2557 27.4084 29.2557ZM27.8913 27.75C26.5561 27.75 25.7038 27.1534 25.9027 25.9886C26.1016 24.7102 27.3516 24.3125 28.6868 24.142C29.397 24.0568 31.3288 23.858 31.6697 23.517L31.4141 25.0511C31.1868 26.4148 29.88 27.75 27.8913 27.75Z" fill="white"/>
</svg>
