<svg width="16" height="16" viewBox="0 0 16 16" fill="none" xmlns="http://www.w3.org/2000/svg">
<path d="M4.66699 7V4.33333C4.66699 3.44928 5.01818 2.60143 5.6433 1.97631C6.26842 1.35119 7.11627 1 8.00033 1C8.88438 1 9.73223 1.35119 10.3573 1.97631C10.9825 2.60143 11.3337 3.44928 11.3337 4.33333V7" stroke="#9B9B9B" stroke-width="1.25" stroke-linecap="round" stroke-linejoin="round"/>
<path d="M12.6667 7H3.33333C2.59695 7 2 7.59695 2 8.33333V13C2 13.7364 2.59695 14.3333 3.33333 14.3333H12.6667C13.403 14.3333 14 13.7364 14 13V8.33333C14 7.59695 13.403 7 12.6667 7Z" stroke="#464646" stroke-width="1.25" stroke-linecap="round" stroke-linejoin="round"/>
</svg>
