<svg width="16" height="16" viewBox="0 0 16 16" fill="none" xmlns="http://www.w3.org/2000/svg">
<path d="M15.334 2.66666V6.66666H11.334" stroke="#464646" stroke-width="1.25" stroke-linecap="round" stroke-linejoin="round"/>
<path d="M0.666992 13.3333V9.33331H4.66699" stroke="#9B9B9B" stroke-width="1.25" stroke-linecap="round" stroke-linejoin="round"/>
<path d="M0.666992 9.33331L3.76033 12.24C4.47682 12.9568 5.36324 13.4805 6.33687 13.7621C7.31049 14.0438 8.33959 14.0741 9.32813 13.8505C10.3167 13.6268 11.2325 13.1564 11.99 12.483C12.7476 11.8097 13.3222 10.9555 13.6603 9.99998" stroke="#9B9B9B" stroke-width="1.25" stroke-linecap="round" stroke-linejoin="round"/>
<path d="M2.33984 6.00001C2.67796 5.04453 3.2526 4.19028 4.01015 3.51696C4.76771 2.84363 5.68349 2.37319 6.67204 2.14952C7.66058 1.92584 8.68968 1.95624 9.6633 2.23786C10.6369 2.51948 11.5233 3.04315 12.2398 3.76001L15.3332 6.66668" stroke="#464646" stroke-width="1.25" stroke-linecap="round" stroke-linejoin="round"/>
</svg>
