<svg width="44" height="44" viewBox="0 0 44 44" fill="none" xmlns="http://www.w3.org/2000/svg">
<circle cx="22" cy="22" r="22" fill="#13D966"/>
<path d="M31 25.9999V17.9999C30.9996 17.6492 30.9071 17.3047 30.7315 17.0011C30.556 16.6974 30.3037 16.4453 30 16.2699L23 12.2699C22.696 12.0944 22.3511 12.002 22 12.002C21.6489 12.002 21.304 12.0944 21 12.2699L14 16.2699C13.6963 16.4453 13.444 16.6974 13.2685 17.0011C13.0929 17.3047 13.0004 17.6492 13 17.9999V25.9999C13.0004 26.3506 13.0929 26.6951 13.2685 26.9987C13.444 27.3024 13.6963 27.5545 14 27.7299L21 31.7299C21.304 31.9054 21.6489 31.9979 22 31.9979C22.3511 31.9979 22.696 31.9054 23 31.7299L30 27.7299C30.3037 27.5545 30.556 27.3024 30.7315 26.9987C30.9071 26.6951 30.9996 26.3506 31 25.9999Z" stroke="white" stroke-width="2.5" stroke-linecap="round" stroke-linejoin="round"/>
<path d="M13.2695 16.96L21.9995 22.01L30.7295 16.96" stroke="white" stroke-width="2.5" stroke-linecap="round" stroke-linejoin="round"/>
<path d="M22 32.08V22" stroke="white" stroke-width="2.5" stroke-linecap="round" stroke-linejoin="round"/>
</svg>
