<svg width="100" height="100" viewBox="0 0 100 100" fill="none" xmlns="http://www.w3.org/2000/svg">
<g clip-path="url(#clip0)">
<path fill-rule="evenodd" clip-rule="evenodd" d="M23.2889 0.184389C23.4934 0.0636674 23.7009 0.00249443 23.9235 6.96242e-05C24.4001 -0.00479939 24.8519 0.248787 25.1062 0.737357L31.8273 13.6399C37.3254 11.0426 43.4925 9.58482 50.0003 9.58482C56.5081 9.58482 62.6751 11.0426 68.1732 13.6399L74.8943 0.737357C75.1486 0.248787 75.6004 -0.00482849 76.077 6.96242e-05C76.2997 0.00232955 76.5071 0.0636674 76.7116 0.184389C77.3832 0.58085 77.6041 1.40273 77.2309 2.11977L70.5963 14.8841C83.3609 21.9574 91.9827 35.3996 92 50.8269H8.00055C8.01784 35.3996 16.6396 21.9574 29.4043 14.8841L22.7697 2.11977C22.3965 1.40273 22.6173 0.58085 23.2889 0.184389ZM8 89.1864L8.00055 57H92L91.9994 89.1864C91.9994 95.1772 87.4709 100 81.8457 100H18.1538C12.5286 100 8 95.1772 8 89.1864ZM38 31C38 33.7614 35.7614 36 33 36C30.2386 36 28 33.7614 28 31C28 28.2386 30.2386 26 33 26C35.7614 26 38 28.2386 38 31ZM68 36C70.7614 36 73 33.7614 73 31C73 28.2386 70.7614 26 68 26C65.2386 26 63 28.2386 63 31C63 33.7614 65.2386 36 68 36Z" fill="black"/>
</g>
<defs>
<clipPath id="clip0">
<rect width="100" height="100" fill="white"/>
</clipPath>
</defs>
</svg>
