<svg width="100" height="100" viewBox="0 0 100 100" fill="none" xmlns="http://www.w3.org/2000/svg">
<path d="M77.4839 53.1269C77.6254 68.26 90.8535 73.296 91 73.3602C90.8882 73.7154 88.8864 80.5369 84.0308 87.5831C79.8334 93.6749 75.4771 99.7443 68.6146 99.87C61.8714 99.9934 59.7031 95.8994 51.9938 95.8994C44.2869 95.8994 41.8778 99.7443 35.4947 99.9934C28.8706 100.242 23.8264 93.406 19.5941 87.3365C10.946 74.9212 4.33701 52.2539 13.2112 36.9531C17.6197 29.3546 25.498 24.5429 34.0493 24.4195C40.554 24.2963 46.6936 28.765 50.67 28.765C54.6439 28.765 62.1049 23.391 69.9483 24.1803C73.2318 24.316 82.4488 25.4973 88.3672 34.0997C87.8903 34.3932 77.3695 40.475 77.4839 53.1269V53.1269ZM64.811 15.9665C68.3277 11.7394 70.6947 5.85499 70.049 0C64.9798 0.202306 58.8501 3.35426 55.2141 7.57899C51.9555 11.3202 49.1018 17.3082 49.8718 23.0473C55.5219 23.4814 61.294 20.1962 64.811 15.9665" fill="black"/>
</svg>
