<svg width="248" height="148" viewBox="0 0 248 148" fill="none" xmlns="http://www.w3.org/2000/svg">
<rect width="248" height="148" rx="4" fill="#AD7BFF"/>
<path d="M20 22C20 19.7909 21.7909 18 24 18H248V50H20V22Z" fill="#1D1D1D"/>
<path d="M20 50H248V144C248 146.209 246.209 148 244 148H20V50Z" fill="#1D1D1D"/>
<circle cx="38" cy="34" r="4" fill="#6B6B6B"/>
<circle cx="52" cy="34" r="4" fill="#6B6B6B"/>
<circle cx="66" cy="34" r="4" fill="#6B6B6B"/>
<rect x="83" y="25" width="135" height="18" rx="2" fill="#6B6B6B"/>
<path d="M105.5 37C107.273 37 108.273 35.8977 108.273 34.0795C108.273 32.2727 107.273 31.1818 105.58 31.1818H103.705V37H105.5ZM104.409 36.375V31.8068H105.534C106.898 31.8068 107.591 32.6705 107.591 34.0795C107.591 35.5 106.898 36.375 105.455 36.375H104.409ZM110.648 37.1023C111.409 37.1023 111.807 36.6932 111.943 36.4091H111.977V37H112.648V34.125C112.648 32.7386 111.591 32.5795 111.034 32.5795C110.375 32.5795 109.625 32.8068 109.284 33.6023L109.92 33.8295C110.068 33.5114 110.418 33.1705 111.057 33.1705C111.673 33.1705 111.977 33.4972 111.977 34.0568V34.0795C111.977 34.4034 111.648 34.375 110.852 34.4773C110.043 34.5824 109.159 34.7614 109.159 35.7614C109.159 36.6136 109.818 37.1023 110.648 37.1023ZM110.75 36.5C110.216 36.5 109.83 36.2614 109.83 35.7955C109.83 35.2841 110.295 35.125 110.818 35.0568C111.102 35.0227 111.864 34.9432 111.977 34.8068V35.4205C111.977 35.9659 111.545 36.5 110.75 36.5ZM113.871 37H114.542V32.6364H113.871V37ZM114.212 31.9091C114.474 31.9091 114.69 31.7045 114.69 31.4545C114.69 31.2045 114.474 31 114.212 31C113.951 31 113.735 31.2045 113.735 31.4545C113.735 31.7045 113.951 31.9091 114.212 31.9091ZM116.44 31.1818H115.77V37H116.44V31.1818ZM118.1 38.625C118.705 38.625 119.134 38.304 119.384 37.6364L121.242 32.6477L120.509 32.6364L119.305 36.1136H119.259L118.055 32.6364H117.327L118.941 37.0227L118.816 37.3636C118.577 38.017 118.271 38.0795 117.782 37.9545L117.612 38.5455C117.68 38.5795 117.873 38.625 118.1 38.625ZM129.084 31.1818H128.391V35.7614H128.334L125.152 31.1818H124.47V37H125.175V32.4318H125.232L128.402 37H129.084V31.1818ZM132.232 37.0909C133.119 37.0909 133.766 36.6477 133.971 35.9886L133.323 35.8068C133.153 36.2614 132.758 36.4886 132.232 36.4886C131.445 36.4886 130.903 35.9801 130.871 35.0455H134.039V34.7614C134.039 33.1364 133.073 32.5795 132.164 32.5795C130.982 32.5795 130.198 33.5114 130.198 34.8523C130.198 36.1932 130.971 37.0909 132.232 37.0909ZM130.871 34.4659C130.917 33.7869 131.397 33.1818 132.164 33.1818C132.891 33.1818 133.357 33.7273 133.357 34.4659H130.871ZM136.048 37H136.707L137.661 33.6477H137.729L138.684 37H139.343L140.673 32.6364H139.968L139.025 35.9659H138.979L138.059 32.6364H137.343L136.411 35.9773H136.366L135.423 32.6364H134.718L136.048 37ZM144.65 33.6136C144.44 32.9943 143.968 32.5795 143.104 32.5795C142.184 32.5795 141.502 33.1023 141.502 33.8409C141.502 34.4432 141.86 34.8466 142.661 35.0341L143.388 35.2045C143.829 35.3068 144.036 35.517 144.036 35.8182C144.036 36.1932 143.638 36.5 143.013 36.5C142.465 36.5 142.121 36.2642 142.002 35.7955L141.366 35.9545C141.522 36.696 142.133 37.0909 143.025 37.0909C144.039 37.0909 144.729 36.5369 144.729 35.7841C144.729 35.1761 144.349 34.7926 143.57 34.6023L142.923 34.4432C142.406 34.3153 142.173 34.142 142.173 33.8068C142.173 33.4318 142.57 33.1591 143.104 33.1591C143.69 33.1591 143.931 33.483 144.048 33.7841L144.65 33.6136ZM150.489 33.7784H147.943V34.4034H150.489V33.7784ZM153.509 31.1818L155.612 34.6023V37H156.316V34.6023L158.418 31.1818H157.612L155.998 33.8977H155.93L154.316 31.1818H153.509ZM160.394 37.0909C161.576 37.0909 162.371 36.1932 162.371 34.8409C162.371 33.4773 161.576 32.5795 160.394 32.5795C159.212 32.5795 158.417 33.4773 158.417 34.8409C158.417 36.1932 159.212 37.0909 160.394 37.0909ZM160.394 36.4886C159.496 36.4886 159.087 35.7159 159.087 34.8409C159.087 33.9659 159.496 33.1818 160.394 33.1818C161.292 33.1818 161.701 33.9659 161.701 34.8409C161.701 35.7159 161.292 36.4886 160.394 36.4886ZM166.145 35.2159C166.145 36.0341 165.52 36.4091 165.02 36.4091C164.463 36.4091 164.065 36 164.065 35.3636V32.6364H163.395V35.4091C163.395 36.5227 163.986 37.0568 164.804 37.0568C165.463 37.0568 165.895 36.7045 166.099 36.2614H166.145V37H166.815V32.6364H166.145V35.2159ZM168.043 37H168.714V34.2386C168.714 33.6477 169.18 33.2159 169.816 33.2159C169.995 33.2159 170.18 33.25 170.225 33.2614V32.5795C170.148 32.5739 169.972 32.5682 169.873 32.5682C169.35 32.5682 168.896 32.8636 168.737 33.2955H168.691V32.6364H168.043V37ZM175.44 37H176.009L176.273 35.3864H177.134L177.224 34.8182H176.366L176.605 33.3636H177.474L177.565 32.7955H176.699L176.963 31.1818H176.395L176.131 32.7955H174.653L174.918 31.1818H174.349L174.085 32.7955H173.224L173.134 33.3636H173.991L173.753 34.8182H172.884L172.793 35.3864H173.659L173.395 37H173.963L174.227 35.3864H175.705L175.44 37ZM174.321 34.8182L174.56 33.3636H176.037L175.798 34.8182H174.321ZM180.351 31.1818H179.646L178.192 32.1477V32.8636L179.612 31.9205H179.646V37H180.351V31.1818ZM187.376 33.6136C187.166 32.9943 186.695 32.5795 185.831 32.5795C184.911 32.5795 184.229 33.1023 184.229 33.8409C184.229 34.4432 184.587 34.8466 185.388 35.0341L186.115 35.2045C186.555 35.3068 186.763 35.517 186.763 35.8182C186.763 36.1932 186.365 36.5 185.74 36.5C185.192 36.5 184.848 36.2642 184.729 35.7955L184.092 35.9545C184.249 36.696 184.859 37.0909 185.751 37.0909C186.766 37.0909 187.456 36.5369 187.456 35.7841C187.456 35.1761 187.075 34.7926 186.297 34.6023L185.649 34.4432C185.132 34.3153 184.899 34.142 184.899 33.8068C184.899 33.4318 185.297 33.1591 185.831 33.1591C186.416 33.1591 186.658 33.483 186.774 33.7841L187.376 33.6136ZM190.238 37.0909C191.42 37.0909 192.215 36.1932 192.215 34.8409C192.215 33.4773 191.42 32.5795 190.238 32.5795C189.056 32.5795 188.261 33.4773 188.261 34.8409C188.261 36.1932 189.056 37.0909 190.238 37.0909ZM190.238 36.4886C189.34 36.4886 188.931 35.7159 188.931 34.8409C188.931 33.9659 189.34 33.1818 190.238 33.1818C191.136 33.1818 191.545 33.9659 191.545 34.8409C191.545 35.7159 191.136 36.4886 190.238 36.4886Z" fill="#D2B6FF"/>
<path opacity="0.7" d="M90.7778 31.488H96.2222C96.65 31.488 97 31.8383 97 32.2665V37.7159C97 38.1441 96.65 38.4944 96.2222 38.4944H90.7778C90.35 38.4944 90 38.1441 90 37.7159V32.2665C90 31.8383 90.35 31.488 90.7778 31.488ZM95.25 37.3267C95.5728 37.3267 95.8333 37.0659 95.8333 36.7428C95.8333 36.4198 95.5728 36.159 95.25 36.159C94.9272 36.159 94.6667 36.4198 94.6667 36.7428C94.6667 37.0659 94.9272 37.3267 95.25 37.3267ZM95.25 33.8235C95.5728 33.8235 95.8333 33.5627 95.8333 33.2396C95.8333 32.9165 95.5728 32.6557 95.25 32.6557C94.9272 32.6557 94.6667 32.9165 94.6667 33.2396C94.6667 33.5627 94.9272 33.8235 95.25 33.8235ZM93.5 35.5751C93.8228 35.5751 94.0833 35.3143 94.0833 34.9912C94.0833 34.6681 93.8228 34.4073 93.5 34.4073C93.1772 34.4073 92.9167 34.6681 92.9167 34.9912C92.9167 35.3143 93.1772 35.5751 93.5 35.5751ZM91.75 37.3267C92.0728 37.3267 92.3333 37.0659 92.3333 36.7428C92.3333 36.4198 92.0728 36.159 91.75 36.159C91.4272 36.159 91.1667 36.4198 91.1667 36.7428C91.1667 37.0659 91.4272 37.3267 91.75 37.3267ZM91.75 33.8235C92.0728 33.8235 92.3333 33.5627 92.3333 33.2396C92.3333 32.9165 92.0728 32.6557 91.75 32.6557C91.4272 32.6557 91.1667 32.9165 91.1667 33.2396C91.1667 33.5627 91.4272 33.8235 91.75 33.8235Z" fill="#D2B6FF"/>
<path d="M211 32.0928L210.396 31.488L208 33.8859L205.604 31.488L205 32.0928L207.396 34.4908L205 36.8887L205.604 37.4935L208 35.0956L210.396 37.4935L211 36.8887L208.604 34.4908L211 32.0928Z" fill="#D2B6FF"/>
<rect x="163" y="25" width="33" height="18" rx="2" fill="url(#paint0_linear)"/>
<g opacity="0.3">
<circle cx="84.5" cy="82.5" r="12.5" fill="#313131"/>
<rect x="109" y="70" width="87" height="7" rx="3.5" fill="#313131"/>
<rect x="109" y="79" width="87" height="7" rx="3.5" fill="#313131"/>
<rect x="109" y="88" width="87" height="7" rx="3.5" fill="#313131"/>
<rect x="72" y="103" width="87" height="7" rx="3.5" fill="#313131"/>
<rect x="72" y="112" width="87" height="7" rx="3.5" fill="#313131"/>
<rect x="72" y="121" width="87" height="7" rx="3.5" fill="#313131"/>
<rect x="171" y="103" width="25" height="25" rx="5" fill="#313131"/>
</g>
<rect x="90" y="50" width="152" height="77" rx="2" fill="#383838"/>
<path d="M119.943 111.182H119.205L121.341 117H122.068L124.205 111.182H123.466L121.739 116.08H121.67L119.943 111.182ZM125.02 117H125.69V112.636H125.02V117ZM125.361 111.909C125.622 111.909 125.838 111.705 125.838 111.455C125.838 111.205 125.622 111 125.361 111C125.099 111 124.884 111.205 124.884 111.455C124.884 111.705 125.099 111.909 125.361 111.909ZM130.009 113.614C129.799 112.994 129.327 112.58 128.464 112.58C127.543 112.58 126.862 113.102 126.862 113.841C126.862 114.443 127.219 114.847 128.021 115.034L128.748 115.205C129.188 115.307 129.396 115.517 129.396 115.818C129.396 116.193 128.998 116.5 128.373 116.5C127.825 116.5 127.481 116.264 127.362 115.795L126.725 115.955C126.881 116.696 127.492 117.091 128.384 117.091C129.398 117.091 130.089 116.537 130.089 115.784C130.089 115.176 129.708 114.793 128.93 114.602L128.282 114.443C127.765 114.315 127.532 114.142 127.532 113.807C127.532 113.432 127.93 113.159 128.464 113.159C129.049 113.159 129.29 113.483 129.407 113.784L130.009 113.614ZM131.098 117H131.768V112.636H131.098V117ZM131.439 111.909C131.7 111.909 131.916 111.705 131.916 111.455C131.916 111.205 131.7 111 131.439 111C131.178 111 130.962 111.205 130.962 111.455C130.962 111.705 131.178 111.909 131.439 111.909ZM134.894 112.636H133.962V111.591H133.292V112.636H132.633V113.205H133.292V115.932C133.292 116.693 133.906 117.057 134.474 117.057C134.724 117.057 134.883 117.011 134.974 116.977L134.837 116.375C134.781 116.386 134.69 116.409 134.542 116.409C134.246 116.409 133.962 116.318 133.962 115.75V113.205H134.894V112.636ZM137.685 117.091C138.572 117.091 139.219 116.648 139.424 115.989L138.776 115.807C138.606 116.261 138.211 116.489 137.685 116.489C136.898 116.489 136.356 115.98 136.325 115.045H139.492V114.761C139.492 113.136 138.526 112.58 137.617 112.58C136.435 112.58 135.651 113.511 135.651 114.852C135.651 116.193 136.424 117.091 137.685 117.091ZM136.325 114.466C136.37 113.787 136.85 113.182 137.617 113.182C138.344 113.182 138.81 113.727 138.81 114.466H136.325ZM142.16 117.091C143.001 117.091 143.285 116.568 143.433 116.33H143.512V117H144.16V111.182H143.489V113.33H143.433C143.285 113.102 143.023 112.58 142.171 112.58C141.069 112.58 140.308 113.455 140.308 114.83C140.308 116.216 141.069 117.091 142.16 117.091ZM142.251 116.489C141.41 116.489 140.978 115.75 140.978 114.818C140.978 113.898 141.398 113.182 142.251 113.182C143.069 113.182 143.501 113.841 143.501 114.818C143.501 115.807 143.058 116.489 142.251 116.489Z" fill="#C4C4C4"/>
<path d="M149.765 112.636H148.825V112.244C148.825 111.858 148.984 111.648 149.398 111.648C149.575 111.648 149.7 111.688 149.779 111.713L149.978 111.026C149.859 110.98 149.612 110.909 149.268 110.909C148.577 110.909 147.972 111.312 147.972 112.131V112.636H147.299V113.318H147.972V117H148.825V113.318H149.765V112.636ZM152.308 117.088C153.538 117.088 154.342 116.188 154.342 114.838C154.342 113.48 153.538 112.58 152.308 112.58C151.077 112.58 150.273 113.48 150.273 114.838C150.273 116.188 151.077 117.088 152.308 117.088ZM152.31 116.375C151.506 116.375 151.131 115.673 151.131 114.835C151.131 114 151.506 113.29 152.31 113.29C153.109 113.29 153.484 114 153.484 114.835C153.484 115.673 153.109 116.375 152.31 116.375ZM157.128 117.088C158.358 117.088 159.162 116.188 159.162 114.838C159.162 113.48 158.358 112.58 157.128 112.58C155.898 112.58 155.094 113.48 155.094 114.838C155.094 116.188 155.898 117.088 157.128 117.088ZM157.131 116.375C156.327 116.375 155.952 115.673 155.952 114.835C155.952 114 156.327 113.29 157.131 113.29C157.929 113.29 158.304 114 158.304 114.835C158.304 115.673 157.929 116.375 157.131 116.375ZM160.67 117.054C160.979 117.054 161.238 116.801 161.238 116.486C161.238 116.176 160.979 115.92 160.67 115.92C160.357 115.92 160.102 116.176 160.102 116.486C160.102 116.801 160.357 117.054 160.67 117.054ZM162.444 117H163.273V116.321H163.344C163.498 116.599 163.81 117.085 164.606 117.085C165.663 117.085 166.43 116.239 166.43 114.827C166.43 113.412 165.651 112.58 164.597 112.58C163.788 112.58 163.495 113.074 163.344 113.344H163.293V111.182H162.444V117ZM163.276 114.818C163.276 113.906 163.674 113.301 164.415 113.301C165.185 113.301 165.572 113.952 165.572 114.818C165.572 115.693 165.174 116.361 164.415 116.361C163.685 116.361 163.276 115.736 163.276 114.818ZM168.653 117.097C169.375 117.097 169.781 116.73 169.943 116.403H169.977V117H170.807V114.102C170.807 112.832 169.807 112.58 169.114 112.58C168.324 112.58 167.597 112.898 167.312 113.693L168.111 113.875C168.236 113.565 168.554 113.267 169.125 113.267C169.673 113.267 169.955 113.554 169.955 114.048V114.068C169.955 114.378 169.636 114.372 168.852 114.463C168.026 114.56 167.179 114.776 167.179 115.767C167.179 116.625 167.824 117.097 168.653 117.097ZM168.838 116.415C168.358 116.415 168.011 116.199 168.011 115.778C168.011 115.324 168.415 115.162 168.906 115.097C169.182 115.06 169.835 114.986 169.957 114.864V115.426C169.957 115.943 169.545 116.415 168.838 116.415ZM171.938 117H172.788V114.335C172.788 113.764 173.228 113.352 173.83 113.352C174.006 113.352 174.205 113.384 174.273 113.403V112.591C174.188 112.58 174.021 112.571 173.913 112.571C173.401 112.571 172.964 112.861 172.805 113.33H172.759V112.636H171.938V117Z" fill="white"/>
<path d="M233 36.993C232.204 36.993 231.441 36.6767 230.879 36.1136C230.316 35.5504 230 34.7867 230 33.9903C230 33.4898 230.125 33.0044 230.35 32.589L229.62 31.8583C229.215 32.4954 229 33.235 229 33.9903C229 35.0521 229.421 36.0705 230.172 36.8213C230.922 37.5722 231.939 37.994 233 37.994V39.4954L235 37.4935L233 35.4917V36.993ZM233 29.9866V28.4852L231 30.487L233 32.4889V30.9875C233.796 30.9875 234.559 31.3038 235.121 31.867C235.684 32.4301 236 33.1939 236 33.9903C236 34.4907 235.875 34.9762 235.65 35.3916L236.38 36.1222C236.785 35.4851 237 34.7455 237 33.9903C237 32.9284 236.579 31.9101 235.828 31.1592C235.078 30.4084 234.061 29.9866 233 29.9866V29.9866Z" fill="#D2B6FF"/>
<path d="M108.5 77.5H106.5V74.5H103.5V77.5H101.5L105 81L108.5 77.5ZM101.5 82V83H108.5V82H101.5Z" fill="#D2B6FF"/>
<path d="M108.5 99L109.5 99.5V91.5C109.5 90.95 109.05 90.5 108.5 90.5H103.495C102.945 90.5 102.5 90.95 102.5 91.5H107.5C108.05 91.5 108.5 91.95 108.5 92.5V99ZM106.5 92.5H101.5C100.95 92.5 100.5 92.95 100.5 93.5V101.5L104 100L107.5 101.5V93.5C107.5 92.95 107.05 92.5 106.5 92.5Z" fill="#D2B6FF"/>
<path d="M105.5 109.5C104.307 109.5 103.162 109.974 102.318 110.818C101.474 111.662 101 112.807 101 114H99.5L101.445 115.945L101.48 116.015L103.5 114H102C102 112.065 103.565 110.5 105.5 110.5C107.435 110.5 109 112.065 109 114C109 115.935 107.435 117.5 105.5 117.5C104.535 117.5 103.66 117.105 103.03 116.47L102.32 117.18C102.737 117.599 103.232 117.931 103.778 118.158C104.324 118.384 104.909 118.501 105.5 118.5C106.693 118.5 107.838 118.026 108.682 117.182C109.526 116.338 110 115.193 110 114C110 112.807 109.526 111.662 108.682 110.818C107.838 109.974 106.693 109.5 105.5 109.5V109.5ZM105 112V114.5L107.14 115.77L107.5 115.165L105.75 114.125V112H105Z" fill="#D2B6FF"/>
<path d="M101.858 59.5455H102.71C102.671 58.4482 101.659 57.6278 100.253 57.6278C98.8608 57.6278 97.767 58.4375 97.767 59.6591C97.767 60.6392 98.4773 61.2216 99.6136 61.5483L100.509 61.804C101.276 62.017 101.957 62.2869 101.957 63.0114C101.957 63.8068 101.19 64.3324 100.182 64.3324C99.3153 64.3324 98.5483 63.9489 98.4773 63.125H97.5682C97.6534 64.3182 98.6193 65.1278 100.182 65.1278C101.858 65.1278 102.81 64.2045 102.81 63.0256C102.81 61.6619 101.517 61.2216 100.764 61.0227L100.026 60.8239C99.4858 60.6818 98.6193 60.3977 98.6193 59.6165C98.6193 58.9205 99.2585 58.4091 100.224 58.4091C101.105 58.4091 101.773 58.8281 101.858 59.5455ZM104.684 67.0312C105.44 67.0312 105.976 66.63 106.289 65.7955L108.611 59.5597L107.695 59.5455L106.189 63.892H106.133L104.627 59.5455H103.718L105.735 65.0284L105.579 65.4545C105.28 66.2713 104.897 66.3494 104.286 66.1932L104.073 66.9318C104.158 66.9744 104.4 67.0312 104.684 67.0312ZM110.558 61.7188C110.558 60.767 111.148 60.2273 111.95 60.2273C112.728 60.2273 113.2 60.7351 113.2 61.5909V65H114.038V61.5341C114.038 60.142 113.296 59.4744 112.192 59.4744C111.368 59.4744 110.857 59.8438 110.601 60.3977H110.53V59.5455H109.72V65H110.558V61.7188ZM117.786 65.1136C118.993 65.1136 119.789 64.375 119.931 63.4091H119.093C118.936 64.0057 118.439 64.3608 117.786 64.3608C116.791 64.3608 116.152 63.5369 116.152 62.2727C116.152 61.0369 116.806 60.2273 117.786 60.2273C118.524 60.2273 118.965 60.6818 119.093 61.179H119.931C119.789 60.1562 118.922 59.4744 117.771 59.4744C116.294 59.4744 115.314 60.6392 115.314 62.3011C115.314 63.9347 116.252 65.1136 117.786 65.1136ZM121.156 65H121.994V59.5455H121.156V65ZM121.582 58.6364C121.909 58.6364 122.178 58.3807 122.178 58.0682C122.178 57.7557 121.909 57.5 121.582 57.5C121.255 57.5 120.985 57.7557 120.985 58.0682C120.985 58.3807 121.255 58.6364 121.582 58.6364ZM124.367 61.7188C124.367 60.767 124.956 60.2273 125.759 60.2273C126.537 60.2273 127.009 60.7351 127.009 61.5909V65H127.847V61.5341C127.847 60.142 127.105 59.4744 126 59.4744C125.176 59.4744 124.665 59.8438 124.409 60.3977H124.338V59.5455H123.529V65H124.367V61.7188ZM131.58 67.1591C132.887 67.1591 133.938 66.5625 133.938 65.1562V59.5455H133.128V60.4119H133.043C132.858 60.1278 132.518 59.4744 131.452 59.4744C130.074 59.4744 129.123 60.5682 129.123 62.2443C129.123 63.9489 130.117 64.9148 131.438 64.9148C132.503 64.9148 132.844 64.2898 133.029 63.9915H133.1V65.0994C133.1 66.0085 132.461 66.4205 131.58 66.4205C130.589 66.4205 130.241 65.8984 130.018 65.5966L129.35 66.0653C129.691 66.6371 130.362 67.1591 131.58 67.1591ZM131.552 64.1619C130.501 64.1619 129.961 63.3665 129.961 62.2301C129.961 61.1222 130.486 60.2273 131.552 60.2273C132.574 60.2273 133.114 61.0511 133.114 62.2301C133.114 63.4375 132.56 64.1619 131.552 64.1619ZM147.542 65H148.381V59.5455H147.542V65ZM147.969 58.6364C148.295 58.6364 148.565 58.3807 148.565 58.0682C148.565 57.7557 148.295 57.5 147.969 57.5C147.642 57.5 147.372 57.7557 147.372 58.0682C147.372 58.3807 147.642 58.6364 147.969 58.6364ZM152.288 59.5455H151.123V58.2386H150.285V59.5455H149.461V60.2557H150.285V63.6648C150.285 64.6165 151.052 65.071 151.762 65.071C152.075 65.071 152.273 65.0142 152.387 64.9716L152.217 64.2188C152.146 64.233 152.032 64.2614 151.847 64.2614C151.478 64.2614 151.123 64.1477 151.123 63.4375V60.2557H152.288V59.5455ZM155.777 65.1136C156.885 65.1136 157.694 64.5597 157.95 63.7358L157.14 63.5085C156.927 64.0767 156.434 64.3608 155.777 64.3608C154.793 64.3608 154.115 63.7251 154.076 62.5568H158.035V62.2017C158.035 60.1705 156.828 59.4744 155.691 59.4744C154.214 59.4744 153.234 60.6392 153.234 62.3153C153.234 63.9915 154.2 65.1136 155.777 65.1136ZM154.076 61.8324C154.132 60.9837 154.733 60.2273 155.691 60.2273C156.6 60.2273 157.183 60.9091 157.183 61.8324H154.076ZM159.31 65H160.148V61.5909C160.148 60.7919 160.73 60.2273 161.384 60.2273C162.02 60.2273 162.463 60.6428 162.463 61.2642V65H163.316V61.4489C163.316 60.7457 163.756 60.2273 164.523 60.2273C165.12 60.2273 165.631 60.5433 165.631 61.3494V65H166.469V61.3494C166.469 60.0675 165.78 59.4744 164.807 59.4744C164.026 59.4744 163.454 59.8331 163.174 60.3977H163.117C162.847 59.8153 162.371 59.4744 161.654 59.4744C160.944 59.4744 160.418 59.8153 160.191 60.3977H160.12V59.5455H159.31V65ZM171.865 60.767C171.602 59.9929 171.013 59.4744 169.933 59.4744C168.783 59.4744 167.93 60.1278 167.93 61.0511C167.93 61.804 168.378 62.3082 169.379 62.5426L170.288 62.7557C170.839 62.8835 171.098 63.1463 171.098 63.5227C171.098 63.9915 170.601 64.375 169.82 64.375C169.134 64.375 168.705 64.0803 168.555 63.4943L167.76 63.6932C167.955 64.62 168.719 65.1136 169.834 65.1136C171.102 65.1136 171.964 64.4212 171.964 63.4801C171.964 62.7202 171.489 62.2408 170.516 62.0028L169.706 61.804C169.06 61.6442 168.768 61.4276 168.768 61.0085C168.768 60.5398 169.266 60.1989 169.933 60.1989C170.665 60.1989 170.967 60.6037 171.112 60.9801L171.865 60.767ZM173.837 65.0568C174.188 65.0568 174.476 64.7692 174.476 64.4176C174.476 64.0661 174.188 63.7784 173.837 63.7784C173.485 63.7784 173.198 64.0661 173.198 64.4176C173.198 64.7692 173.485 65.0568 173.837 65.0568ZM176.591 65.0568C176.942 65.0568 177.23 64.7692 177.23 64.4176C177.23 64.0661 176.942 63.7784 176.591 63.7784C176.239 63.7784 175.952 64.0661 175.952 64.4176C175.952 64.7692 176.239 65.0568 176.591 65.0568ZM179.345 65.0568C179.696 65.0568 179.984 64.7692 179.984 64.4176C179.984 64.0661 179.696 63.7784 179.345 63.7784C178.993 63.7784 178.705 64.0661 178.705 64.4176C178.705 64.7692 178.993 65.0568 179.345 65.0568Z" fill="#C4C4C4"/>
<path d="M140.749 65.0994C142.233 65.0994 143.324 64.2116 143.32 63.0043C143.324 62.0845 142.766 61.424 141.8 61.2749V61.218C142.56 61.0227 143.054 60.4261 143.05 59.6094C143.054 58.5405 142.177 57.6278 140.778 57.6278C139.442 57.6278 138.37 58.4339 138.334 59.6165H139.396C139.421 58.9489 140.05 58.544 140.763 58.544C141.506 58.544 141.992 58.995 141.988 59.6662C141.992 60.3693 141.427 60.831 140.621 60.831H140.007V61.7259H140.621C141.63 61.7259 142.212 62.2372 142.212 62.9688C142.212 63.6754 141.598 64.1548 140.742 64.1548C139.954 64.1548 139.339 63.75 139.297 63.1037H138.182C138.228 64.2898 139.279 65.0994 140.749 65.0994Z" fill="white"/>
<path d="M121.5 81C123.273 81 124.273 79.8977 124.273 78.0795C124.273 76.2727 123.273 75.1818 121.58 75.1818H119.705V81H121.5ZM120.409 80.375V75.8068H121.534C122.898 75.8068 123.591 76.6705 123.591 78.0795C123.591 79.5 122.898 80.375 121.455 80.375H120.409ZM127.136 81.0909C128.318 81.0909 129.114 80.1932 129.114 78.8409C129.114 77.4773 128.318 76.5795 127.136 76.5795C125.955 76.5795 125.159 77.4773 125.159 78.8409C125.159 80.1932 125.955 81.0909 127.136 81.0909ZM127.136 80.4886C126.239 80.4886 125.83 79.7159 125.83 78.8409C125.83 77.9659 126.239 77.1818 127.136 77.1818C128.034 77.1818 128.443 77.9659 128.443 78.8409C128.443 79.7159 128.034 80.4886 127.136 80.4886ZM130.977 81H131.636L132.591 77.6477H132.659L133.614 81H134.273L135.602 76.6364H134.898L133.955 79.9659H133.909L132.989 76.6364H132.273L131.341 79.9773H131.295L130.352 76.6364H129.648L130.977 81ZM137.159 78.375C137.159 77.6136 137.631 77.1818 138.273 77.1818C138.895 77.1818 139.273 77.5881 139.273 78.2727V81H139.943V78.2273C139.943 77.1136 139.349 76.5795 138.466 76.5795C137.807 76.5795 137.398 76.875 137.193 77.3182H137.136V76.6364H136.489V81H137.159V78.375ZM141.839 75.1818H141.168V81H141.839V75.1818ZM144.839 81.0909C146.021 81.0909 146.817 80.1932 146.817 78.8409C146.817 77.4773 146.021 76.5795 144.839 76.5795C143.658 76.5795 142.862 77.4773 142.862 78.8409C142.862 80.1932 143.658 81.0909 144.839 81.0909ZM144.839 80.4886C143.942 80.4886 143.533 79.7159 143.533 78.8409C143.533 77.9659 143.942 77.1818 144.839 77.1818C145.737 77.1818 146.146 77.9659 146.146 78.8409C146.146 79.7159 145.737 80.4886 144.839 80.4886ZM149.124 81.1023C149.886 81.1023 150.283 80.6932 150.42 80.4091H150.454V81H151.124V78.125C151.124 76.7386 150.067 76.5795 149.511 76.5795C148.852 76.5795 148.102 76.8068 147.761 77.6023L148.397 77.8295C148.545 77.5114 148.894 77.1705 149.533 77.1705C150.15 77.1705 150.454 77.4972 150.454 78.0568V78.0795C150.454 78.4034 150.124 78.375 149.329 78.4773C148.519 78.5824 147.636 78.7614 147.636 79.7614C147.636 80.6136 148.295 81.1023 149.124 81.1023ZM149.227 80.5C148.692 80.5 148.306 80.2614 148.306 79.7955C148.306 79.2841 148.772 79.125 149.295 79.0568C149.579 79.0227 150.34 78.9432 150.454 78.8068V79.4205C150.454 79.9659 150.022 80.5 149.227 80.5ZM153.996 81.0909C154.837 81.0909 155.121 80.5682 155.268 80.3295H155.348V81H155.996V75.1818H155.325V77.3295H155.268C155.121 77.1023 154.859 76.5795 154.007 76.5795C152.905 76.5795 152.143 77.4545 152.143 78.8295C152.143 80.2159 152.905 81.0909 153.996 81.0909ZM154.087 80.4886C153.246 80.4886 152.814 79.75 152.814 78.8182C152.814 77.8977 153.234 77.1818 154.087 77.1818C154.905 77.1818 155.337 77.8409 155.337 78.8182C155.337 79.8068 154.893 80.4886 154.087 80.4886ZM161.51 76.6364H160.533V76.1932C160.533 75.7614 160.714 75.5341 161.158 75.5341C161.351 75.5341 161.464 75.5795 161.533 75.6023L161.726 75.0227C161.624 74.9773 161.419 74.9091 161.089 74.9091C160.464 74.9091 159.862 75.2841 159.862 76.0341V76.6364H159.158V77.2045H159.862V81H160.533V77.2045H161.51V76.6364ZM162.45 81H163.12V78.2386C163.12 77.6477 163.586 77.2159 164.222 77.2159C164.401 77.2159 164.586 77.25 164.631 77.2614V76.5795C164.555 76.5739 164.379 76.5682 164.279 76.5682C163.756 76.5682 163.302 76.8636 163.143 77.2955H163.097V76.6364H162.45V81ZM167.066 81.0909C168.248 81.0909 169.043 80.1932 169.043 78.8409C169.043 77.4773 168.248 76.5795 167.066 76.5795C165.884 76.5795 165.089 77.4773 165.089 78.8409C165.089 80.1932 165.884 81.0909 167.066 81.0909ZM167.066 80.4886C166.168 80.4886 165.759 79.7159 165.759 78.8409C165.759 77.9659 166.168 77.1818 167.066 77.1818C167.964 77.1818 168.373 77.9659 168.373 78.8409C168.373 79.7159 167.964 80.4886 167.066 80.4886ZM170.067 81H170.737V78.2727C170.737 77.6335 171.203 77.1818 171.726 77.1818C172.234 77.1818 172.589 77.5142 172.589 78.0114V81H173.271V78.1591C173.271 77.5966 173.624 77.1818 174.237 77.1818C174.714 77.1818 175.124 77.4347 175.124 78.0795V81H175.794V78.0795C175.794 77.054 175.243 76.5795 174.464 76.5795C173.839 76.5795 173.382 76.8665 173.158 77.3182H173.112C172.896 76.8523 172.516 76.5795 171.942 76.5795C171.374 76.5795 170.953 76.8523 170.771 77.3182H170.714V76.6364H170.067V81Z" fill="#C4C4C4"/>
<path d="M180.497 81.0966C181.219 81.0966 181.625 80.7301 181.787 80.4034H181.821V81H182.651V78.1023C182.651 76.8324 181.651 76.5795 180.957 76.5795C180.168 76.5795 179.44 76.8977 179.156 77.6932L179.955 77.875C180.08 77.5653 180.398 77.267 180.969 77.267C181.517 77.267 181.798 77.554 181.798 78.0483V78.0682C181.798 78.3778 181.48 78.3722 180.696 78.4631C179.869 78.5597 179.023 78.7756 179.023 79.767C179.023 80.625 179.668 81.0966 180.497 81.0966ZM180.682 80.4148C180.202 80.4148 179.855 80.1989 179.855 79.7784C179.855 79.3239 180.259 79.1619 180.75 79.0966C181.026 79.0597 181.679 78.9858 181.801 78.8636V79.4261C181.801 79.9432 181.389 80.4148 180.682 80.4148ZM185.62 81.0881C186.651 81.0881 187.319 80.4688 187.413 79.6193H186.586C186.478 80.0909 186.112 80.3693 185.626 80.3693C184.907 80.3693 184.444 79.7699 184.444 78.8182C184.444 77.8835 184.915 77.2955 185.626 77.2955C186.165 77.2955 186.495 77.6364 186.586 78.0455H187.413C187.322 77.1648 186.603 76.5795 185.612 76.5795C184.381 76.5795 183.586 77.5057 183.586 78.8381C183.586 80.1534 184.353 81.0881 185.62 81.0881ZM188.321 81H189.17V78.3097C189.17 77.7216 189.582 77.3125 190.065 77.3125C190.537 77.3125 190.864 77.625 190.864 78.0994V81H191.71V78.2188C191.71 77.6932 192.031 77.3125 192.585 77.3125C193.034 77.3125 193.403 77.5625 193.403 78.1534V81H194.253V78.0739C194.253 77.0767 193.696 76.5795 192.906 76.5795C192.278 76.5795 191.807 76.8807 191.597 77.3466H191.551C191.361 76.8693 190.96 76.5795 190.378 76.5795C189.801 76.5795 189.372 76.8665 189.19 77.3466H189.136V76.6364H188.321V81ZM197.272 81.0881C198.224 81.0881 198.897 80.6193 199.09 79.9091L198.286 79.7642C198.133 80.1761 197.763 80.3864 197.281 80.3864C196.553 80.3864 196.065 79.9148 196.042 79.0739H199.144V78.7727C199.144 77.196 198.201 76.5795 197.212 76.5795C195.996 76.5795 195.195 77.5057 195.195 78.8466C195.195 80.2017 195.985 81.0881 197.272 81.0881ZM196.045 78.4375C196.079 77.8182 196.528 77.2812 197.218 77.2812C197.877 77.2812 198.309 77.7699 198.312 78.4375H196.045ZM200.646 81.054C200.956 81.054 201.214 80.8011 201.214 80.4858C201.214 80.1761 200.956 79.9205 200.646 79.9205C200.334 79.9205 200.078 80.1761 200.078 80.4858C200.078 80.8011 200.334 81.054 200.646 81.054ZM204.19 81.0881C205.222 81.0881 205.889 80.4688 205.983 79.6193H205.156C205.048 80.0909 204.682 80.3693 204.196 80.3693C203.477 80.3693 203.014 79.7699 203.014 78.8182C203.014 77.8835 203.486 77.2955 204.196 77.2955C204.736 77.2955 205.065 77.6364 205.156 78.0455H205.983C205.892 77.1648 205.173 76.5795 204.182 76.5795C202.952 76.5795 202.156 77.5057 202.156 78.8381C202.156 80.1534 202.923 81.0881 204.19 81.0881ZM208.729 81.0881C209.96 81.0881 210.763 80.1875 210.763 78.8381C210.763 77.4801 209.96 76.5795 208.729 76.5795C207.499 76.5795 206.695 77.4801 206.695 78.8381C206.695 80.1875 207.499 81.0881 208.729 81.0881ZM208.732 80.375C207.928 80.375 207.553 79.6733 207.553 78.8352C207.553 78 207.928 77.2898 208.732 77.2898C209.531 77.2898 209.906 78 209.906 78.8352C209.906 79.6733 209.531 80.375 208.732 80.375ZM211.712 81H212.561V78.3097C212.561 77.7216 212.973 77.3125 213.456 77.3125C213.928 77.3125 214.254 77.625 214.254 78.0994V81H215.101V78.2188C215.101 77.6932 215.422 77.3125 215.976 77.3125C216.425 77.3125 216.794 77.5625 216.794 78.1534V81H217.643V78.0739C217.643 77.0767 217.087 76.5795 216.297 76.5795C215.669 76.5795 215.197 76.8807 214.987 77.3466H214.942C214.751 76.8693 214.351 76.5795 213.768 76.5795C213.192 76.5795 212.763 76.8665 212.581 77.3466H212.527V76.6364H211.712V81Z" fill="#FBFBFB"/>
<path d="M119.705 99H121.807C123.182 99 123.75 98.3295 123.75 97.4545C123.75 96.5341 123.114 96.0341 122.58 96V95.9432C123.08 95.8068 123.523 95.4773 123.523 94.7273C123.523 93.875 122.955 93.1818 121.739 93.1818H119.705V99ZM120.409 98.375V96.3523H121.841C122.602 96.3523 123.08 96.8636 123.08 97.4545C123.08 97.9659 122.727 98.375 121.807 98.375H120.409ZM120.409 95.7386V93.8068H121.739C122.511 93.8068 122.852 94.2159 122.852 94.7273C122.852 95.3409 122.352 95.7386 121.716 95.7386H120.409ZM126.589 99.0909C127.771 99.0909 128.567 98.1932 128.567 96.8409C128.567 95.4773 127.771 94.5795 126.589 94.5795C125.408 94.5795 124.612 95.4773 124.612 96.8409C124.612 98.1932 125.408 99.0909 126.589 99.0909ZM126.589 98.4886C125.692 98.4886 125.283 97.7159 125.283 96.8409C125.283 95.9659 125.692 95.1818 126.589 95.1818C127.487 95.1818 127.896 95.9659 127.896 96.8409C127.896 97.7159 127.487 98.4886 126.589 98.4886ZM131.363 99.0909C132.545 99.0909 133.34 98.1932 133.34 96.8409C133.34 95.4773 132.545 94.5795 131.363 94.5795C130.181 94.5795 129.386 95.4773 129.386 96.8409C129.386 98.1932 130.181 99.0909 131.363 99.0909ZM131.363 98.4886C130.465 98.4886 130.056 97.7159 130.056 96.8409C130.056 95.9659 130.465 95.1818 131.363 95.1818C132.261 95.1818 132.67 95.9659 132.67 96.8409C132.67 97.7159 132.261 98.4886 131.363 98.4886ZM134.364 99H135.034V97.3665L135.503 96.9318L137.136 99H137.989L136.009 96.5L137.852 94.6364H137.023L135.114 96.5795H135.034V93.1818H134.364V99ZM138.715 99H139.386V96.2727C139.386 95.6335 139.852 95.1818 140.374 95.1818C140.883 95.1818 141.238 95.5142 141.238 96.0114V99H141.92V96.1591C141.92 95.5966 142.272 95.1818 142.886 95.1818C143.363 95.1818 143.772 95.4347 143.772 96.0795V99H144.442V96.0795C144.442 95.054 143.891 94.5795 143.113 94.5795C142.488 94.5795 142.031 94.8665 141.806 95.3182H141.761C141.545 94.8523 141.164 94.5795 140.59 94.5795C140.022 94.5795 139.602 94.8523 139.42 95.3182H139.363V94.6364H138.715V99ZM146.952 99.1023C147.714 99.1023 148.112 98.6932 148.248 98.4091H148.282V99H148.952V96.125C148.952 94.7386 147.896 94.5795 147.339 94.5795C146.68 94.5795 145.93 94.8068 145.589 95.6023L146.225 95.8295C146.373 95.5114 146.722 95.1705 147.362 95.1705C147.978 95.1705 148.282 95.4972 148.282 96.0568V96.0795C148.282 96.4034 147.952 96.375 147.157 96.4773C146.347 96.5824 145.464 96.7614 145.464 97.7614C145.464 98.6136 146.123 99.1023 146.952 99.1023ZM147.055 98.5C146.521 98.5 146.134 98.2614 146.134 97.7955C146.134 97.2841 146.6 97.125 147.123 97.0568C147.407 97.0227 148.168 96.9432 148.282 96.8068V97.4205C148.282 97.9659 147.85 98.5 147.055 98.5ZM150.176 99H150.847V96.2386C150.847 95.6477 151.312 95.2159 151.949 95.2159C152.128 95.2159 152.312 95.25 152.358 95.2614V94.5795C152.281 94.5739 152.105 94.5682 152.006 94.5682C151.483 94.5682 151.028 94.8636 150.869 95.2955H150.824V94.6364H150.176V99ZM153.153 99H153.823V97.3665L154.292 96.9318L155.925 99H156.778L154.798 96.5L156.641 94.6364H155.812L153.903 96.5795H153.823V93.1818H153.153V99ZM161.697 94.6364H160.72V94.1932C160.72 93.7614 160.902 93.5341 161.345 93.5341C161.538 93.5341 161.652 93.5795 161.72 93.6023L161.913 93.0227C161.811 92.9773 161.607 92.9091 161.277 92.9091C160.652 92.9091 160.05 93.2841 160.05 94.0341V94.6364H159.345V95.2045H160.05V99H160.72V95.2045H161.697V94.6364ZM164.23 99.0909C165.412 99.0909 166.207 98.1932 166.207 96.8409C166.207 95.4773 165.412 94.5795 164.23 94.5795C163.048 94.5795 162.253 95.4773 162.253 96.8409C162.253 98.1932 163.048 99.0909 164.23 99.0909ZM164.23 98.4886C163.332 98.4886 162.923 97.7159 162.923 96.8409C162.923 95.9659 163.332 95.1818 164.23 95.1818C165.128 95.1818 165.537 95.9659 165.537 96.8409C165.537 97.7159 165.128 98.4886 164.23 98.4886ZM167.231 99H167.901V96.2386C167.901 95.6477 168.367 95.2159 169.004 95.2159C169.183 95.2159 169.367 95.25 169.413 95.2614V94.5795C169.336 94.5739 169.16 94.5682 169.06 94.5682C168.538 94.5682 168.083 94.8636 167.924 95.2955H167.879V94.6364H167.231V99Z" fill="#C4C4C4"/>
<path d="M174.048 99.0852C174.844 99.0852 175.156 98.5994 175.31 98.321H175.381V99H176.21V93.1818H175.361V95.3438H175.31C175.156 95.0739 174.866 94.5795 174.054 94.5795C173 94.5795 172.224 95.4119 172.224 96.8267C172.224 98.2386 172.989 99.0852 174.048 99.0852ZM174.236 98.3608C173.477 98.3608 173.082 97.6932 173.082 96.8182C173.082 95.9517 173.469 95.3011 174.236 95.3011C174.977 95.3011 175.375 95.9062 175.375 96.8182C175.375 97.7358 174.969 98.3608 174.236 98.3608ZM178.692 99.0966C179.414 99.0966 179.82 98.7301 179.982 98.4034H180.016V99H180.846V96.1023C180.846 94.8324 179.846 94.5795 179.153 94.5795C178.363 94.5795 177.636 94.8977 177.352 95.6932L178.15 95.875C178.275 95.5653 178.593 95.267 179.164 95.267C179.712 95.267 179.994 95.554 179.994 96.0483V96.0682C179.994 96.3778 179.675 96.3722 178.891 96.4631C178.065 96.5597 177.218 96.7756 177.218 97.767C177.218 98.625 177.863 99.0966 178.692 99.0966ZM178.877 98.4148C178.397 98.4148 178.05 98.1989 178.05 97.7784C178.05 97.3239 178.454 97.1619 178.945 97.0966C179.221 97.0597 179.874 96.9858 179.996 96.8636V97.4261C179.996 97.9432 179.585 98.4148 178.877 98.4148ZM181.977 99H182.827V94.6364H181.977V99ZM182.406 93.9631C182.699 93.9631 182.943 93.7358 182.943 93.4574C182.943 93.179 182.699 92.9489 182.406 92.9489C182.111 92.9489 181.869 93.179 181.869 93.4574C181.869 93.7358 182.111 93.9631 182.406 93.9631ZM184.819 93.1818H183.969V99H184.819V93.1818ZM186.499 100.625C187.2 100.625 187.646 100.259 187.896 99.5824L189.7 94.6449L188.783 94.6364L187.678 98.0227H187.632L186.527 94.6364H185.618L187.214 99.0568L187.109 99.3466C186.893 99.9119 186.589 99.9631 186.124 99.8352L185.919 100.531C186.021 100.58 186.243 100.625 186.499 100.625ZM191.35 96.4091C191.35 95.7131 191.776 95.3153 192.367 95.3153C192.944 95.3153 193.293 95.6932 193.293 96.3267V99H194.143V96.2244C194.143 95.1449 193.549 94.5795 192.657 94.5795C192.001 94.5795 191.572 94.8835 191.37 95.3466H191.316V94.6364H190.501V99H191.35V96.4091ZM197.163 99.0881C198.114 99.0881 198.788 98.6193 198.981 97.9091L198.177 97.7642C198.023 98.1761 197.654 98.3864 197.171 98.3864C196.444 98.3864 195.955 97.9148 195.933 97.0739H199.035V96.7727C199.035 95.196 198.092 94.5795 197.103 94.5795C195.887 94.5795 195.086 95.5057 195.086 96.8466C195.086 98.2017 195.876 99.0881 197.163 99.0881ZM195.935 96.4375C195.969 95.8182 196.418 95.2812 197.109 95.2812C197.768 95.2812 198.2 95.7699 198.202 96.4375H195.935ZM200.915 99H201.779L202.665 95.8494H202.731L203.617 99H204.484L205.765 94.6364H204.887L204.038 97.8267H203.995L203.143 94.6364H202.265L201.407 97.8409H201.364L200.509 94.6364H199.631L200.915 99ZM209.841 95.7017C209.665 95.0227 209.134 94.5795 208.19 94.5795C207.205 94.5795 206.506 95.0994 206.506 95.8722C206.506 96.4915 206.881 96.9034 207.699 97.0852L208.438 97.2472C208.858 97.3409 209.054 97.5284 209.054 97.8011C209.054 98.1392 208.693 98.4034 208.136 98.4034C207.628 98.4034 207.301 98.1847 207.199 97.7557L206.378 97.8807C206.52 98.6534 207.162 99.0881 208.142 99.0881C209.196 99.0881 209.926 98.5284 209.926 97.7386C209.926 97.1222 209.534 96.7415 208.733 96.5568L208.04 96.3977C207.56 96.2841 207.352 96.1222 207.355 95.8267C207.352 95.4915 207.716 95.2528 208.199 95.2528C208.727 95.2528 208.972 95.5455 209.071 95.8381L209.841 95.7017ZM211.42 99.054C211.729 99.054 211.988 98.8011 211.988 98.4858C211.988 98.1761 211.729 97.9205 211.42 97.9205C211.107 97.9205 210.852 98.1761 210.852 98.4858C210.852 98.8011 211.107 99.054 211.42 99.054ZM215.163 94.6364H214.268V93.5909H213.418V94.6364H212.779V95.3182H213.418V97.8949C213.415 98.6875 214.021 99.071 214.691 99.0568C214.961 99.054 215.143 99.0028 215.242 98.9659L215.089 98.2642C215.032 98.2756 214.927 98.3011 214.79 98.3011C214.515 98.3011 214.268 98.2102 214.268 97.7188V95.3182H215.163V94.6364ZM217.045 93.1818H216.196V99H217.045V93.1818ZM219.822 99.0852C220.617 99.0852 220.93 98.5994 221.083 98.321H221.154V99H221.984V93.1818H221.134V95.3438H221.083C220.93 95.0739 220.64 94.5795 219.827 94.5795C218.773 94.5795 217.998 95.4119 217.998 96.8267C217.998 98.2386 218.762 99.0852 219.822 99.0852ZM220.009 98.3608C219.251 98.3608 218.856 97.6932 218.856 96.8182C218.856 95.9517 219.242 95.3011 220.009 95.3011C220.751 95.3011 221.148 95.9062 221.148 96.8182C221.148 97.7358 220.742 98.3608 220.009 98.3608Z" fill="white"/>
<defs>
<linearGradient id="paint0_linear" x1="151" y1="33" x2="196" y2="33" gradientUnits="userSpaceOnUse">
<stop stop-color="#6B6B6B" stop-opacity="0"/>
<stop offset="1" stop-color="#6B6B6B"/>
</linearGradient>
</defs>
</svg>
