<svg width="248" height="148" viewBox="0 0 248 148" fill="none" xmlns="http://www.w3.org/2000/svg">
<rect width="248" height="148" rx="4" fill="#00BB78"/>
<path d="M20 22C20 19.7909 21.7909 18 24 18H248V50H20V22Z" fill="#1D1D1D"/>
<path d="M20 50H248V144C248 146.209 246.209 148 244 148H20V50Z" fill="#1D1D1D"/>
<circle cx="38" cy="34" r="4" fill="#6B6B6B"/>
<circle cx="52" cy="34" r="4" fill="#6B6B6B"/>
<circle cx="66" cy="34" r="4" fill="#6B6B6B"/>
<rect x="83" y="25" width="135" height="18" rx="2" fill="#6B6B6B"/>
<path d="M105.5 38C107.273 38 108.273 36.8977 108.273 35.0795C108.273 33.2727 107.273 32.1818 105.58 32.1818H103.705V38H105.5ZM104.409 37.375V32.8068H105.534C106.898 32.8068 107.591 33.6705 107.591 35.0795C107.591 36.5 106.898 37.375 105.455 37.375H104.409ZM110.648 38.1023C111.409 38.1023 111.807 37.6932 111.943 37.4091H111.977V38H112.648V35.125C112.648 33.7386 111.591 33.5795 111.034 33.5795C110.375 33.5795 109.625 33.8068 109.284 34.6023L109.92 34.8295C110.068 34.5114 110.418 34.1705 111.057 34.1705C111.673 34.1705 111.977 34.4972 111.977 35.0568V35.0795C111.977 35.4034 111.648 35.375 110.852 35.4773C110.043 35.5824 109.159 35.7614 109.159 36.7614C109.159 37.6136 109.818 38.1023 110.648 38.1023ZM110.75 37.5C110.216 37.5 109.83 37.2614 109.83 36.7955C109.83 36.2841 110.295 36.125 110.818 36.0568C111.102 36.0227 111.864 35.9432 111.977 35.8068V36.4205C111.977 36.9659 111.545 37.5 110.75 37.5ZM113.871 38H114.542V33.6364H113.871V38ZM114.212 32.9091C114.474 32.9091 114.69 32.7045 114.69 32.4545C114.69 32.2045 114.474 32 114.212 32C113.951 32 113.735 32.2045 113.735 32.4545C113.735 32.7045 113.951 32.9091 114.212 32.9091ZM116.44 32.1818H115.77V38H116.44V32.1818ZM118.1 39.625C118.705 39.625 119.134 39.304 119.384 38.6364L121.242 33.6477L120.509 33.6364L119.305 37.1136H119.259L118.055 33.6364H117.327L118.941 38.0227L118.816 38.3636C118.577 39.017 118.271 39.0795 117.782 38.9545L117.612 39.5455C117.68 39.5795 117.873 39.625 118.1 39.625ZM129.084 32.1818H128.391V36.7614H128.334L125.152 32.1818H124.47V38H125.175V33.4318H125.232L128.402 38H129.084V32.1818ZM132.232 38.0909C133.119 38.0909 133.766 37.6477 133.971 36.9886L133.323 36.8068C133.153 37.2614 132.758 37.4886 132.232 37.4886C131.445 37.4886 130.903 36.9801 130.871 36.0455H134.039V35.7614C134.039 34.1364 133.073 33.5795 132.164 33.5795C130.982 33.5795 130.198 34.5114 130.198 35.8523C130.198 37.1932 130.971 38.0909 132.232 38.0909ZM130.871 35.4659C130.917 34.7869 131.397 34.1818 132.164 34.1818C132.891 34.1818 133.357 34.7273 133.357 35.4659H130.871ZM136.048 38H136.707L137.661 34.6477H137.729L138.684 38H139.343L140.673 33.6364H139.968L139.025 36.9659H138.979L138.059 33.6364H137.343L136.411 36.9773H136.366L135.423 33.6364H134.718L136.048 38ZM144.65 34.6136C144.44 33.9943 143.968 33.5795 143.104 33.5795C142.184 33.5795 141.502 34.1023 141.502 34.8409C141.502 35.4432 141.86 35.8466 142.661 36.0341L143.388 36.2045C143.829 36.3068 144.036 36.517 144.036 36.8182C144.036 37.1932 143.638 37.5 143.013 37.5C142.465 37.5 142.121 37.2642 142.002 36.7955L141.366 36.9545C141.522 37.696 142.133 38.0909 143.025 38.0909C144.039 38.0909 144.729 37.5369 144.729 36.7841C144.729 36.1761 144.349 35.7926 143.57 35.6023L142.923 35.4432C142.406 35.3153 142.173 35.142 142.173 34.8068C142.173 34.4318 142.57 34.1591 143.104 34.1591C143.69 34.1591 143.931 34.483 144.048 34.7841L144.65 34.6136ZM150.489 34.7784H147.943V35.4034H150.489V34.7784ZM153.509 32.1818L155.612 35.6023V38H156.316V35.6023L158.418 32.1818H157.612L155.998 34.8977H155.93L154.316 32.1818H153.509ZM160.394 38.0909C161.576 38.0909 162.371 37.1932 162.371 35.8409C162.371 34.4773 161.576 33.5795 160.394 33.5795C159.212 33.5795 158.417 34.4773 158.417 35.8409C158.417 37.1932 159.212 38.0909 160.394 38.0909ZM160.394 37.4886C159.496 37.4886 159.087 36.7159 159.087 35.8409C159.087 34.9659 159.496 34.1818 160.394 34.1818C161.292 34.1818 161.701 34.9659 161.701 35.8409C161.701 36.7159 161.292 37.4886 160.394 37.4886ZM166.145 36.2159C166.145 37.0341 165.52 37.4091 165.02 37.4091C164.463 37.4091 164.065 37 164.065 36.3636V33.6364H163.395V36.4091C163.395 37.5227 163.986 38.0568 164.804 38.0568C165.463 38.0568 165.895 37.7045 166.099 37.2614H166.145V38H166.815V33.6364H166.145V36.2159ZM168.043 38H168.714V35.2386C168.714 34.6477 169.18 34.2159 169.816 34.2159C169.995 34.2159 170.18 34.25 170.225 34.2614V33.5795C170.148 33.5739 169.972 33.5682 169.873 33.5682C169.35 33.5682 168.896 33.8636 168.737 34.2955H168.691V33.6364H168.043V38ZM175.44 38H176.009L176.273 36.3864H177.134L177.224 35.8182H176.366L176.605 34.3636H177.474L177.565 33.7955H176.699L176.963 32.1818H176.395L176.131 33.7955H174.653L174.918 32.1818H174.349L174.085 33.7955H173.224L173.134 34.3636H173.991L173.753 35.8182H172.884L172.793 36.3864H173.659L173.395 38H173.963L174.227 36.3864H175.705L175.44 38ZM174.321 35.8182L174.56 34.3636H176.037L175.798 35.8182H174.321ZM180.351 32.1818H179.646L178.192 33.1477V33.8636L179.612 32.9205H179.646V38H180.351V32.1818ZM187.376 34.6136C187.166 33.9943 186.695 33.5795 185.831 33.5795C184.911 33.5795 184.229 34.1023 184.229 34.8409C184.229 35.4432 184.587 35.8466 185.388 36.0341L186.115 36.2045C186.555 36.3068 186.763 36.517 186.763 36.8182C186.763 37.1932 186.365 37.5 185.74 37.5C185.192 37.5 184.848 37.2642 184.729 36.7955L184.092 36.9545C184.249 37.696 184.859 38.0909 185.751 38.0909C186.766 38.0909 187.456 37.5369 187.456 36.7841C187.456 36.1761 187.075 35.7926 186.297 35.6023L185.649 35.4432C185.132 35.3153 184.899 35.142 184.899 34.8068C184.899 34.4318 185.297 34.1591 185.831 34.1591C186.416 34.1591 186.658 34.483 186.774 34.7841L187.376 34.6136ZM190.238 38.0909C191.42 38.0909 192.215 37.1932 192.215 35.8409C192.215 34.4773 191.42 33.5795 190.238 33.5795C189.056 33.5795 188.261 34.4773 188.261 35.8409C188.261 37.1932 189.056 38.0909 190.238 38.0909ZM190.238 37.4886C189.34 37.4886 188.931 36.7159 188.931 35.8409C188.931 34.9659 189.34 34.1818 190.238 34.1818C191.136 34.1818 191.545 34.9659 191.545 35.8409C191.545 36.7159 191.136 37.4886 190.238 37.4886Z" fill="#06FFA5"/>
<path d="M233 29.4167L229.25 31.0833V33.5833C229.25 35.8958 230.85 38.0583 233 38.5833C235.15 38.0583 236.75 35.8958 236.75 33.5833V31.0833L233 29.4167ZM233 33.9958H235.917C235.696 35.7125 234.55 37.2417 233 37.7208V34H230.083V31.625L233 30.3292V33.9958Z" fill="#28FF98"/>
<path d="M240.5 30.487C240.5 32.4225 238.933 33.9907 237 33.9907C235.067 33.9907 233.5 32.4225 233.5 30.487C233.5 28.5516 235.067 26.9833 237 26.9833C238.933 26.9833 240.5 28.5516 240.5 30.487Z" fill="#28FF98" stroke="#1D1D1D"/>
<path d="M237.033 32.0245C237.614 32.0245 238.019 31.685 238.022 31.212C238.019 30.8441 237.773 30.5316 237.459 30.4734V30.4563C237.732 30.3853 237.911 30.1183 237.914 29.8086C237.911 29.3654 237.539 29.0359 237.033 29.0359C236.522 29.0359 236.149 29.3654 236.152 29.8086C236.149 30.1183 236.328 30.3853 236.607 30.4563V30.4734C236.287 30.5316 236.042 30.8441 236.044 31.212C236.042 31.685 236.446 32.0245 237.033 32.0245ZM237.033 31.712C236.634 31.712 236.388 31.5075 236.391 31.195C236.388 30.8668 236.659 30.6325 237.033 30.6325C237.401 30.6325 237.672 30.8668 237.675 31.195C237.672 31.5075 237.426 31.712 237.033 31.712ZM237.033 30.3313C236.715 30.3313 236.49 30.1325 236.493 29.8313C236.49 29.5359 236.706 29.3427 237.033 29.3427C237.354 29.3427 237.57 29.5359 237.573 29.8313C237.57 30.1325 237.346 30.3313 237.033 30.3313Z" fill="#004423"/>
<circle cx="64.0173" cy="73.6724" r="17.6724" fill="#313131"/>
<rect x="98.6552" y="56" width="123" height="9.89655" rx="4.94828" fill="#313131"/>
<rect x="98.6552" y="68.7241" width="123" height="9.89655" rx="4.94828" fill="#313131"/>
<rect x="98.6552" y="81.4483" width="123" height="9.89655" rx="4.94828" fill="#313131"/>
<rect x="46.3448" y="102.655" width="123" height="9.89655" rx="4.94828" fill="#313131"/>
<rect x="46.3448" y="115.379" width="123" height="9.89655" rx="4.94828" fill="#313131"/>
<rect x="46.3448" y="128.103" width="123" height="9.89655" rx="4.94828" fill="#313131"/>
<rect x="186.31" y="102.655" width="35.3448" height="35.3448" rx="5" fill="#313131"/>
<path opacity="0.7" d="M90.7778 31.488H96.2222C96.65 31.488 97 31.8383 97 32.2665V37.7159C97 38.1441 96.65 38.4944 96.2222 38.4944H90.7778C90.35 38.4944 90 38.1441 90 37.7159V32.2665C90 31.8383 90.35 31.488 90.7778 31.488ZM95.25 37.3267C95.5728 37.3267 95.8333 37.0659 95.8333 36.7428C95.8333 36.4198 95.5728 36.159 95.25 36.159C94.9272 36.159 94.6667 36.4198 94.6667 36.7428C94.6667 37.0659 94.9272 37.3267 95.25 37.3267ZM95.25 33.8235C95.5728 33.8235 95.8333 33.5627 95.8333 33.2396C95.8333 32.9165 95.5728 32.6557 95.25 32.6557C94.9272 32.6557 94.6667 32.9165 94.6667 33.2396C94.6667 33.5627 94.9272 33.8235 95.25 33.8235ZM93.5 35.5751C93.8228 35.5751 94.0833 35.3143 94.0833 34.9912C94.0833 34.6681 93.8228 34.4073 93.5 34.4073C93.1772 34.4073 92.9167 34.6681 92.9167 34.9912C92.9167 35.3143 93.1772 35.5751 93.5 35.5751ZM91.75 37.3267C92.0728 37.3267 92.3333 37.0659 92.3333 36.7428C92.3333 36.4198 92.0728 36.159 91.75 36.159C91.4272 36.159 91.1667 36.4198 91.1667 36.7428C91.1667 37.0659 91.4272 37.3267 91.75 37.3267ZM91.75 33.8235C92.0728 33.8235 92.3333 33.5627 92.3333 33.2396C92.3333 32.9165 92.0728 32.6557 91.75 32.6557C91.4272 32.6557 91.1667 32.9165 91.1667 33.2396C91.1667 33.5627 91.4272 33.8235 91.75 33.8235Z" fill="#06FFA5"/>
<path opacity="0.5" d="M211 32.0928L210.396 31.488L208 33.8859L205.604 31.488L205 32.0928L207.396 34.4908L205 36.8887L205.604 37.4935L208 35.0956L210.396 37.4935L211 36.8887L208.604 34.4908L211 32.0928Z" fill="#06FFA5"/>
<rect x="163" y="25" width="33" height="18" rx="2" fill="url(#paint0_linear)"/>
<path d="M64 65C59.032 65 55 69.032 55 74C55 78.968 59.032 83 64 83C68.968 83 73 78.968 73 74C73 69.032 68.968 65 64 65ZM56.8 74C56.8 70.022 60.022 66.8 64 66.8C65.665 66.8 67.195 67.367 68.41 68.321L58.321 78.41C57.3326 77.1528 56.7967 75.5992 56.8 74V74ZM64 81.2C62.335 81.2 60.805 80.633 59.59 79.679L69.679 69.59C70.6674 70.8472 71.2032 72.4008 71.2 74C71.2 77.978 67.978 81.2 64 81.2Z" fill="#00BB78"/>
<path d="M204 111C199.032 111 195 115.032 195 120C195 124.968 199.032 129 204 129C208.968 129 213 124.968 213 120C213 115.032 208.968 111 204 111ZM196.8 120C196.8 116.022 200.022 112.8 204 112.8C205.665 112.8 207.195 113.367 208.41 114.321L198.321 124.41C197.333 123.153 196.797 121.599 196.8 120V120ZM204 127.2C202.335 127.2 200.805 126.633 199.59 125.679L209.679 115.59C210.667 116.847 211.203 118.401 211.2 120C211.2 123.978 207.978 127.2 204 127.2Z" fill="#00BB78"/>
<defs>
<linearGradient id="paint0_linear" x1="151" y1="33" x2="196" y2="33" gradientUnits="userSpaceOnUse">
<stop stop-color="#6B6B6B" stop-opacity="0"/>
<stop offset="1" stop-color="#6B6B6B"/>
</linearGradient>
</defs>
</svg>
