<svg width="248" height="148" viewBox="0 0 248 148" fill="none" xmlns="http://www.w3.org/2000/svg">
<rect width="248" height="148" rx="4" fill="#FF6464"/>
<path d="M20 22C20 19.7909 21.7909 18 24 18H248V50H20V22Z" fill="#1D1D1D"/>
<path d="M20 50H248V144C248 146.209 246.209 148 244 148H20V50Z" fill="#1D1D1D"/>
<circle cx="38" cy="34" r="4" fill="#6B6B6B"/>
<circle cx="52" cy="34" r="4" fill="#6B6B6B"/>
<circle cx="66" cy="34" r="4" fill="#6B6B6B"/>
<path d="M20 50H248V79H20V50Z" fill="#1D1D1D"/>
<rect x="83" y="25" width="135" height="18" rx="2" fill="#6B6B6B"/>
<path d="M105.5 38C107.273 38 108.273 36.8977 108.273 35.0795C108.273 33.2727 107.273 32.1818 105.58 32.1818H103.705V38H105.5ZM104.409 37.375V32.8068H105.534C106.898 32.8068 107.591 33.6705 107.591 35.0795C107.591 36.5 106.898 37.375 105.455 37.375H104.409ZM110.648 38.1023C111.409 38.1023 111.807 37.6932 111.943 37.4091H111.977V38H112.648V35.125C112.648 33.7386 111.591 33.5795 111.034 33.5795C110.375 33.5795 109.625 33.8068 109.284 34.6023L109.92 34.8295C110.068 34.5114 110.418 34.1705 111.057 34.1705C111.673 34.1705 111.977 34.4972 111.977 35.0568V35.0795C111.977 35.4034 111.648 35.375 110.852 35.4773C110.043 35.5824 109.159 35.7614 109.159 36.7614C109.159 37.6136 109.818 38.1023 110.648 38.1023ZM110.75 37.5C110.216 37.5 109.83 37.2614 109.83 36.7955C109.83 36.2841 110.295 36.125 110.818 36.0568C111.102 36.0227 111.864 35.9432 111.977 35.8068V36.4205C111.977 36.9659 111.545 37.5 110.75 37.5ZM113.871 38H114.542V33.6364H113.871V38ZM114.212 32.9091C114.474 32.9091 114.69 32.7045 114.69 32.4545C114.69 32.2045 114.474 32 114.212 32C113.951 32 113.735 32.2045 113.735 32.4545C113.735 32.7045 113.951 32.9091 114.212 32.9091ZM116.44 32.1818H115.77V38H116.44V32.1818ZM118.1 39.625C118.705 39.625 119.134 39.304 119.384 38.6364L121.242 33.6477L120.509 33.6364L119.305 37.1136H119.259L118.055 33.6364H117.327L118.941 38.0227L118.816 38.3636C118.577 39.017 118.271 39.0795 117.782 38.9545L117.612 39.5455C117.68 39.5795 117.873 39.625 118.1 39.625ZM129.084 32.1818H128.391V36.7614H128.334L125.152 32.1818H124.47V38H125.175V33.4318H125.232L128.402 38H129.084V32.1818ZM132.232 38.0909C133.119 38.0909 133.766 37.6477 133.971 36.9886L133.323 36.8068C133.153 37.2614 132.758 37.4886 132.232 37.4886C131.445 37.4886 130.903 36.9801 130.871 36.0455H134.039V35.7614C134.039 34.1364 133.073 33.5795 132.164 33.5795C130.982 33.5795 130.198 34.5114 130.198 35.8523C130.198 37.1932 130.971 38.0909 132.232 38.0909ZM130.871 35.4659C130.917 34.7869 131.397 34.1818 132.164 34.1818C132.891 34.1818 133.357 34.7273 133.357 35.4659H130.871ZM136.048 38H136.707L137.661 34.6477H137.729L138.684 38H139.343L140.673 33.6364H139.968L139.025 36.9659H138.979L138.059 33.6364H137.343L136.411 36.9773H136.366L135.423 33.6364H134.718L136.048 38ZM144.65 34.6136C144.44 33.9943 143.968 33.5795 143.104 33.5795C142.184 33.5795 141.502 34.1023 141.502 34.8409C141.502 35.4432 141.86 35.8466 142.661 36.0341L143.388 36.2045C143.829 36.3068 144.036 36.517 144.036 36.8182C144.036 37.1932 143.638 37.5 143.013 37.5C142.465 37.5 142.121 37.2642 142.002 36.7955L141.366 36.9545C141.522 37.696 142.133 38.0909 143.025 38.0909C144.039 38.0909 144.729 37.5369 144.729 36.7841C144.729 36.1761 144.349 35.7926 143.57 35.6023L142.923 35.4432C142.406 35.3153 142.173 35.142 142.173 34.8068C142.173 34.4318 142.57 34.1591 143.104 34.1591C143.69 34.1591 143.931 34.483 144.048 34.7841L144.65 34.6136ZM150.489 34.7784H147.943V35.4034H150.489V34.7784ZM153.509 32.1818L155.612 35.6023V38H156.316V35.6023L158.418 32.1818H157.612L155.998 34.8977H155.93L154.316 32.1818H153.509ZM160.394 38.0909C161.576 38.0909 162.371 37.1932 162.371 35.8409C162.371 34.4773 161.576 33.5795 160.394 33.5795C159.212 33.5795 158.417 34.4773 158.417 35.8409C158.417 37.1932 159.212 38.0909 160.394 38.0909ZM160.394 37.4886C159.496 37.4886 159.087 36.7159 159.087 35.8409C159.087 34.9659 159.496 34.1818 160.394 34.1818C161.292 34.1818 161.701 34.9659 161.701 35.8409C161.701 36.7159 161.292 37.4886 160.394 37.4886ZM166.145 36.2159C166.145 37.0341 165.52 37.4091 165.02 37.4091C164.463 37.4091 164.065 37 164.065 36.3636V33.6364H163.395V36.4091C163.395 37.5227 163.986 38.0568 164.804 38.0568C165.463 38.0568 165.895 37.7045 166.099 37.2614H166.145V38H166.815V33.6364H166.145V36.2159ZM168.043 38H168.714V35.2386C168.714 34.6477 169.18 34.2159 169.816 34.2159C169.995 34.2159 170.18 34.25 170.225 34.2614V33.5795C170.148 33.5739 169.972 33.5682 169.873 33.5682C169.35 33.5682 168.896 33.8636 168.737 34.2955H168.691V33.6364H168.043V38ZM175.44 38H176.009L176.273 36.3864H177.134L177.224 35.8182H176.366L176.605 34.3636H177.474L177.565 33.7955H176.699L176.963 32.1818H176.395L176.131 33.7955H174.653L174.918 32.1818H174.349L174.085 33.7955H173.224L173.134 34.3636H173.991L173.753 35.8182H172.884L172.793 36.3864H173.659L173.395 38H173.963L174.227 36.3864H175.705L175.44 38ZM174.321 35.8182L174.56 34.3636H176.037L175.798 35.8182H174.321ZM180.351 32.1818H179.646L178.192 33.1477V33.8636L179.612 32.9205H179.646V38H180.351V32.1818ZM187.376 34.6136C187.166 33.9943 186.695 33.5795 185.831 33.5795C184.911 33.5795 184.229 34.1023 184.229 34.8409C184.229 35.4432 184.587 35.8466 185.388 36.0341L186.115 36.2045C186.555 36.3068 186.763 36.517 186.763 36.8182C186.763 37.1932 186.365 37.5 185.74 37.5C185.192 37.5 184.848 37.2642 184.729 36.7955L184.092 36.9545C184.249 37.696 184.859 38.0909 185.751 38.0909C186.766 38.0909 187.456 37.5369 187.456 36.7841C187.456 36.1761 187.075 35.7926 186.297 35.6023L185.649 35.4432C185.132 35.3153 184.899 35.142 184.899 34.8068C184.899 34.4318 185.297 34.1591 185.831 34.1591C186.416 34.1591 186.658 34.483 186.774 34.7841L187.376 34.6136ZM190.238 38.0909C191.42 38.0909 192.215 37.1932 192.215 35.8409C192.215 34.4773 191.42 33.5795 190.238 33.5795C189.056 33.5795 188.261 34.4773 188.261 35.8409C188.261 37.1932 189.056 38.0909 190.238 38.0909ZM190.238 37.4886C189.34 37.4886 188.931 36.7159 188.931 35.8409C188.931 34.9659 189.34 34.1818 190.238 34.1818C191.136 34.1818 191.545 34.9659 191.545 35.8409C191.545 36.7159 191.136 37.4886 190.238 37.4886Z" fill="#FF6464"/>
<path d="M233 29.4167L229.25 31.0833V33.5833C229.25 35.8958 230.85 38.0583 233 38.5833C235.15 38.0583 236.75 35.8958 236.75 33.5833V31.0833L233 29.4167ZM233 33.9958H235.917C235.696 35.7125 234.55 37.2417 233 37.7208V34H230.083V31.625L233 30.3292V33.9958Z" fill="#FF6464"/>
<path d="M240.5 30.487C240.5 32.4225 238.933 33.9907 237 33.9907C235.067 33.9907 233.5 32.4225 233.5 30.487C233.5 28.5516 235.067 26.9833 237 26.9833C238.933 26.9833 240.5 28.5516 240.5 30.487Z" fill="#FF6464" stroke="#1D1D1D"/>
<path d="M237.033 32.0245C237.614 32.0245 238.019 31.685 238.022 31.212C238.019 30.8441 237.773 30.5316 237.459 30.4734V30.4563C237.732 30.3853 237.911 30.1183 237.914 29.8086C237.911 29.3654 237.539 29.0359 237.033 29.0359C236.522 29.0359 236.149 29.3654 236.152 29.8086C236.149 30.1183 236.328 30.3853 236.607 30.4563V30.4734C236.287 30.5316 236.042 30.8441 236.044 31.212C236.042 31.685 236.446 32.0245 237.033 32.0245ZM237.033 31.712C236.634 31.712 236.388 31.5075 236.391 31.195C236.388 30.8668 236.659 30.6325 237.033 30.6325C237.401 30.6325 237.672 30.8668 237.675 31.195C237.672 31.5075 237.426 31.712 237.033 31.712ZM237.033 30.3313C236.715 30.3313 236.49 30.1325 236.493 29.8313C236.49 29.5359 236.706 29.3427 237.033 29.3427C237.354 29.3427 237.57 29.5359 237.573 29.8313C237.57 30.1325 237.346 30.3313 237.033 30.3313Z" fill="#630000"/>
<path opacity="0.7" d="M90.7778 31.488H96.2222C96.65 31.488 97 31.8383 97 32.2665V37.7159C97 38.1441 96.65 38.4944 96.2222 38.4944H90.7778C90.35 38.4944 90 38.1441 90 37.7159V32.2665C90 31.8383 90.35 31.488 90.7778 31.488ZM95.25 37.3267C95.5728 37.3267 95.8333 37.0659 95.8333 36.7428C95.8333 36.4198 95.5728 36.159 95.25 36.159C94.9272 36.159 94.6667 36.4198 94.6667 36.7428C94.6667 37.0659 94.9272 37.3267 95.25 37.3267ZM95.25 33.8235C95.5728 33.8235 95.8333 33.5627 95.8333 33.2396C95.8333 32.9165 95.5728 32.6557 95.25 32.6557C94.9272 32.6557 94.6667 32.9165 94.6667 33.2396C94.6667 33.5627 94.9272 33.8235 95.25 33.8235ZM93.5 35.5751C93.8228 35.5751 94.0833 35.3143 94.0833 34.9912C94.0833 34.6681 93.8228 34.4073 93.5 34.4073C93.1772 34.4073 92.9167 34.6681 92.9167 34.9912C92.9167 35.3143 93.1772 35.5751 93.5 35.5751ZM91.75 37.3267C92.0728 37.3267 92.3333 37.0659 92.3333 36.7428C92.3333 36.4198 92.0728 36.159 91.75 36.159C91.4272 36.159 91.1667 36.4198 91.1667 36.7428C91.1667 37.0659 91.4272 37.3267 91.75 37.3267ZM91.75 33.8235C92.0728 33.8235 92.3333 33.5627 92.3333 33.2396C92.3333 32.9165 92.0728 32.6557 91.75 32.6557C91.4272 32.6557 91.1667 32.9165 91.1667 33.2396C91.1667 33.5627 91.4272 33.8235 91.75 33.8235Z" fill="#FF6464"/>
<path opacity="0.5" d="M211 32.0928L210.396 31.488L208 33.8859L205.604 31.488L205 32.0928L207.396 34.4908L205 36.8887L205.604 37.4935L208 35.0956L210.396 37.4935L211 36.8887L208.604 34.4908L211 32.0928Z" fill="#FF6464"/>
<rect x="163" y="25" width="33" height="18" rx="2" fill="url(#paint0_linear)"/>
<rect x="34" y="50" width="200" height="24" rx="2" fill="#262626"/>
<path d="M58.682 62.7188C58.682 61.767 59.2893 61.2273 60.1167 61.2273C60.905 61.2273 61.3809 61.7244 61.3809 62.5909V66H62.2189V62.5341C62.2189 61.1314 61.4732 60.4744 60.3582 60.4744C59.4988 60.4744 59.0087 60.8331 58.753 61.3977H58.682V58.7273H57.8439V66H58.682V62.7188ZM66.1243 60.5455H64.9595V59.2386H64.1215V60.5455H63.2976V61.2557H64.1215V64.6648C64.1215 65.6165 64.8885 66.071 65.5987 66.071C65.9112 66.071 66.1101 66.0142 66.2237 65.9716L66.0533 65.2188C65.9823 65.233 65.8686 65.2614 65.684 65.2614C65.3147 65.2614 64.9595 65.1477 64.9595 64.4375V61.2557H66.1243V60.5455ZM69.7571 60.5455H68.5924V59.2386H67.7543V60.5455H66.9304V61.2557H67.7543V64.6648C67.7543 65.6165 68.5213 66.071 69.2316 66.071C69.5441 66.071 69.7429 66.0142 69.8566 65.9716L69.6861 65.2188C69.6151 65.233 69.5014 65.2614 69.3168 65.2614C68.9475 65.2614 68.5924 65.1477 68.5924 64.4375V61.2557H69.7571V60.5455ZM71.0178 68.0455H71.8558V65.1619H71.9269C72.1115 65.4602 72.4666 66.1136 73.5178 66.1136C74.8814 66.1136 75.8331 65.0199 75.8331 63.2869C75.8331 61.5682 74.8814 60.4744 73.5036 60.4744C72.4382 60.4744 72.1115 61.1278 71.9269 61.4119H71.8274V60.5455H71.0178V68.0455ZM71.8416 63.2727C71.8416 62.0511 72.3814 61.2273 73.4041 61.2273C74.4695 61.2273 74.9951 62.1222 74.9951 63.2727C74.9951 64.4375 74.4553 65.3608 73.4041 65.3608C72.3956 65.3608 71.8416 64.5085 71.8416 63.2727ZM80.9752 61.767C80.7124 60.9929 80.1229 60.4744 79.0433 60.4744C77.8928 60.4744 77.0405 61.1278 77.0405 62.0511C77.0405 62.804 77.4879 63.3082 78.4894 63.5426L79.3985 63.7557C79.9489 63.8835 80.2081 64.1463 80.2081 64.5227C80.2081 64.9915 79.711 65.375 78.9297 65.375C78.2443 65.375 77.8147 65.0803 77.6655 64.4943L76.8701 64.6932C77.0654 65.62 77.8289 66.1136 78.9439 66.1136C80.2117 66.1136 81.0746 65.4212 81.0746 64.4801C81.0746 63.7202 80.5987 63.2408 79.6257 63.0028L78.8161 62.804C78.1698 62.6442 77.8786 62.4276 77.8786 62.0085C77.8786 61.5398 78.3757 61.1989 79.0433 61.1989C79.7749 61.1989 80.0767 61.6037 80.2223 61.9801L80.9752 61.767ZM82.9469 66.0568C83.2985 66.0568 83.5861 65.7692 83.5861 65.4176C83.5861 65.0661 83.2985 64.7784 82.9469 64.7784C82.5954 64.7784 82.3077 65.0661 82.3077 65.4176C82.3077 65.7692 82.5954 66.0568 82.9469 66.0568ZM82.9469 62.0085C83.2985 62.0085 83.5861 61.7209 83.5861 61.3693C83.5861 61.0178 83.2985 60.7301 82.9469 60.7301C82.5954 60.7301 82.3077 61.0178 82.3077 61.3693C82.3077 61.7209 82.5954 62.0085 82.9469 62.0085ZM87.6611 58.3864H86.894L84.5503 67.0938H85.3173L87.6611 58.3864ZM91.2255 58.3864H90.4585L88.1147 67.0938H88.8818L91.2255 58.3864Z" fill="#5E5E5E"/>
<path d="M94.2786 66.1136C95.3297 66.1136 95.6849 65.4602 95.8695 65.1619H95.9689V66H96.7786V58.7273H95.9405V61.4119H95.8695C95.6849 61.1278 95.3582 60.4744 94.2928 60.4744C92.915 60.4744 91.9633 61.5682 91.9633 63.2869C91.9633 65.0199 92.915 66.1136 94.2786 66.1136ZM94.3922 65.3608C93.3411 65.3608 92.8013 64.4375 92.8013 63.2727C92.8013 62.1222 93.3269 61.2273 94.3922 61.2273C95.415 61.2273 95.9547 62.0511 95.9547 63.2727C95.9547 64.5085 95.4008 65.3608 94.3922 65.3608ZM100.035 66.1278C100.987 66.1278 101.484 65.6165 101.654 65.2614H101.697V66H102.535V62.4062C102.535 60.6733 101.214 60.4744 100.518 60.4744C99.6941 60.4744 98.7566 60.7585 98.3305 61.7528L99.1259 62.0369C99.3106 61.6392 99.7474 61.2131 100.546 61.2131C101.317 61.2131 101.697 61.6214 101.697 62.321V62.3494C101.697 62.7543 101.285 62.7188 100.291 62.8466C99.2786 62.978 98.1742 63.2017 98.1742 64.4517C98.1742 65.517 98.9981 66.1278 100.035 66.1278ZM100.163 65.375C99.4952 65.375 99.0123 65.0767 99.0123 64.4943C99.0123 63.8551 99.5947 63.6562 100.248 63.571C100.603 63.5284 101.555 63.429 101.697 63.2585V64.0256C101.697 64.7074 101.157 65.375 100.163 65.375ZM104.065 66H104.903V60.5455H104.065V66ZM104.491 59.6364C104.817 59.6364 105.087 59.3807 105.087 59.0682C105.087 58.7557 104.817 58.5 104.491 58.5C104.164 58.5 103.894 58.7557 103.894 59.0682C103.894 59.3807 104.164 59.6364 104.491 59.6364ZM107.276 58.7273H106.438V66H107.276V58.7273ZM109.351 68.0312C110.107 68.0312 110.643 67.63 110.956 66.7955L113.278 60.5597L112.362 60.5455L110.856 64.892H110.799L109.294 60.5455H108.385L110.402 66.0284L110.245 66.4545C109.947 67.2713 109.564 67.3494 108.953 67.1932L108.74 67.9318C108.825 67.9744 109.066 68.0312 109.351 68.0312ZM115.225 62.7188C115.225 61.767 115.814 61.2273 116.617 61.2273C117.395 61.2273 117.867 61.7351 117.867 62.5909V66H118.705V62.5341C118.705 61.142 117.963 60.4744 116.859 60.4744C116.035 60.4744 115.523 60.8438 115.268 61.3977H115.197V60.5455H114.387V66H115.225V62.7188ZM122.523 66.1136C123.631 66.1136 124.441 65.5597 124.697 64.7358L123.887 64.5085C123.674 65.0767 123.18 65.3608 122.523 65.3608C121.54 65.3608 120.862 64.7251 120.822 63.5568H124.782V63.2017C124.782 61.1705 123.575 60.4744 122.438 60.4744C120.961 60.4744 119.981 61.6392 119.981 63.3153C119.981 64.9915 120.947 66.1136 122.523 66.1136ZM120.822 62.8324C120.879 61.9837 121.479 61.2273 122.438 61.2273C123.347 61.2273 123.93 61.9091 123.93 62.8324H120.822ZM127.293 66H128.116L129.31 61.8097H129.395L130.588 66H131.412L133.074 60.5455H132.193L131.014 64.7074H130.957L129.807 60.5455H128.912L127.747 64.7216H127.69L126.511 60.5455H125.631L127.293 66ZM138.045 61.767C137.783 60.9929 137.193 60.4744 136.114 60.4744C134.963 60.4744 134.111 61.1278 134.111 62.0511C134.111 62.804 134.558 63.3082 135.56 63.5426L136.469 63.7557C137.019 63.8835 137.278 64.1463 137.278 64.5227C137.278 64.9915 136.781 65.375 136 65.375C135.315 65.375 134.885 65.0803 134.736 64.4943L133.94 64.6932C134.136 65.62 134.899 66.1136 136.014 66.1136C137.282 66.1136 138.145 65.4212 138.145 64.4801C138.145 63.7202 137.669 63.2408 136.696 63.0028L135.886 62.804C135.24 62.6442 134.949 62.4276 134.949 62.0085C134.949 61.5398 135.446 61.1989 136.114 61.1989C136.845 61.1989 137.147 61.6037 137.293 61.9801L138.045 61.767ZM140.017 66.0568C140.369 66.0568 140.656 65.7692 140.656 65.4176C140.656 65.0661 140.369 64.7784 140.017 64.7784C139.666 64.7784 139.378 65.0661 139.378 65.4176C139.378 65.7692 139.666 66.0568 140.017 66.0568ZM144.533 60.5455H143.368V59.2386H142.53V60.5455H141.706V61.2557H142.53V64.6648C142.53 65.6165 143.297 66.071 144.007 66.071C144.319 66.071 144.518 66.0142 144.632 65.9716L144.461 65.2188C144.39 65.233 144.277 65.2614 144.092 65.2614C143.723 65.2614 143.368 65.1477 143.368 64.4375V61.2557H144.533V60.5455ZM146.748 58.7273H145.91V66H146.748V58.7273ZM150.343 66.1136C151.394 66.1136 151.749 65.4602 151.934 65.1619H152.033V66H152.843V58.7273H152.005V61.4119H151.934C151.749 61.1278 151.423 60.4744 150.357 60.4744C148.979 60.4744 148.028 61.5682 148.028 63.2869C148.028 65.0199 148.979 66.1136 150.343 66.1136ZM150.457 65.3608C149.406 65.3608 148.866 64.4375 148.866 63.2727C148.866 62.1222 149.391 61.2273 150.457 61.2273C151.479 61.2273 152.019 62.0511 152.019 63.2727C152.019 64.5085 151.465 65.3608 150.457 65.3608Z" fill="white"/>
<path d="M46 64.5C46.2652 64.5 46.5196 64.3946 46.7071 64.2071C46.8946 64.0196 47 63.7652 47 63.5C47 63.2348 46.8946 62.9804 46.7071 62.7929C46.5196 62.6054 46.2652 62.5 46 62.5C45.7348 62.5 45.4804 62.6054 45.2929 62.7929C45.1054 62.9804 45 63.2348 45 63.5C45 63.7652 45.1054 64.0196 45.2929 64.2071C45.4804 64.3946 45.7348 64.5 46 64.5ZM49 60C49.2652 60 49.5196 60.1054 49.7071 60.2929C49.8946 60.4804 50 60.7348 50 61V66C50 66.2652 49.8946 66.5196 49.7071 66.7071C49.5196 66.8946 49.2652 67 49 67H43C42.7348 67 42.4804 66.8946 42.2929 66.7071C42.1054 66.5196 42 66.2652 42 66V61C42 60.7348 42.1054 60.4804 42.2929 60.2929C42.4804 60.1054 42.7348 60 43 60H43.5V59C43.5 58.337 43.7634 57.7011 44.2322 57.2322C44.7011 56.7634 45.337 56.5 46 56.5C46.3283 56.5 46.6534 56.5647 46.9567 56.6903C47.26 56.8159 47.5356 57.0001 47.7678 57.2322C47.9999 57.4644 48.1841 57.74 48.3097 58.0433C48.4353 58.3466 48.5 58.6717 48.5 59V60H49ZM46 57.5C45.6022 57.5 45.2206 57.658 44.9393 57.9393C44.658 58.2206 44.5 58.6022 44.5 59V60H47.5V59C47.5 58.6022 47.342 58.2206 47.0607 57.9393C46.7794 57.658 46.3978 57.5 46 57.5Z" fill="#FF6464"/>
<path d="M222.462 65.0533L225.433 62L222.462 58.94L223.376 58L227.269 62L223.376 66L222.462 65.0533Z" fill="#FF6464"/>
<defs>
<linearGradient id="paint0_linear" x1="151" y1="33" x2="196" y2="33" gradientUnits="userSpaceOnUse">
<stop stop-color="#6B6B6B" stop-opacity="0"/>
<stop offset="1" stop-color="#6B6B6B"/>
</linearGradient>
</defs>
</svg>
