<svg width="248" height="148" viewBox="0 0 248 148" fill="none" xmlns="http://www.w3.org/2000/svg">
<rect width="248" height="148" rx="4" fill="#6FB1FF"/>
<path d="M20 22C20 19.7909 21.7909 18 24 18H248V50H20V22Z" fill="#1D1D1D"/>
<path d="M20 50H248V144C248 146.209 246.209 148 244 148H20V50Z" fill="#1D1D1D"/>
<circle cx="38" cy="34" r="4" fill="#6B6B6B"/>
<circle cx="52" cy="34" r="4" fill="#6B6B6B"/>
<circle cx="66" cy="34" r="4" fill="#6B6B6B"/>
<rect x="83" y="25" width="135" height="18" rx="2" fill="#6B6B6B"/>
<path d="M105.261 37.0909C106.102 37.0909 106.386 36.5682 106.534 36.3295H106.614V37H107.261V31.1818H106.591V33.3295H106.534C106.386 33.1023 106.125 32.5795 105.273 32.5795C104.17 32.5795 103.409 33.4545 103.409 34.8295C103.409 36.2159 104.17 37.0909 105.261 37.0909ZM105.352 36.4886C104.511 36.4886 104.08 35.75 104.08 34.8182C104.08 33.8977 104.5 33.1818 105.352 33.1818C106.17 33.1818 106.602 33.8409 106.602 34.8182C106.602 35.8068 106.159 36.4886 105.352 36.4886ZM110.355 37.0909C111.537 37.0909 112.332 36.1932 112.332 34.8409C112.332 33.4773 111.537 32.5795 110.355 32.5795C109.173 32.5795 108.378 33.4773 108.378 34.8409C108.378 36.1932 109.173 37.0909 110.355 37.0909ZM110.355 36.4886C109.457 36.4886 109.048 35.7159 109.048 34.8409C109.048 33.9659 109.457 33.1818 110.355 33.1818C111.253 33.1818 111.662 33.9659 111.662 34.8409C111.662 35.7159 111.253 36.4886 110.355 36.4886ZM115.254 32.6364H114.322V31.5909H113.651V32.6364H112.992V33.2045H113.651V35.9318C113.651 36.6932 114.265 37.0568 114.833 37.0568C115.083 37.0568 115.242 37.0114 115.333 36.9773L115.197 36.375C115.14 36.3864 115.049 36.4091 114.901 36.4091C114.606 36.4091 114.322 36.3182 114.322 35.75V33.2045H115.254V32.6364ZM117.026 34.375C117.026 33.6136 117.512 33.1818 118.174 33.1818C118.805 33.1818 119.185 33.5795 119.185 34.2727V37H119.856V34.2273C119.856 33.1051 119.259 32.5795 118.367 32.5795C117.68 32.5795 117.288 32.8665 117.083 33.3182H117.026V31.1818H116.356V37H117.026V34.375ZM124.73 38.6364V32.6364H124.082V33.3295H124.003C123.855 33.1023 123.594 32.5795 122.741 32.5795C121.639 32.5795 120.878 33.4545 120.878 34.8295C120.878 36.2159 121.639 37.0909 122.73 37.0909C123.571 37.0909 123.855 36.5682 124.003 36.3295H124.06V38.6364H124.73ZM124.071 34.8182C124.071 35.8068 123.628 36.4886 122.821 36.4886C121.98 36.4886 121.548 35.75 121.548 34.8182C121.548 33.8977 121.969 33.1818 122.821 33.1818C123.639 33.1818 124.071 33.8409 124.071 34.8182ZM128.014 30.9091H127.401L125.526 37.875H126.139L128.014 30.9091ZM128.9 37H129.548V36.3295H129.627C129.775 36.5682 130.059 37.0909 130.9 37.0909C131.991 37.0909 132.752 36.2159 132.752 34.8295C132.752 33.4545 131.991 32.5795 130.888 32.5795C130.036 32.5795 129.775 33.1023 129.627 33.3295H129.57V31.1818H128.9V37ZM129.559 34.8182C129.559 33.8409 129.991 33.1818 130.809 33.1818C131.661 33.1818 132.082 33.8977 132.082 34.8182C132.082 35.75 131.65 36.4886 130.809 36.4886C130.002 36.4886 129.559 35.8068 129.559 34.8182ZM133.778 37H134.448V34.2386C134.448 33.6477 134.914 33.2159 135.55 33.2159C135.729 33.2159 135.914 33.25 135.96 33.2614V32.5795C135.883 32.5739 135.707 32.5682 135.607 32.5682C135.085 32.5682 134.63 32.8636 134.471 33.2955H134.425V32.6364H133.778V37ZM138.394 37.0909C139.576 37.0909 140.371 36.1932 140.371 34.8409C140.371 33.4773 139.576 32.5795 138.394 32.5795C137.212 32.5795 136.417 33.4773 136.417 34.8409C136.417 36.1932 137.212 37.0909 138.394 37.0909ZM138.394 36.4886C137.496 36.4886 137.087 35.7159 137.087 34.8409C137.087 33.9659 137.496 33.1818 138.394 33.1818C139.292 33.1818 139.701 33.9659 139.701 34.8409C139.701 35.7159 139.292 36.4886 138.394 36.4886ZM142.235 37H142.894L143.849 33.6477H143.917L144.871 37H145.531L146.86 32.6364H146.156L145.212 35.9659H145.167L144.246 32.6364H143.531L142.599 35.9773H142.553L141.61 32.6364H140.906L142.235 37ZM150.837 33.6136C150.627 32.9943 150.156 32.5795 149.292 32.5795C148.371 32.5795 147.69 33.1023 147.69 33.8409C147.69 34.4432 148.048 34.8466 148.849 35.0341L149.576 35.2045C150.016 35.3068 150.224 35.517 150.224 35.8182C150.224 36.1932 149.826 36.5 149.201 36.5C148.653 36.5 148.309 36.2642 148.19 35.7955L147.553 35.9545C147.71 36.696 148.32 37.0909 149.212 37.0909C150.227 37.0909 150.917 36.5369 150.917 35.7841C150.917 35.1761 150.536 34.7926 149.758 34.6023L149.11 34.4432C148.593 34.3153 148.36 34.142 148.36 33.8068C148.36 33.4318 148.758 33.1591 149.292 33.1591C149.877 33.1591 150.119 33.483 150.235 33.7841L150.837 33.6136ZM153.756 37.0909C154.642 37.0909 155.29 36.6477 155.494 35.9886L154.847 35.8068C154.676 36.2614 154.281 36.4886 153.756 36.4886C152.969 36.4886 152.426 35.9801 152.395 35.0455H155.562V34.7614C155.562 33.1364 154.597 32.5795 153.688 32.5795C152.506 32.5795 151.722 33.5114 151.722 34.8523C151.722 36.1932 152.494 37.0909 153.756 37.0909ZM152.395 34.4659C152.44 33.7869 152.92 33.1818 153.688 33.1818C154.415 33.1818 154.881 33.7273 154.881 34.4659H152.395ZM156.582 37H157.253V34.2386C157.253 33.6477 157.719 33.2159 158.355 33.2159C158.534 33.2159 158.719 33.25 158.764 33.2614V32.5795C158.688 32.5739 158.511 32.5682 158.412 32.5682C157.889 32.5682 157.435 32.8636 157.276 33.2955H157.23V32.6364H156.582V37ZM164.309 33.7784H161.763V34.4034H164.309V33.7784ZM171.807 33H172.534C172.318 31.875 171.375 31.1023 170.148 31.1023C168.656 31.1023 167.602 32.25 167.602 34.0909C167.602 35.9318 168.648 37.0795 170.193 37.0795C171.58 37.0795 172.568 36.1562 172.568 34.7159V34.0909H170.352V34.7159H171.886C171.866 35.7614 171.179 36.4205 170.193 36.4205C169.114 36.4205 168.284 35.6023 168.284 34.0909C168.284 32.5795 169.114 31.7614 170.148 31.7614C170.989 31.7614 171.56 32.2358 171.807 33ZM173.957 37H174.628V32.6364H173.957V37ZM174.298 31.9091C174.56 31.9091 174.776 31.7045 174.776 31.4545C174.776 31.2045 174.56 31 174.298 31C174.037 31 173.821 31.2045 173.821 31.4545C173.821 31.7045 174.037 31.9091 174.298 31.9091ZM177.754 32.6364H176.822V31.5909H176.151V32.6364H175.492V33.2045H176.151V35.9318C176.151 36.6932 176.765 37.0568 177.333 37.0568C177.583 37.0568 177.742 37.0114 177.833 36.9773L177.697 36.375C177.64 36.3864 177.549 36.4091 177.401 36.4091C177.106 36.4091 176.822 36.3182 176.822 35.75V33.2045H177.754V32.6364ZM178.947 37H179.651V34.3977H182.754V37H183.458V31.1818H182.754V33.7727H179.651V31.1818H178.947V37ZM187.528 35.2159C187.528 36.0341 186.903 36.4091 186.403 36.4091C185.846 36.4091 185.448 36 185.448 35.3636V32.6364H184.778V35.4091C184.778 36.5227 185.369 37.0568 186.187 37.0568C186.846 37.0568 187.278 36.7045 187.482 36.2614H187.528V37H188.198V32.6364H187.528V35.2159ZM189.517 37H190.165V36.3295H190.244C190.392 36.5682 190.676 37.0909 191.517 37.0909C192.608 37.0909 193.369 36.2159 193.369 34.8295C193.369 33.4545 192.608 32.5795 191.506 32.5795C190.653 32.5795 190.392 33.1023 190.244 33.3295H190.188V31.1818H189.517V37ZM190.176 34.8182C190.176 33.8409 190.608 33.1818 191.426 33.1818C192.278 33.1818 192.699 33.8977 192.699 34.8182C192.699 35.75 192.267 36.4886 191.426 36.4886C190.619 36.4886 190.176 35.8068 190.176 34.8182Z" fill="#6FB1FF"/>
<path d="M93.1666 31.1543C92.707 31.1543 92.2519 31.2472 91.8272 31.4276C91.4026 31.608 91.0168 31.8725 90.6918 32.2058C90.0354 32.8791 89.6666 33.7923 89.6666 34.7445C89.6666 36.3314 90.6711 37.6777 92.0606 38.1552C92.2356 38.1839 92.2916 38.0726 92.2916 37.9757V37.3689C91.3221 37.5844 91.1156 36.8879 91.1156 36.8879C90.9546 36.4714 90.7271 36.3601 90.7271 36.3601C90.4086 36.1375 90.7516 36.1447 90.7516 36.1447C91.1016 36.1698 91.2871 36.5145 91.2871 36.5145C91.5916 37.0602 92.1061 36.8986 92.3056 36.8125C92.3371 36.5791 92.4281 36.4211 92.5261 36.3314C91.7491 36.2416 90.9336 35.9329 90.9336 34.565C90.9336 34.1665 91.0666 33.847 91.2941 33.592C91.2591 33.5023 91.1366 33.1289 91.3291 32.6442C91.3291 32.6442 91.6231 32.5473 92.2916 33.0104C92.5681 32.9315 92.8691 32.892 93.1666 32.892C93.4641 32.892 93.7651 32.9315 94.0416 33.0104C94.7101 32.5473 95.0041 32.6442 95.0041 32.6442C95.1966 33.1289 95.0741 33.5023 95.0391 33.592C95.2666 33.847 95.3996 34.1665 95.3996 34.565C95.3996 35.9365 94.5806 36.238 93.8001 36.3278C93.9261 36.4391 94.0416 36.6581 94.0416 36.992V37.9757C94.0416 38.0726 94.0976 38.1875 94.2761 38.1552C95.6656 37.6741 96.6666 36.3314 96.6666 34.7445C96.6666 34.273 96.5761 33.8062 96.4002 33.3706C96.2243 32.935 95.9665 32.5392 95.6415 32.2058C95.3165 31.8725 94.9307 31.608 94.506 31.4276C94.0814 31.2472 93.6263 31.1543 93.1666 31.1543V31.1543Z" fill="#6FB1FF"/>
<path d="M211 32.0928L210.396 31.488L208 33.8859L205.604 31.488L205 32.0928L207.396 34.4908L205 36.8887L205.604 37.4935L208 35.0956L210.396 37.4935L211 36.8887L208.604 34.4908L211 32.0928Z" fill="#6FB1FF"/>
<path d="M134 116L130.23 112.475C116.84 100.005 108 91.7537 108 81.6866C108 73.4354 114.292 67 122.3 67C126.824 67 131.166 69.1629 134 72.5542C136.834 69.1629 141.176 67 145.7 67C153.708 67 160 73.4354 160 81.6866C160 91.7537 151.16 100.005 137.77 112.475L134 116Z" fill="#6FB1FF"/>
</svg>
